<?xml version="1.0" encoding="UTF-8"?>
<svg width="1200px" height="888px" viewBox="0 0 1200 888" version="1.1" xmlns="http://www.w3.org/2000/svg" xmlns:xlink="http://www.w3.org/1999/xlink">
    <!-- Generator: Sketch 63.1 (92452) - https://sketch.com -->
    <title>Web—Section Right</title>
    <desc>Created with Sketch.</desc>
    <g id="Web—Section-Right" stroke="none" stroke-width="1" fill="none" fill-rule="evenodd">
        <rect fill="#FFFFFF" x="0" y="0" width="1200" height="888"></rect>
        <polygon id="Background" fill="#2026A2" transform="translate(963.500000, 444.000000) scale(-1, 1) translate(-963.500000, -444.000000) " points="727 0 1097.72973 0 1200 888 727 888"></polygon>
        <g id="Humaaans" transform="translate(463.000000, 158.000000)">
            <g id="Humaaan" transform="translate(0.000000, 109.000000)">
                <g id="Head/Front/Rad" transform="translate(167.500000, 68.500000) rotate(-8.000000) translate(-167.500000, -68.500000) translate(89.000000, 11.000000)">
                    <g id="Head" stroke-width="1" transform="translate(62.338235, 34.278846)" fill="#B28B67">
                        <path d="M44.033122,10.100022 C50.7227197,22.0435701 49.9278216,52.3393704 41.2821126,54.4740156 C37.8341362,55.3253288 30.4888313,53.2398845 23.0131101,48.9236932 L27.7058824,80.7211538 L0,80.7211538 L9.53706269,38.1369926 C4.21818842,32.1563688 0.618380939,24.8271842 1.21995503,16.6146846 C2.95336651,-7.0493016 37.3435243,-1.84352614 44.033122,10.100022 Z"></path>
                    </g>
                    <path d="M110.138522,43.0163041 C111.033397,42.1668701 111.52153,40.9544462 111.943784,39.8031991 C112.382296,38.6072797 112.808376,37.3990369 113.099513,36.1542641 C113.681256,33.6671391 113.686781,30.8069013 111.834449,28.8756494 C110.348906,27.3269729 108.119902,26.6323516 106.06271,26.48139 C104.692135,26.3807122 103.284477,26.5645729 101.970641,26.9782868 C100.667112,27.3886999 99.5434722,28.2066652 98.2797888,28.714345 C98.2315493,26.0341168 97.7522358,23.2296644 96.3326771,20.9411441 C94.9666707,18.7392176 92.7887745,17.5035773 90.3084783,17.1766773 C87.7627294,16.8411949 85.2488568,17.411812 82.9698064,18.5923272 C82.3992203,18.8879786 81.833947,19.1977139 81.2930059,19.5482704 C80.8400434,19.8418313 80.369124,20.1953587 79.8376395,20.3147415 C79.245165,20.4479882 78.9514779,20.120208 78.566412,19.7061639 C78.1149371,19.2207102 77.6062973,18.7931325 77.0680126,18.4140781 C74.6879143,16.7383165 71.5650978,16.0493068 68.8076901,17.0537734 C67.5372064,17.5165609 66.3017866,18.3025073 65.439851,19.3855356 C64.6715255,20.3509415 64.1234654,21.8823433 63.0630466,22.5549586 C62.6130592,22.8404872 62.2952524,22.462203 61.8855354,22.182616 C61.27011,21.7625203 60.6831608,21.2989626 60.0602975,20.8903101 C59.1853989,20.3161719 58.238141,19.8867237 57.2237304,19.6619317 C55.738719,19.3328311 53.6865218,19.4099624 53.2619292,21.2729955 C53.1025476,21.9727882 53.2247402,22.7212143 53.2762736,23.4262885 C53.3469327,24.3944452 53.4206733,25.3622717 53.5084394,26.328998 C53.5750609,27.0630102 53.6593206,27.7719354 53.8039329,28.4927439 C53.8810735,28.8769698 54.1224835,29.5932671 53.9504577,29.978043 C53.735505,30.4589855 52.7434078,30.1855602 52.319559,30.2022848 C51.4823807,30.2354039 50.641696,30.3760226 49.8676328,30.718657 C49.2677205,30.9842702 48.6369944,31.3748778 48.3837902,32.0335192 C48.2281275,32.4381006 48.2691417,32.853685 48.3426698,33.2699297 C48.4308609,33.7694673 48.3300255,34.0344202 48.2641478,34.5384691 C47.1397638,34.008123 43.2434154,32.8298085 42.7531576,34.7599601 C42.5899509,35.4026471 42.9616287,36.1288471 43.2452217,36.6708564 C43.7425985,37.6215182 44.3946817,38.4904275 45.0613217,39.3190658 C46.4518729,41.0477519 48.1119915,42.5387725 49.8981278,43.8139137 C47.8054476,44.7050492 47.2591938,47.3335631 49.0710436,48.8996244 C49.8710329,49.5910549 50.9466461,49.7449873 51.955744,49.7007551 C52.3250843,49.6845806 52.857525,49.5485832 53.1481308,49.6102002 C53.3045372,49.6433193 53.4719941,49.7702942 53.6886468,49.7844882 C55.1127744,49.8779039 56.7204033,49.5492434 58.1125483,49.24655 C60.5931633,48.7071814 62.9415978,47.5814614 64.8593833,45.8669692 C65.3513411,45.4271781 65.7577641,45.1739983 66.4199415,45.1804901 C67.0001967,45.1861017 67.5695077,45.3384936 68.1492317,45.3525775 C69.68312,45.3900978 71.0661272,44.67182 72.4904673,44.1937383 C72.5777021,46.036856 73.125656,48.0668051 73.9127885,49.7249618 C74.5546713,51.0771242 75.8950704,51.2736383 77.2121998,51.392251 C81.4241238,51.7718555 85.6509234,51.3482388 89.8681601,51.3538504 C85.7857602,52.2377238 81.5672484,52.6020342 77.5210813,53.6421506 C75.6921245,54.1122001 77.0887322,55.2929353 77.8707645,56.1114507 C79.1584614,57.459322 80.1159197,59.1293619 80.7800097,60.8887465 C82.7770609,58.3952397 86.306938,56.7522672 89.4342172,57.5182982 C92.8896099,58.3645413 95.3227292,62.8404641 93.1131691,66.0583003 C91.8303599,67.9262848 89.5138017,68.6474234 87.5862408,69.4499845 C89.0899529,70.9474969 89.4536617,73.1592161 90.3587366,75.0222492 C90.8051113,75.9410022 91.4316934,76.9797983 92.4299534,77.2999865 C92.7992937,77.4184892 93.2323866,77.428612 93.5237361,77.7170014 C93.8846822,78.0740497 93.970642,78.4732397 94.4315736,78.7801142 C96.2708371,80.0049715 99.1438495,79.9105655 100.774111,78.3121553 C102.24839,76.8665772 101.864812,74.5790471 100.633536,73.1134435 C102.593504,72.3309079 106.164289,71.3244607 105.385339,68.3996352 C109.632326,68.1295108 119.94389,61.5318736 114.243767,56.7107858 C117.372002,55.0173094 120.245971,50.8786295 118.236594,47.2303547 C116.689318,44.421061 113.090907,43.1652851 110.138522,43.0163041" id="hair" fill="#191847" transform="translate(80.808824, 48.100962) scale(-1, 1) translate(-80.808824, -48.100962) "></path>
                </g>
                <g id="Bottom/Sitting/Wheelchair" transform="translate(0.000000, 237.258289)">
                    <path d="M358.94342,29.1785849 C358.907021,56.1878319 334.146426,184.410816 332.853643,192.50618 C331.560859,200.601544 317.711905,203.249886 316.905435,193.134765 C315.622206,177.039898 313.238124,121.245104 315.623495,95.2880192 C316.320317,87.7053444 317.055086,80.3759627 317.795112,73.5095911 C304.783131,96.7805287 284.994498,129.673552 258.430449,172.188105 L243.666907,165.473808 C255.260257,127.451231 264.76663,100.608304 272.186026,84.9450261 C284.889833,58.1256916 296.801728,35.1585071 301.815061,27.0685026 C308.437627,16.3816814 319.179422,17.8009516 326.746991,23.0926055 C335.949434,10.6654448 358.957276,18.8914984 358.94342,29.1785849 Z" id="Skin" fill="#B28B67"></path>
                    <path d="M267.596948,157.464957 L274.344613,27.849438 C279.103437,5.43182551 319.086771,15.7739585 319.052667,27.7838617 C318.975169,55.0500599 302.400383,149.263809 302.377301,157.38732 L267.596948,157.464957 Z" id="Leg-Back" fill="#1F28CF" transform="translate(293.324807, 86.047737) rotate(20.000000) translate(-293.324807, -86.047737) "></path>
                    <path d="M360.225355,38.5080983 C360.225355,72.3771218 345.311591,151.990374 345.301342,159.448427 L309.173537,158.235583 C315.488727,89.0166858 318.151902,54.1727224 317.163062,53.7036924 C314.938172,52.6483749 225.957612,65.962761 199.270894,66.9681389 C160.788515,68.4178987 144.869126,44.9169787 143.577366,0.319733473 L218.119203,0.319733473 C281.859094,7.89349391 323.75158,13.1611707 343.796661,16.1227639 C356.669125,18.0246271 360.225355,29.1780543 360.225355,38.5080983 Z" id="Leg-Front" fill="#2B44FF"></path>
                    <g id="Accessories/Shoe/Flat-Sneaker" transform="translate(277.950681, 163.627673) rotate(14.000000) translate(-277.950681, -163.627673) translate(238.851488, 138.105805)" fill="#E4E4E4">
                        <path d="M3.6541864,31.8351432 C2.07268931,35.9381016 1.28194076,38.9829988 1.28194076,40.9698349 C1.28194076,43.2709966 1.66705398,46.6289637 2.43728041,51.0437363 C5.11902172,51.0437363 29.2202825,51.0437363 74.7410626,51.0437363 C76.6199816,44.860435 75.5353606,41.5222695 71.4871996,41.02924 C67.4390386,40.5362105 64.0761625,40.0910443 61.3985713,39.6937415 L27.5251518,24.6616826 C27.0203417,24.4376622 26.4295078,24.6652873 26.2054874,25.1700975 C26.2021027,25.1777245 26.1988137,25.1853936 26.195621,25.193103 L23.9251337,30.6756203 L23.9251337,30.6756203 C20.1775954,32.416157 17.1323314,33.2864253 14.7893418,33.2864253 C12.7861736,33.2864253 9.97987067,32.438988 6.37043296,30.7441134 L6.37043232,30.7441148 C5.37060508,30.2746284 4.17949107,30.7045546 3.71000471,31.7043819 C3.68985473,31.7472937 3.67123686,31.7909083 3.6541864,31.8351432 Z" id="shoe"></path>
                    </g>
                    <g id="Accessories/Shoe/Flat-Sneaker" transform="translate(311.511606, 141.646368)" fill="#E4E4E4">
                        <path d="M3.6541864,31.8351432 C2.07268931,35.9381016 1.28194076,38.9829988 1.28194076,40.9698349 C1.28194076,43.2709966 1.66705398,46.6289637 2.43728041,51.0437363 C5.11902172,51.0437363 29.2202825,51.0437363 74.7410626,51.0437363 C76.6199816,44.860435 75.5353606,41.5222695 71.4871996,41.02924 C67.4390386,40.5362105 64.0761625,40.0910443 61.3985713,39.6937415 L27.5251518,24.6616826 C27.0203417,24.4376622 26.4295078,24.6652873 26.2054874,25.1700975 C26.2021027,25.1777245 26.1988137,25.1853936 26.195621,25.193103 L23.9251337,30.6756203 L23.9251337,30.6756203 C20.1775954,32.416157 17.1323314,33.2864253 14.7893418,33.2864253 C12.7861736,33.2864253 9.97987067,32.438988 6.37043296,30.7441134 L6.37043232,30.7441148 C5.37060508,30.2746284 4.17949107,30.7045546 3.71000471,31.7043819 C3.68985473,31.7472937 3.67123686,31.7909083 3.6541864,31.8351432 Z" id="shoe"></path>
                    </g>
                    <rect id="Base" fill="#2F3676" x="314.075487" y="192.690105" width="67.9428605" height="8.93265386" rx="4"></rect>
                    <path d="M136.912136,7.65656045 L279.718613,7.65656045 C285.24146,7.65656045 289.718613,12.133713 289.718613,17.6565605 L289.718613,82.9460715 L289.718613,82.9460715 L130.912136,82.9460715 C128.702997,82.9460715 126.912136,81.1552105 126.912136,78.9460715 L126.912136,17.6565605 C126.912136,12.133713 131.389288,7.65656045 136.912136,7.65656045 Z" id="Seat" fill="#2F3676"></path>
                    <path d="M276.899205,7.65656045 L282.111923,7.65656045 C287.00668,7.65656045 291.182049,11.1996681 291.978615,16.0291735 L320.485191,188.861824 L320.485191,188.861824 L306.786738,188.861824" id="Wheel-Stuff" fill="#2F3676"></path>
                    <ellipse id="Front-Wheel" fill="#191847" cx="314.075487" cy="191.414011" rx="23.0749338" ry="22.9696814"></ellipse>
                    <g id="Wheel" stroke-width="1" transform="translate(46.149868, 17.865308)" fill="#191847">
                        <path d="M97.4274981,0 C151.235219,0 194.854996,43.4208125 194.854996,96.983099 C194.854996,150.545386 151.235219,193.966198 97.4274981,193.966198 C43.6197767,193.966198 0,150.545386 0,96.983099 C0,43.4208125 43.6197767,0 97.4274981,0 Z M97.4274981,17.8653077 C53.5317254,17.8653077 17.9471707,53.2875495 17.9471707,96.983099 C17.9471707,140.678649 53.5317254,176.10089 97.4274981,176.10089 C141.323271,176.10089 176.907825,140.678649 176.907825,96.983099 C176.907825,53.2875495 141.323271,17.8653077 97.4274981,17.8653077 Z"></path>
                        <rect id="Wheel-Stuff" x="92.299735" y="12.7609341" width="10.2555261" height="168.44433"></rect>
                        <path d="M94.4952646,12.5751152 L100.72737,12.5608693 C101.831937,12.5583444 102.729412,13.4517257 102.731936,14.5562924 C102.731943,14.5593402 102.731943,14.562388 102.731936,14.5654358 L102.355155,179.39566 C102.352638,180.496657 101.460729,181.388566 100.359732,181.391083 L94.1276262,181.405329 C93.0230596,181.407854 92.1255846,180.514472 92.1230597,179.409906 C92.1230527,179.406858 92.1230527,179.40381 92.1230597,179.400762 L92.4998416,14.5705382 C92.5023583,13.4695406 93.3942671,12.5776319 94.4952646,12.5751152 Z" id="Wheel-Stuff" transform="translate(97.427498, 96.983099) rotate(45.000000) translate(-97.427498, -96.983099) "></path>
                        <rect id="Wheel-Stuff" transform="translate(97.427498, 96.983099) rotate(90.000000) translate(-97.427498, -96.983099) " x="92.3231244" y="12.3750086" width="10.2087473" height="169.216181" rx="2"></rect>
                        <path d="M94.1276262,12.5608693 L100.359732,12.5751152 C101.460729,12.5776319 102.352638,13.4695406 102.355155,14.5705382 L102.731936,179.400762 C102.734461,180.505329 101.84108,181.402804 100.736513,181.405329 C100.733466,181.405336 100.730418,181.405336 100.72737,181.405329 L94.4952646,181.391083 C93.3942671,181.388566 92.5023583,180.496657 92.4998416,179.39566 L92.1230597,14.5654358 C92.1205348,13.4608692 93.0139161,12.5633942 94.1184827,12.5608693 C94.1215305,12.5608624 94.1245784,12.5608624 94.1276262,12.5608693 Z" id="Wheel-Stuff" transform="translate(97.427498, 96.983099) rotate(135.000000) translate(-97.427498, -96.983099) "></path>
                    </g>
                </g>
                <g id="Body/Long-Sleeve" transform="translate(186.234092, 224.615133) rotate(-8.000000) translate(-186.234092, -224.615133) translate(22.145674, 105.300399)">
                    <path d="M87.133247,95.0047503 L115.204406,95.1096192 C84.4236182,164.061804 68.3740379,200.164074 67.0556653,203.416431 C64.0893268,210.734235 70.3664979,221.879123 73.0508655,227.868303 C64.3079698,231.762643 65.2395347,217.34031 54.2106071,222.447955 C44.1439134,227.109976 36.4862046,235.557247 24.8555946,228.413538 C23.4256795,227.53526 21.8587254,224.228389 25.6446845,221.644243 C35.0768892,215.206195 48.6692677,203.93845 50.5058121,200.229585 C53.0102684,195.171884 65.2194134,160.096939 87.133247,95.0047503 L87.133247,95.0047503 Z M325.219595,70.587358 L324.652436,71.0595474 C319.172125,75.6378646 313.827522,80.5837757 314.804305,83.011783 C315.814769,85.5235147 321.089063,84.5889823 321.962805,88.4522391 C322.545299,91.0277437 313.985442,91.4462375 296.283233,89.7077205 L255.213734,105.915753 L246.132627,83.3426685 L296.747335,76.4701078 C306.87233,70.8640529 316.186834,67.0688518 324.690848,65.0845044 C327.083966,65.0149512 330.890956,65.8809427 325.219595,70.587358 Z" id="Skin" fill="#997659"></path>
                    <path d="M158.312894,12.3650564 L180.335088,11.9014347 C189.976119,59.9924796 222.031688,88.0969873 286.885028,71.9591143 L301.093198,133.732824 C240.320553,147.017595 184.27294,127.238114 167.423127,61.8824478 C163.061243,44.9639305 159.239933,27.2941015 158.312894,12.3650564 Z" id="Clothes-Back" fill="#AFB9C5" transform="translate(229.703046, 74.770714) rotate(5.000000) translate(-229.703046, -74.770714) "></path>
                    <path d="M153.162634,0 L153.180385,0.02 L186.480852,7.61225011 C186.480852,64.0568687 204.362894,100.273788 213.800725,141.666526 L214.084108,142.922462 L124.14788,142.921868 C122.88094,157.406862 122.102926,172.294816 121.697509,187.585731 L121.697509,187.585731 L54.3563853,187.585731 C69.6162615,106.763032 101.824698,44.2344551 150.981693,0 L150.981693,0 L153.162634,0 Z" id="Clothes" fill="#C5CFD6"></path>
                    <path d="M138.337244,61.5852872 C136.019688,97.112389 137.382857,124.224781 142.426754,142.922462 L142.426754,142.922462 L124.147839,142.922337 C126.602427,114.858656 130.892262,88.3075421 137.863345,63.2689958 Z" id="Shade" fill-opacity="0.1" fill="#000000"></path>
                </g>
            </g>
            <g id="Humaaan" transform="translate(515.500000, 276.000000) scale(-1, 1) translate(-515.500000, -276.000000) translate(323.000000, 0.000000)">
                <g id="Head/Front/Airy" transform="translate(210.500000, 67.000000) rotate(7.000000) translate(-210.500000, -67.000000) translate(126.000000, 10.000000)">
                    <g id="Head" stroke-width="1" transform="translate(67.102941, 33.980769)" fill="#B28B67">
                        <path d="M47.398711,10.0121957 C54.5996155,21.8518869 53.7439608,51.8842454 44.4374333,54.0003285 C40.7260517,54.8442084 32.8197604,52.7770787 24.7729481,48.4987346 L29.8235294,80.0192308 L0,80.0192308 L10.2667983,37.8061827 C4.54095335,31.877415 0.66561601,24.6116692 1.3132,16.4702091 C3.17910153,-6.98800332 40.1978065,-1.82749548 47.398711,10.0121957 Z"></path>
                    </g>
                    <path d="M97.5029967,30.3473007 C93.5723419,29.7787049 82.9888804,29.3877796 81.0371011,29.3880319 C79.7898219,29.3880319 78.4381513,29.6393952 77.6994243,28.6291471 C77.0944669,27.8018693 77.316085,26.4027149 77.1355389,25.442689 C76.9259002,24.327454 76.6281277,23.2266041 76.3269324,22.1285304 C75.469838,19.0039036 74.1737858,16.0312052 72.3603395,13.2402152 C68.957632,8.0039858 63.9727938,3.9024242 57.6796389,1.5157353 C50.7301863,-1.11954075 42.8663096,-1.72296394 35.3911916,-1.1884385 C27.3918341,-0.616561895 20.1505987,1.7128384 12.5979,3.90494793 C5.40058889,5.99383701 -2.13784863,6.81606736 -9.6654477,5.79597679 C-17.2498061,4.76831504 -22.9805018,1.14222366 -29.377763,-2.29938326 C-35.9267628,-5.82275893 -43.411008,-8.12717433 -51.1530946,-7.59744397 C-58.3800689,-7.10279342 -65.0408759,-4.47054585 -71.0168632,-0.954236608 C-76.6080849,2.3356943 -81.2215631,6.29390819 -83.8262173,11.8647838 C-86.6282457,17.8573743 -86.6256787,24.4352171 -82.017905,29.7312588 C-75.3391289,37.4079325 -62.9402103,39.3930964 -52.624844,39.1957409 C-46.6582691,39.0819208 -40.7983675,38.1211379 -35.165218,36.3734567 C-27.6527358,34.0425422 -21.1607806,30.0918995 -14.1326066,26.8865134 C-10.8342906,25.382372 -7.42502292,24.1470075 -3.85146697,23.2571412 C-0.383728666,22.3932694 3.03181388,21.9970442 6.17154601,23.8449173 C9.49296504,25.7997965 12.4692645,27.7201006 16.2690021,28.9438559 C19.914149,30.1178939 23.7752095,30.7745677 27.6588026,30.7480686 C35.2149239,30.6965845 42.6635163,28.6198093 50.0022979,27.2287309 C55.9868418,26.0945678 62.3900927,24.9641904 68.4912928,26.0544405 C71.0371911,26.5094686 74.7559255,27.4487999 75.6754836,29.7827429 C60.1990115,32.2570051 54.1206435,49.1407407 58.4836961,61.5350179 C60.8384952,68.2246618 74.993516,76.0447848 80.4971744,72.527938 C83.9839003,70.2999143 81.8670993,67.3749228 80.4971744,65.4440191 C77.8736954,61.7462538 76.9760994,56.9963467 81.8305908,54.4218925 C86.0179461,52.2015172 90.4206618,57.4743192 90.5039468,57.4685146 C91.6548206,57.3885125 101.599371,52.4274443 108.450985,45.1879876 C115.210127,45.5414277 116.235587,41.6100269 114.621636,38.3948799 C113.007685,35.1797329 102.933923,31.1334417 97.5029967,30.3473007 Z" id="hair" fill="#191847"></path>
                </g>
                <g id="Bottom/Standing/Sweatpants" transform="translate(0.000000, 246.038737)">
                    <polygon id="Leg" fill="#997659" points="164.088418 1.2711537e-13 211.046982 161.299037 233.133945 282.404817 255.302601 282.404817 233.173454 1.2711537e-13"></polygon>
                    <path d="M142.984759,0 C146.261371,83.7940128 144.969123,129.497544 144.235778,137.110595 C143.502433,144.723645 139.33918,195.710752 110.96952,284.960517 L134.026872,284.960517 C171.597822,199.340617 184.71348,148.35351 189.022584,137.110595 C193.331688,125.867679 206.058393,80.1641475 224.63882,0 L142.984759,0 Z" id="Leg" fill="#B28B67"></path>
                    <path d="M163.080349,1.45274709e-13 C175.295004,55.5034405 196.421122,144.10103 226.458703,265.792769 L258.882885,265.792769 C261.277781,140.887838 251.090007,58.6794972 233.447326,1.45274709e-13 L163.080349,1.45274709e-13 Z" id="Pant" fill="#69A1AC"></path>
                    <path d="M142.820916,0 C146.029929,83.7940128 137.713569,166.346987 111.952538,267.0974 L146.547357,267.0974 C184.187379,182.75535 211.165195,100.609745 229.60274,0 L142.820916,0 Z" id="Pant" fill="#89C5CC"></path>
                    <g id="Accessories/Shoe/Flat-Simple" transform="translate(107.683024, 254.292120)" fill="#191847">
                        <path d="M0,47.2804444 L1.27222708,26.8348468 C8.72093777,29.006457 18.050603,28.1545571 29.2612228,24.2791471 C41.4487516,32.8846067 56.826174,38.730448 75.3934901,41.8166709 C76.4830944,41.9978049 77.2195755,43.0279274 77.038463,44.1175353 C77.0261705,44.1914895 77.0097295,44.2646939 76.9892178,44.3368021 L75.0613975,51.113994 L75.0613975,51.113994 L29.2612228,51.113994 L2.54445415,51.113994 L0,47.2804444 Z" id="Shoe"></path>
                    </g>
                    <g id="Accessories/Shoe/Flat-Simple" transform="translate(228.185456, 254.292120)" fill="#191847">
                        <path d="M0,47.2804444 L1.27222708,26.8348468 C8.72093777,29.006457 18.050603,28.1545571 29.2612228,24.2791471 C41.4487516,32.8846067 56.826174,38.730448 75.3934901,41.8166709 C76.4830944,41.9978049 77.2195755,43.0279274 77.038463,44.1175353 C77.0261705,44.1914895 77.0097295,44.2646939 76.9892178,44.3368021 L75.0613975,51.113994 L75.0613975,51.113994 L29.2612228,51.113994 L2.54445415,51.113994 L0,47.2804444 Z" id="Shoe"></path>
                    </g>
                </g>
                <g id="Body/Hoodie" transform="translate(192.291115, 231.343464) rotate(7.000000) translate(-192.291115, -231.343464) translate(28.202697, 111.864503)">
                    <path d="M87.5667175,118.865454 L114.355936,118.970468 C97.8148296,172.197601 88.8850902,200.439584 87.5667175,203.696418 C84.600379,211.024294 90.8775502,222.184522 93.5619177,228.181945 C84.8190221,232.081646 85.7505869,217.639462 74.7216593,222.754137 C64.6549657,227.422575 56.9972568,235.881473 45.3666468,228.727931 C43.9367317,227.848445 42.3697776,224.537021 46.1557367,221.949319 C55.5879415,215.502409 69.1803199,204.219155 71.0168643,200.505185 C73.5213207,195.440523 79.0379384,168.227279 87.5667175,118.865454 L87.5667175,118.865454 Z M244.570203,117.832433 L285.461897,147.764275 C296.552567,150.747387 305.818462,154.458883 313.259585,158.898763 C315.017307,160.495315 317.141679,163.728598 309.85198,163.169806 C302.56228,162.611013 294.869399,162.350046 293.863562,164.828515 C292.857725,167.306984 297.269057,170.270962 295.235822,173.615066 C293.880333,175.844468 287.476456,170.254324 276.024191,156.844633 L235.530687,140.106585 L244.570203,117.832433 Z" id="Skin" fill="#B28B67"></path>
                    <path d="M157.35583,12.2588193 L168.233564,9.40463513 C212.292722,41.1013738 235.05153,107.408782 288.414966,138.920619 L277.633644,154.913958 C189.566695,151.783402 160.73859,70.9977075 157.35583,12.2588193 Z" id="Coat-Back" fill="#FF4133" transform="translate(222.885398, 82.159297) rotate(5.000000) translate(-222.885398, -82.159297) "></path>
                    <path d="M115.374669,145.674883 C159.821806,145.674883 192.516189,145.674883 213.457816,145.674883 C217.939716,145.674883 217.095187,139.223833 216.447302,135.968598 C208.969917,98.3992512 179.781045,57.9013133 179.781045,4.42229369 L151.489248,0 C128.088297,37.5156358 119.995843,83.7049793 115.374669,145.674883 Z" id="Shirt" fill="#DDE3E9"></path>
                    <path d="M149.358959,-8.8817842e-15 C150.313331,-7.99360578e-15 151.187706,0.0594324569 151.982084,0.178297371 L160.847142,0.683317357 C186.258283,86.529851 193.266524,143.805322 181.871866,172.50973 L181.871866,172.50973 L104.67233,172.510796 C100.098533,183.141874 95.7217892,192.086467 91.5420985,199.344577 L91.5420985,199.344577 L70.506742,199.344577 C68.5270125,135.537595 83.7458306,81.3812944 116.163196,36.875675 C112.054218,35.6990925 108.800048,32.9530217 106.401083,28.638136 C96.0603813,10.0388853 99.7948928,-0.201379917 110.845824,-3.56741291 C121.896755,-6.9334459 131.751871,-2.66453526e-14 149.358959,-8.8817842e-15 Z" id="Coat-Front" fill="#FF4133"></path>
                    <path d="M133.321839,172.50973 L104.672387,172.510663 C110.007827,160.109255 115.611411,145.412921 121.483141,128.421662 C123.911112,148.669471 127.857315,163.36625 133.321839,172.50973 Z" id="Shade" fill-opacity="0.1" fill="#000000"></path>
                </g>
            </g>
            <circle id="Floating-Random-Circle" fill-opacity="0.8" fill="#EAE1A6" cx="334.5" cy="152.5" r="69.5"></circle>
        </g>
        <text id="我能控制一切" font-family="PingFangSC-Semibold, PingFang SC" font-size="60" font-weight="500" fill="#141313">
            <tspan x="103" y="106">我能控制一切</tspan>
        </text>
        <text id="即使老婆打断我的腿" font-family="PingFangSC-Semibold, PingFang SC" font-size="60" font-weight="500" fill="#141313">
            <tspan x="103" y="208">即使老婆打断我的腿</tspan>
        </text>
        <text id="我宁可坐轮椅" font-family="PingFangSC-Semibold, PingFang SC" font-size="60" font-weight="500" fill="#141313">
            <tspan x="103" y="310">我宁可坐轮椅</tspan>
        </text>
        <text id="也不出卖朋友" font-family="PingFangSC-Semibold, PingFang SC" font-size="60" font-weight="500" fill="#141313">
            <tspan x="103" y="412">也不出卖朋友</tspan>
        </text>
        <text id="*-打断腿也不出卖，但是不打断腿就会出卖" font-family="PingFangSC-Semibold, PingFang SC" font-size="15" font-weight="500" fill="#141313">
            <tspan x="115" y="831">* 打断腿也不出卖，但是不打断腿就会出卖</tspan>
        </text>
    </g>
</svg>