<?xml version="1.0" encoding="UTF-8"?>
<svg width="1200px" height="888px" viewBox="0 0 1200 888" version="1.1" xmlns="http://www.w3.org/2000/svg" xmlns:xlink="http://www.w3.org/1999/xlink">
    <!-- Generator: Sketch 63.1 (92452) - https://sketch.com -->
    <title>Web—Section Left</title>
    <desc>Created with Sketch.</desc>
    <g id="Web—Section-Left" stroke="none" stroke-width="1" fill="none" fill-rule="evenodd">
        <rect fill="#FFFFFF" x="0" y="0" width="1200" height="888"></rect>
        <g id="Big-Leaf-Plant" transform="translate(-57.000000, 453.000000)">
            <g id="Big-Ass-Leaf" transform="translate(23.000000, 0.000000)">
                <path d="M24.3838427,0.367258376 C27.2405357,0.0152982622 30.2894948,0.139538744 32.9461356,1.27666933 C38.5952107,3.69497429 40.2009692,10.4251331 40.123503,15.8954132 C40.0399884,21.7832005 38.8001545,28.2141526 43.2389696,32.9580852 C45.2794046,35.1390715 47.8175472,36.8081613 49.8211176,39.0291946 C51.9619654,41.4026681 53.6417738,44.1183936 54.8855462,47.0346518 C57.1692602,52.3912653 58.2901469,58.690573 56.2018154,64.3096958 C54.3630762,69.2570036 49.737014,73.7223729 50.7365939,79.3479407 C51.7792436,85.2164557 57.6463029,89.7029847 61.3144139,94.074107 C65.4656791,99.0208484 69.2878671,105.343237 69.9157663,111.830369 C70.5178591,118.047348 67.834384,124.334928 63.7161109,129.034456 C55.4877909,138.42489 43.1193497,143.028391 30.6481649,143 C25.3532394,142.987498 19.3583087,142.746335 14.7889305,139.876869 C13.376698,138.989939 12.6316546,137.994882 11.792122,136.611613 C11.0393909,135.371223 10.0450389,134.564401 8.89409637,133.686701 C6.36547959,131.758885 4.5393697,129.160655 3.37399225,126.252209 C-1.15142035,114.95558 2.46554431,100.980265 8.80009764,90.9487707 C10.3011071,88.5721047 11.5300073,86.2850394 10.8008108,83.4521933 C10.0398722,80.4950453 8.1696502,77.8278587 6.51546005,75.2859386 C4.88085729,72.7737289 3.01474056,70.3771149 1.73714531,67.6608653 C0.399073374,64.8154005 0.0222830367,61.8357205 0.258705356,58.721596 C0.703044905,52.8719165 3.20706357,47.4737844 6.75220901,42.7693503 C10.1668401,38.2379513 14.1761869,33.9021041 14.1851707,27.9646061 C14.195036,21.6716671 10.0232517,16.0737096 11.8004935,9.6757347 C12.5363879,7.02644928 14.0144598,4.30826645 16.3964817,2.71998055 C18.6808852,1.19669756 21.6971569,0.698272673 24.3838427,0.367258376 Z" id="leaf" fill="#DDE3E9"></path>
                <path d="M22.5171999,10.4274334 C22.5707701,9.58226776 23.5648978,9.07536881 24.3474968,9.29591075 C25.3776126,9.58634775 25.3578016,10.5570061 25.3306052,11.4217866 C25.2472364,14.0799163 25.6287494,16.6631844 26.2623604,19.242324 C27.5792526,24.6046422 30.0130465,29.5451375 31.9412218,34.6960692 C33.8677166,39.8426889 34.7720538,45.1564182 33.6418912,50.6022766 C32.576485,55.7369617 30.9026992,60.7385617 29.8123587,65.8797279 C28.8513121,70.4110056 27.8287124,75.1894922 29.2922636,79.7092314 C30.7005598,84.059809 33.8141087,87.6028786 36.0561339,91.5345284 C40.6973848,99.6732939 42.7564521,108.702282 43.0318616,117.993906 C43.1594961,122.30858 43.0445581,126.662929 42.0519974,130.894685 C41.4807126,133.331341 40.7130021,136.624373 38.6424624,138.306647 C37.6876835,139.082432 36.0547084,139.350687 35.2511175,138.201837 C34.4966626,137.124308 35.1585247,135.456184 35.3980381,134.307707 C36.4353052,129.336135 36.6439799,124.255386 36.3956433,119.207274 C36.1552936,114.317515 35.5824125,109.435922 34.0563767,104.765998 C32.6400108,100.432242 30.488289,96.5396872 27.9558423,92.7485718 C25.3752968,88.8851603 22.6925931,85.0135058 21.6263209,80.4357609 C20.542957,75.7863964 21.4230815,71.0555188 22.5999287,66.4949473 C23.8444733,61.6711491 25.474632,56.9857313 27.1599255,52.2926313 C28.802302,47.7195553 29.3844439,43.3926121 28.4777833,38.6063567 C26.6867189,29.1503112 21.8925662,20.2747537 22.5171999,10.4274334 Z" id="middle-thing" fill="#C5CFD6"></path>
            </g>
            <g id="Big-Ass-Leaf" transform="translate(32.000000, 11.000000)">
                <path d="M90.8923323,1.58058594 C94.4371815,2.65576935 97.957883,4.39053125 100.484813,7.11068779 C105.857908,12.8951902 104.209295,21.6378071 101.243138,28.0233253 C98.0504357,34.8961333 93.2122671,41.8044319 95.9396345,49.6901585 C97.193196,53.3154165 99.3011711,56.5987107 100.490327,60.2518013 C101.760821,64.1554975 102.30919,68.2209854 102.239325,72.2948181 C102.109984,79.7772281 100.11754,87.7610608 94.7080978,93.2735577 C89.9453006,98.1269429 82.1575199,100.961721 80.3765031,108.090904 C78.5184553,115.52792 83.0609213,123.855537 85.0777737,130.901712 C87.360351,138.875833 88.5328812,148.294432 85.8618992,156.242003 C83.3025511,163.858781 76.8418128,169.846378 69.5281945,173.220829 C54.9151643,179.963891 37.9486721,178.926364 23.2958182,172.394102 C17.0747521,169.620377 10.1506305,166.213116 6.28452896,160.461271 C5.08969654,158.683486 4.73639937,157.126359 4.47600508,155.063964 C4.2426077,153.21464 3.49715739,151.748716 2.60478713,150.117932 C0.643995898,146.535678 -0.138196518,142.531973 0.0197662548,138.508169 C0.634485801,122.879926 12.2336238,108.348063 24.9562471,99.8651091 C27.9707605,97.8554408 30.6181436,95.809229 31.2493822,92.1015262 C31.9086177,88.2312661 31.1107853,84.1235716 30.5011993,80.275601 C29.8990358,76.4727379 28.9638254,72.6850217 28.8887906,68.8285121 C28.8105393,64.7887001 29.9334288,61.0921523 31.8482022,57.55722 C35.4452563,50.9172034 41.2274568,45.8809174 47.869576,42.2020449 C54.2672493,38.6584237 61.2616135,35.6544228 64.392784,28.684382 C67.7118026,21.2972673 65.7473551,12.5474761 71.200258,5.95795964 C73.4581719,3.22934513 76.6252004,0.806547473 80.2615533,0.182078812 C83.7489295,-0.416900604 87.5584437,0.569388745 90.8923323,1.58058594 Z" id="leaf" fill="#DDE3E9"></path>
                <path d="M83.6512541,13.7961516 C84.1542014,12.8301179 85.5838278,12.755791 86.3866021,13.4260887 C87.4431996,14.3085535 86.9144837,15.4399269 86.4322458,16.4428801 C84.9502268,19.5258384 84.0522837,22.7648081 83.4520845,26.1312768 C82.2036693,33.1303008 82.4845328,40.2195301 82.0629519,47.2908358 C81.6416462,54.356187 79.9347993,61.0814585 75.7736201,66.8940077 C71.8504189,72.3745253 67.2831774,77.3790876 63.3273648,82.8541381 C59.8407636,87.6796648 56.1532511,92.7636642 55.5155862,98.8485702 C54.9012266,104.705484 56.7068601,110.507819 57.2882412,116.309673 C58.4918732,128.319941 56.2042044,140.021681 51.6883608,151.09591 C49.5910773,156.238222 47.1887071,161.29985 43.8211358,165.756507 C41.8823541,168.322785 39.2672836,171.793282 35.9634293,172.685056 C34.4399139,173.096329 32.3854941,172.554536 32.0415379,170.78126 C31.7180544,169.117674 33.362815,167.502966 34.2417421,166.277774 C38.0470052,160.974351 40.9375702,155.107479 43.2752764,149.039062 C45.5398829,143.161105 47.4103318,137.11817 48.0529422,130.823799 C48.6490797,124.982436 48.1532232,119.273979 47.1581268,113.484958 C46.1442823,107.585644 45.0149464,101.622998 46.1486425,95.6784384 C47.2995951,89.64066 50.7952573,84.5378607 54.5501475,79.7911747 C58.5214952,74.7704004 62.8729252,70.1148547 67.2930034,65.4792193 C71.6002552,60.9622345 74.5361665,56.1781333 75.9655983,50.0721037 C78.7899076,38.0087262 77.7906897,25.0515017 83.6512541,13.7961516 Z" id="middle-thing" fill="#C5CFD6"></path>
            </g>
            <g id="Big-Ass-Leaf" transform="translate(0.000000, 55.000000)">
                <path d="M13.4351608,-1.56319402e-13 C19.3866763,-1.56319402e-13 24.6190536,3.12436119 28.2244786,7.55793367 C32.4449709,12.74806 33.2973801,19.0862362 35.011183,25.2719426 C35.8639665,28.3503093 37.3306943,31.4062221 39.9010243,33.4977007 C42.238879,35.3997692 45.2067753,35.7804002 48.0050883,36.7097048 C53.5975962,38.5668654 58.1134556,43.0406377 59.8968888,48.4994874 C62.0726473,55.1581758 59.7681102,61.8733613 60.1649279,68.6215035 C60.5291765,74.818799 66.6989418,78.6852277 71.6629056,81.6560327 C76.5576135,84.5855514 80.9671557,87.3278329 82.4413706,93.0347628 C84.0046823,99.0875562 84.5291554,105.843666 82.3638789,111.822941 C78.7588282,121.778741 68.2083462,126.162697 58.0138769,126.842473 C48.7620366,127.459233 37.1289163,126.490815 30.1808643,119.839732 C26.0232639,115.859585 24.5176031,110.293173 24.7044068,104.75501 C24.8204573,101.311223 25.5092727,97.8993066 26.3998663,94.571411 C27.0310309,92.2126578 27.8838144,89.864045 28.1267716,87.4267028 C28.7725361,80.9422138 22.7210674,79.6967428 17.5699255,77.9163603 C11.0243065,75.6535796 6.44181172,71.3797201 3.25529136,65.4254344 C0.287769395,59.8814769 -0.957339478,53.6581058 0.821601402,47.5542477 C1.73016401,44.4374919 3.37808021,41.6097404 5.61298699,39.2046306 C6.59679521,38.1460346 7.98341074,37.2630865 8.87138376,36.1508907 C9.70020849,35.1122136 9.51976878,33.766424 9.23413496,32.5499259 C7.91340612,26.930639 3.79848227,22.2775971 2.32688787,16.6684507 C0.99829755,11.6054427 1.78369695,5.30420703 6.45753468,2.0378788 C8.47681227,0.626538178 10.96703,0.0155729143 13.4351608,-1.56319402e-13 Z" id="leaf" fill="#C5CFD6"></path>
                <path d="M21.5448533,14.6413767 C27.8528225,21.2960229 29.5674047,30.3249745 30.0706013,39.0761511 C30.3524657,43.9833868 30.0590891,49.1593434 31.5148314,53.919181 C32.7603823,57.993092 35.6804083,61.1072854 38.6903041,64.0505403 C44.7490888,69.9754389 51.5060355,75.9988444 53.278179,84.5736503 C54.3179949,89.6058303 53.6161192,94.8035164 55.052922,99.7802864 C56.3593764,104.303997 58.6595979,108.748395 61.4574455,112.568434 C63.7101324,115.644601 66.6450129,117.999712 69.1075199,120.867276 C69.8587869,121.742611 70.9349964,123.031168 70.6249084,124.266849 C70.2620869,125.714031 68.4008164,126.172161 67.0802502,125.944726 C64.0012809,125.414889 61.4095397,122.503142 59.3963817,120.38633 C56.4525885,117.290969 53.9510885,113.961654 51.9178769,110.227085 C49.6607336,106.079656 47.8432839,101.678717 47.0667642,97.0257156 C46.2609069,92.1985167 46.6619787,87.1677853 44.8218759,82.535065 C41.7254525,74.7399845 34.2150106,70.1398585 28.7849432,64.0643023 C22.019455,56.4937595 23.0284479,47.0715048 23.7214109,37.7589838 C24.1020578,32.6413346 24.4804765,26.8620233 21.8694244,22.1894658 C20.8726866,20.4058395 18.6504514,18.7428117 18.2218987,16.7154534 C17.8293682,14.857947 19.9717604,12.9808841 21.5448533,14.6413767 Z" id="middle-thing" fill="#AFB9C5"></path>
            </g>
            <path d="M28,180 C28,218.05849 34.211229,238 67.0000931,238 C99.7889571,238 106,218.05849 106,180 L28,180 Z" id="Base" fill="#89C5CC"></path>
        </g>
        <g id="Plant" transform="translate(1129.000000, 413.000000)">
            <path d="M9.93785602,35.7363701 C28.6043474,67.0518486 50.3448762,97.3738414 63.400835,131.612719 C62.8747124,127.576998 62.316848,123.545457 61.6924335,119.519653 C58.3796628,98.1788894 54.2624276,76.9938487 49.9359142,55.8347788 C47.7325965,45.061608 45.4023236,34.3274793 43.0122847,23.5942683 C41.7268475,17.8294571 40.457171,12.0611334 39.145247,6.30181171 C38.8274703,4.90590411 38.5544351,2.4694293 38.1565942,0 C50.8449133,41.636678 63.0807311,83.3047517 72.0307975,125.94239 C73.204927,131.538126 74.2047864,137.123918 75.0238081,142.699993 C75.3039851,141.427955 75.5795646,140.155702 75.8811982,138.88715 C79.5025613,123.679846 84.9347228,108.59358 91.4026624,94.3744557 C94.494721,87.5745292 98.0463864,80.9235176 102.228151,74.7261293 C104.835821,70.8630236 110.985519,66.2708832 113.364361,62.3144999 C100.354578,86.1759773 95.6569872,116.031633 88.1451337,141.973334 C86.3116359,148.30385 84.4667482,154.62409 82.659084,160.955464 C93.9872772,138.237255 111.563216,119.571486 136,111.482566 C106.420215,131.026943 88.6779699,165.254031 76.7221336,200.259757 C76.682738,200.674905 76.6358989,201.090058 76.5954089,201.505863 C80.1135643,194.828835 84.5452103,188.789483 90.5514934,184.559607 C103.406592,175.504479 117.667098,178.142392 130.137007,185.909854 C120.350227,179.688703 102.662664,185.353659 94.4280037,191.676694 C88.5328799,196.203004 83.4948291,202.275393 79.119821,208.199601 C78.071517,209.619676 76.6413193,211.276578 75.1303997,213.044484 C73.0120284,226.795282 69.5599117,240.451838 64.6724606,254 C65.4790179,250.11126 64.8958605,243.891877 65.11953,240.993318 C65.1438759,240.679499 65.1636243,240.365464 65.1877517,240.052521 C64.4448288,243.018848 63.7270637,245.951459 63.0359813,248.836783 C64.4097546,243.330925 65.1563919,237.583268 65.7392402,231.776207 C65.8893549,229.280566 66.0357479,226.784927 66.1904602,224.289502 C66.141426,219.553405 65.9463583,214.798592 65.6164284,210.036217 C64.4465561,205.407706 63.1367171,201.041891 62.0564998,197.41118 C58.158506,184.310429 52.4441742,171.759576 45.4108456,160.050843 C38.9937018,149.366014 31.3123836,139.687606 22.4447835,130.934599 C17.6643455,126.217405 12.6613846,121.724669 7.7288832,117.169517 C5.94526254,115.52278 2.75721952,111.473853 0,109.363232 C20.0804874,120.433766 40.7488532,132.410494 55.3976085,150.247606 C53.6802099,143.652644 51.8148695,137.151008 49.841671,130.779652 C39.8311473,98.4544622 27.1913357,64.9525261 9.93785602,35.7363701 Z" id="Fill-19" fill="#DDE3E9"></path>
            <path d="M30,213 C30,248.898509 32.8428117,278 71,278 C109.157188,278 112,248.898509 112,213" id="Base" fill="#C5CFD6"></path>
        </g>
        <g id="Image" transform="translate(134.000000, 186.000000)">
            <g id="Web" transform="translate(69.000000, 0.000000)">
                <rect id="Container" fill="#F2F2F2" x="0" y="0" width="396" height="346" rx="8"></rect>
                <path d="M8,0 L388,0 C392.418278,-8.11624501e-16 396,3.581722 396,8 L396,27 L396,27 L0,27 L0,8 C-5.41083001e-16,3.581722 3.581722,8.11624501e-16 8,0 Z" id="Header" fill="#C5CFD6"></path>
                <g id="Buttons" transform="translate(9.000000, 10.000000)" fill="#F2F2F2">
                    <circle id="buttons" cx="4" cy="4" r="4"></circle>
                    <circle id="buttons" cx="16" cy="4" r="4"></circle>
                    <circle id="buttons" cx="28" cy="4" r="4"></circle>
                </g>
                <g id="Content" transform="translate(16.000000, 43.000000)">
                    <g id="Components" transform="translate(294.000000, 89.000000)">
                        <rect id="Background" fill="#FFFFFF" x="0" y="0" width="70" height="194" rx="8"></rect>
                        <g id="Rows" transform="translate(18.000000, 18.000000)">
                            <rect id="Data" fill="#DDE3E9" x="0" y="0" width="34" height="26" rx="4"></rect>
                            <rect id="Data" fill="#AFB9C5" x="0" y="34" width="34" height="25" rx="4"></rect>
                            <rect id="Data" fill="#DDE3E9" x="0" y="67" width="34" height="25" rx="4"></rect>
                            <rect id="Data" fill="#DDE3E9" x="0" y="133" width="34" height="25" rx="4"></rect>
                            <rect id="Data" fill="#C5CFD6" x="0" y="100" width="34" height="25" rx="4"></rect>
                        </g>
                    </g>
                    <g id="Profile" transform="translate(294.000000, 0.000000)">
                        <rect id="Background" fill="#FFFFFF" x="0" y="0" width="70" height="81" rx="8"></rect>
                        <g id="Profile-Info" transform="translate(10.000000, 15.000000)" fill="#DDE3E9">
                            <circle id="Avatar" cx="25" cy="16" r="16"></circle>
                            <rect id="Name" x="0" y="36" width="50" height="6" rx="3"></rect>
                            <rect id="Name" x="8" y="46" width="34" height="6" rx="3"></rect>
                        </g>
                    </g>
                    <g id="Rows">
                        <g id="Row">
                            <rect id="Container" fill="#FFFFFF" x="0" y="0" width="286" height="47" rx="4"></rect>
                            <g id="Text-Stuff" transform="translate(9.000000, 14.100000)" fill="#DDE3E9">
                                <rect id="Label" x="0" y="0" width="228" height="7.05" rx="3"></rect>
                                <rect id="Label" x="0" y="11.75" width="153.041096" height="7.05" rx="3"></rect>
                            </g>
                            <g id="Check" transform="translate(248.435115, 16.500000)">
                                <circle id="Background" fill="#DDE3E9" cx="7" cy="7" r="7"></circle>
                                <circle id="Indicator" fill="#F2F2F2" cx="7" cy="7" r="3"></circle>
                            </g>
                        </g>
                        <g id="Row" transform="translate(0.000000, 55.000000)">
                            <rect id="Container" fill="#FFFFFF" x="0" y="0" width="286" height="39" rx="4"></rect>
                            <g id="Text-Stuff" transform="translate(9.000000, 11.700000)" fill="#DDE3E9">
                                <rect id="Label" x="0" y="0" width="228" height="5.85" rx="2.925"></rect>
                                <rect id="Label" x="0" y="9.75" width="153.041096" height="5.85" rx="2.925"></rect>
                            </g>
                            <g id="Check" transform="translate(248.435115, 12.500000)">
                                <circle id="Background" fill="#DDE3E9" cx="7" cy="7" r="7"></circle>
                                <circle id="Indicator" fill="#F2F2F2" cx="7" cy="7" r="3"></circle>
                            </g>
                        </g>
                        <g id="Row" transform="translate(0.000000, 102.000000)">
                            <rect id="Container" fill="#FFFFFF" x="0" y="0" width="286" height="39" rx="4"></rect>
                            <g id="Text-Stuff" transform="translate(9.000000, 11.700000)" fill="#DDE3E9">
                                <rect id="Label" x="0" y="0" width="228" height="5.85" rx="2.925"></rect>
                                <rect id="Label" x="0" y="9.75" width="153.041096" height="5.85" rx="2.925"></rect>
                            </g>
                            <g id="Check" transform="translate(248.435115, 12.500000)">
                                <circle id="Background" fill="#DDE3E9" cx="7" cy="7" r="7"></circle>
                                <circle id="Indicator" fill="#AFB9C5" cx="7" cy="7" r="3"></circle>
                            </g>
                        </g>
                        <g id="Row" transform="translate(0.000000, 243.000000)">
                            <rect id="Container" fill="#FFFFFF" x="0" y="0" width="286" height="39" rx="4"></rect>
                            <g id="Text-Stuff" transform="translate(9.000000, 11.700000)" fill="#DDE3E9">
                                <rect id="Label" x="0" y="0" width="228" height="5.85" rx="2.925"></rect>
                                <rect id="Label" x="0" y="9.75" width="153.041096" height="5.85" rx="2.925"></rect>
                            </g>
                            <g id="Check" transform="translate(248.435115, 12.500000)">
                                <circle id="Background" fill="#DDE3E9" cx="7" cy="7" r="7"></circle>
                                <circle id="Indicator" fill="#F2F2F2" cx="7" cy="7" r="3"></circle>
                            </g>
                        </g>
                        <g id="Row" transform="translate(0.000000, 196.000000)">
                            <rect id="Container" fill="#FFFFFF" x="0" y="0" width="286" height="39" rx="4"></rect>
                            <g id="Text-Stuff" transform="translate(9.000000, 11.700000)" fill="#DDE3E9">
                                <rect id="Label" x="0" y="0" width="228" height="5.85" rx="2.925"></rect>
                                <rect id="Label" x="0" y="9.75" width="153.041096" height="5.85" rx="2.925"></rect>
                            </g>
                            <g id="Check" transform="translate(248.435115, 12.500000)">
                                <circle id="Background" fill="#DDE3E9" cx="7" cy="7" r="7"></circle>
                                <circle id="Indicator" fill="#F2F2F2" cx="7" cy="7" r="3"></circle>
                            </g>
                        </g>
                        <g id="Row" transform="translate(0.000000, 149.000000)">
                            <rect id="Container" fill="#FFFFFF" x="0" y="0" width="286" height="39" rx="4"></rect>
                            <g id="Text-Stuff" transform="translate(9.000000, 11.700000)" fill="#DDE3E9">
                                <rect id="Label" x="0" y="0" width="228" height="5.85" rx="2.925"></rect>
                                <rect id="Label" x="0" y="9.75" width="153.041096" height="5.85" rx="2.925"></rect>
                            </g>
                            <g id="Check" transform="translate(248.435115, 12.500000)">
                                <circle id="Background" fill="#DDE3E9" cx="7" cy="7" r="7"></circle>
                                <circle id="Indicator" fill="#F2F2F2" cx="7" cy="7" r="3"></circle>
                            </g>
                        </g>
                    </g>
                </g>
            </g>
            <g id="Group-3" transform="translate(266.500000, 292.000000) scale(-1, 1) translate(-266.500000, -292.000000) translate(0.000000, 91.000000)">
                <g id="Humaaan" transform="translate(399.500000, 201.000000) scale(-1, 1) translate(-399.500000, -201.000000) translate(266.000000, 0.000000)">
                    <g id="Head/Front/Rad" transform="translate(115.000000, 61.000000) rotate(-8.000000) translate(-115.000000, -61.000000) translate(47.000000, 9.000000)">
                        <g id="Head" stroke-width="1" transform="translate(54.000000, 31.000000)" fill="#B28B67">
                            <path d="M38.1433414,9.13393292 C43.9381521,19.9350547 43.249578,47.3329958 35.7603014,49.2634576 C32.773664,50.0333035 26.4113241,48.1475566 19.935865,44.2446031 L24,73 L0,73 L8.26160177,34.4893378 C3.65406109,29.0807313 0.535660132,22.452516 1.05677633,15.0254539 C2.55833022,-6.37502057 32.3485306,-1.66718886 38.1433414,9.13393292 Z"></path>
                        </g>
                        <path d="M95.4066181,38.9017011 C96.181796,38.1335173 96.604637,37.0370644 96.970412,35.9959366 C97.3502694,34.9144095 97.7193579,33.8217377 97.9715531,32.6960301 C98.4754831,30.446804 98.4802693,27.8601542 96.8757008,26.1136308 C95.5888613,24.7130885 93.6580039,24.0849092 91.8759783,23.9483875 C90.6887283,23.8573398 89.4693557,24.0236137 88.3312561,24.397755 C87.2020846,24.7689112 86.2287403,25.5086363 85.1340846,25.9677555 C85.0922975,23.5438969 84.6770959,21.0076965 83.4474146,18.9380781 C82.2641224,16.9467707 80.3775371,15.8293221 78.2290003,15.5336907 C76.0237656,15.230298 73.8461434,15.7463343 71.8719342,16.8139306 C71.3776685,17.0813024 70.888005,17.3614108 70.4194191,17.6784359 C70.027044,17.943917 69.6191137,18.2636287 69.1587196,18.3715924 C68.6454933,18.4920937 68.3910891,18.1956663 68.0575289,17.8212265 C67.6664423,17.3822075 67.2258372,16.9955285 66.7595523,16.6527315 C64.6978111,15.1372602 61.9926962,14.5141557 59.6041137,15.4225429 C58.5035673,15.8410637 57.4333948,16.5518327 56.6867499,17.531267 C56.0211941,18.4043297 55.5464414,19.7892496 54.627862,20.3975277 C54.2380641,20.6557449 53.9627664,20.3136445 53.6078524,20.0608006 C53.074745,19.6808879 52.5663049,19.2616705 52.0267546,18.8921065 C51.2688806,18.3728859 50.448326,17.9845153 49.5696008,17.7812252 C48.2832216,17.4836038 46.505522,17.5533573 46.1377221,19.2381872 C45.9996591,19.8710433 46.1055074,20.5478808 46.1501478,21.1855131 C46.2113557,22.0610635 46.2752329,22.9363153 46.3512596,23.8105721 C46.40897,24.4743744 46.4819593,25.1154894 46.6072285,25.767351 C46.674051,26.1148248 46.8831704,26.7626067 46.7341544,27.110578 C46.5479534,27.5455173 45.6885571,27.2982457 45.3214015,27.3133706 C44.5962024,27.3433218 43.8679659,27.47049 43.1974398,27.7803507 C42.6777706,28.0205574 42.1314092,28.3738025 41.9120731,28.9694434 C41.7772315,29.3353257 41.8127597,29.7111587 41.8764528,30.0875886 C41.9528477,30.5393443 41.8654998,30.778954 41.8084337,31.2347894 C40.8344451,30.7551721 37.4592643,29.6895659 37.0345824,31.4350943 C36.8932059,32.0163069 37.2151688,32.6730443 37.460829,33.1632092 C37.8916777,34.0229382 38.4565395,34.8087345 39.0340112,35.5581116 C40.2385651,37.1214452 41.6766296,38.4698465 43.2238559,39.6230176 C41.4110883,40.428914 40.9379003,42.8060049 42.5074008,44.2222691 C43.2003852,44.8475627 44.1321265,44.9867711 45.0062496,44.9467698 C45.3261876,44.9321425 45.7874102,44.8091535 46.0391451,44.8648767 C46.174631,44.8948279 46.3196892,45.0096574 46.5073629,45.0224936 C47.741002,45.1069739 49.1335978,44.8097505 50.3395323,44.5360104 C52.4883453,44.0482337 54.522658,43.0301912 56.1839244,41.4796939 C56.6100789,41.0819697 56.9621396,40.8530072 57.5357455,40.858878 C58.038387,40.8639528 58.5315481,41.0017682 59.0337294,41.0145049 C60.3624479,41.0484363 61.5604668,40.3988633 62.7942901,39.9665112 C62.8698566,41.6333306 63.3445173,43.4691107 64.0263646,44.9686611 C64.5823904,46.1914862 65.7435005,46.3692033 66.8844533,46.4764704 C70.5329989,46.819765 74.1944304,46.4366682 77.8475782,46.441743 C74.3112318,47.241072 70.6569795,47.5705353 67.1520195,48.5111623 C65.5677002,48.9362505 66.7775005,50.0040458 67.4549298,50.7442685 C68.570387,51.9632129 69.3997776,53.4735099 69.9750402,55.0646055 C71.70497,52.8096081 74.7626979,51.3237895 77.4716786,52.016548 C80.464885,52.781846 82.5725552,56.8296371 80.6585414,59.7396803 C79.5473181,61.428988 77.540618,62.0811481 75.8708838,62.8069425 C77.1734624,64.1612146 77.4885222,66.161378 78.2725362,67.846208 C78.6592047,68.6770803 79.2019765,69.6165133 80.0667112,69.9060748 C80.3866493,70.0132424 80.7618126,70.0223969 81.0141918,70.2832012 C81.3268585,70.6060971 81.4013205,70.9671037 81.8005988,71.244625 C83.3938461,72.3523221 85.8825703,72.2669462 87.294771,70.8214274 C88.571854,69.5141219 88.2395823,67.4453991 87.1729994,66.1199836 C88.8708064,65.4122993 91.9639705,64.502121 91.2892105,61.8570614 C94.96813,61.612775 103.90044,55.6462162 98.9627536,51.2862759 C101.672563,49.7547841 104.162115,46.011978 102.421509,42.7126686 C101.081193,40.1720899 97.9640977,39.0364317 95.4066181,38.9017011" id="hair" fill="#191847" transform="translate(70.000000, 43.500000) scale(-1, 1) translate(-70.000000, -43.500000) "></path>
                    </g>
                    <g id="Bottom/Standing/Jogging" transform="translate(0.000000, 188.929577)">
                        <polygon id="Leg" fill="#997659" points="115.7 0 181.832708 110.229511 231.413212 203.419271 242.092412 203.419271 159.019582 4.51681517e-13"></polygon>
                        <g id="Accessories/Shoe/Flat-Sneaker" transform="translate(222.500000, 176.577465)" fill="#E4E4E4">
                            <path d="M2.29764903,22.770003 C1.35921634,25.3048609 0.89,27.2109034 0.89,28.4881305 C0.89,30.0882295 1.15736864,32.4231719 1.69210593,35.4929577 C3.55393124,35.4929577 20.2864689,35.4929577 51.8897188,35.4929577 C53.1941768,31.193436 52.441168,28.8722626 49.6306923,28.5294374 C46.8202167,28.1866123 44.4855068,27.8770687 42.6265628,27.6008065 L19.3969699,17.2760763 C18.8922895,17.0517637 18.301324,17.2790468 18.0770114,17.7837272 C18.0734693,17.7916966 18.0700316,17.7997119 18.0666992,17.8077711 L16.6102597,21.3301097 L16.6102597,21.3301097 C14.0084943,22.5403815 11.8942898,23.1455174 10.2676462,23.1455174 C8.98429044,23.1455174 7.22611831,22.6437268 4.99312983,21.6401456 L4.9931365,21.6401308 C3.98563438,21.187325 2.80182089,21.6369952 2.34901508,22.6444973 C2.33047927,22.6857398 2.3133474,22.7275991 2.29764903,22.770003 Z" id="shoe"></path>
                        </g>
                        <path d="M217.64332,188.496789 L238.237971,182.285521 C229.214893,155.392494 218.15583,125.797704 205.060783,93.5011509 C191.965735,61.2045976 177.902141,30.0375473 162.87,2.52192633e-14 L104.703225,2.52192633e-14 C121.415733,37.9961181 139.133233,72.5204688 157.855724,103.573052 C176.578215,134.625635 196.507414,162.933548 217.64332,188.496789 Z" id="Pant" fill="#DB2721"></path>
                        <path d="M111.353799,2.52192633e-14 C105.112113,38.735407 93.073611,88.2243734 91.937501,89.7516177 C91.1800944,90.7697805 63.9132597,99.8791344 10.1369971,117.079679 L12.4438333,126.468452 C76.5719003,117.243689 110.361923,110.086738 113.8139,104.997599 C118.991867,97.3638913 144.846152,37.0574314 154.86,2.52192633e-14 L111.353799,2.52192633e-14 Z" id="Leg" fill="#B28B67"></path>
                        <path d="M29.0402619,108.963804 L33.1035027,124.085101 C81.0675605,128.279199 110.456198,125.2487 121.269415,114.993604 C132.082633,104.738508 144.406509,66.4073071 158.241043,-1.00877053e-13 L102.77555,-1.00877053e-13 C94.0103145,54.3786489 89.1099774,82.7093511 88.0745387,84.9921066 C87.0391,87.2748621 67.3610078,95.2654278 29.0402619,108.963804 Z" id="Pant" fill="#FF4133"></path>
                        <g id="Accessories/Shoe/Flat-Sneaker" transform="translate(21.805000, 136.647887) rotate(80.000000) translate(-21.805000, -136.647887) translate(-5.340000, 118.901408)" fill="#E4E4E4">
                            <path d="M2.29764903,22.770003 C1.35921634,25.3048609 0.89,27.2109034 0.89,28.4881305 C0.89,30.0882295 1.15736864,32.4231719 1.69210593,35.4929577 C3.55393124,35.4929577 20.2864689,35.4929577 51.8897188,35.4929577 C53.1941768,31.193436 52.441168,28.8722626 49.6306923,28.5294374 C46.8202167,28.1866123 44.4855068,27.8770687 42.6265628,27.6008065 L19.3969699,17.2760763 C18.8922895,17.0517637 18.301324,17.2790468 18.0770114,17.7837272 C18.0734693,17.7916966 18.0700316,17.7997119 18.0666992,17.8077711 L16.6102597,21.3301097 L16.6102597,21.3301097 C14.0084943,22.5403815 11.8942898,23.1455174 10.2676462,23.1455174 C8.98429044,23.1455174 7.22611831,22.6437268 4.99312983,21.6401456 L4.9931365,21.6401308 C3.98563438,21.187325 2.80182089,21.6369952 2.34901508,22.6444973 C2.33047927,22.6857398 2.3133474,22.7275991 2.29764903,22.770003 Z" id="shoe"></path>
                        </g>
                    </g>
                    <g id="Body/Pointing-Forward" transform="translate(129.294852, 180.138234) rotate(-8.000000) translate(-129.294852, -180.138234) translate(15.374852, 97.173445)">
                        <path d="M212.315179,41.1787367 C216.171366,40.3872418 225.583215,33.4083576 227.204923,34.8253348 C229.604137,36.9216612 227.464851,43.3585982 224.944264,46.5606297 C220.23329,52.5452225 216.332806,54.5917726 206.692156,57.2717424 C201.651526,58.6729689 196.201714,61.4816068 190.342719,65.6976562 L189.57,52.1212662 L203.139405,44.6893663 C205.043385,37.466287 207.319361,33.8321115 209.967332,33.7868399 C212.001525,32.8431962 208.458993,41.9702316 212.315179,41.1787367 Z M188.960173,10.2410555 C186.4686,14.6500546 184.046726,19.3993783 185.316085,20.7576955 C186.585443,22.1160127 189.750702,20.2185034 191.265027,22.475359 C192.274577,23.9799294 186.866983,26.356727 175.042244,29.6057519 L152.595655,50.0962177 L141.187855,37.8889388 L172.079561,21.0205461 C177.216662,14.938562 182.278138,10.2150492 187.263988,6.85000764 C188.787504,6.21587737 191.451746,5.83205642 188.960173,10.2410555 Z" id="Skin" fill="#997659"></path>
                        <path d="M127.141817,30.8245535 C137.846693,32.4046552 152.454337,32.4114421 169.184657,25.1966066 L173.053493,39.4198438 C160.920953,48.1365762 144.822171,54.327475 131.983731,51.9239444 C121.866333,50.0298299 118.613529,36.9517787 127.141817,30.8245535 Z" id="Sleeve" fill="#2026A2" transform="translate(147.650355, 38.821320) rotate(-9.000000) translate(-147.650355, -38.821320) "></path>
                        <path d="M126.863937,-1.2909861e-13 C128.226453,17.4524033 135.084251,36.6864243 140.712422,55.6882772 C152.197984,58.5460515 171.461599,55.1779627 198.501981,45.5848664 C205.208789,59.4183336 208.309179,69.2805348 207.803149,75.17147 C184.604612,87.2530526 164.721889,92.6387494 148.341734,92.9930466 C148.868965,102.67928 147.686297,111.900662 143.7118,120.326421 C135.542266,137.645475 87.7051015,121.6061 71.6207809,124.76304 C61.5483065,92.149763 81.0237406,78.8958589 81.0394108,58.027983 C81.0565714,35.1754352 99.461425,-1.2909861e-13 102.169331,-1.2909861e-13 L102.169331,-1.2909861e-13 Z" id="Clothes" fill="#1F28CF"></path>
                    </g>
                </g>
                <g id="Humaaan" transform="translate(0.000000, 16.000000)">
                    <g id="Head/Front/Airy" transform="translate(146.854992, 53.957671) rotate(7.000000) translate(-146.854992, -53.957671) translate(86.334992, 7.816826)">
                        <g id="Head" stroke-width="1" transform="translate(48.060000, 27.507042)" fill="#B28B67">
                            <path d="M33.9475738,8.10475738 C39.1049554,17.6888514 38.4921244,41.9997005 31.8266682,43.7126454 C29.1684905,44.3957663 23.5057781,42.7223911 17.7424613,39.2590202 L21.36,64.7746479 L0,64.7746479 L7.35339366,30.6038801 C3.25237069,25.8045724 0.476716101,19.9229593 0.940530937,13.332445 C2.2769139,-5.6567084 28.7901923,-1.47933659 33.9475738,8.10475738 Z"></path>
                        </g>
                        <path d="M69.8329155,24.5657912 C67.0177294,24.1055195 59.4377165,23.7890699 58.0398267,23.7892742 C57.1465092,23.7892742 56.178425,23.9927498 55.6493392,23.1749657 C55.2160608,22.5052938 55.3747865,21.3726944 55.2454771,20.5955644 C55.0953311,19.6927945 54.8820626,18.8016692 54.6663426,17.9127911 C54.0524804,15.3834416 53.124231,12.9770764 51.8254171,10.7178021 C49.3883537,6.47913454 45.8181477,3.15896755 41.3109082,1.22697031 C36.3336199,-0.90625537 30.701409,-1.39471951 25.3476321,-0.962027311 C19.6183881,-0.49909977 14.4321211,1.386523 9.02277997,3.16101048 C3.86797207,4.85194219 -1.53115502,5.51752822 -6.92251946,4.69177662 C-12.3545357,3.85989623 -16.4589345,0.924616927 -21.0407363,-1.86132433 C-25.7312152,-4.71345645 -31.091529,-6.57885424 -36.6365122,-6.1500436 C-41.8125653,-5.74962966 -46.583122,-3.6188555 -50.8632019,-0.77244357 C-54.8677077,1.8907177 -58.1719408,5.09484636 -60.0374281,9.60440618 C-62.0442773,14.4553393 -62.0424388,19.7800275 -58.7422913,24.0671124 C-53.9588649,30.2812916 -45.078598,31.8882589 -37.6905983,31.7285019 C-33.4172597,31.6363659 -29.2203219,30.8586231 -25.1857869,29.4438953 C-19.8052493,27.5570467 -15.1556265,24.3590469 -10.1219568,21.7643237 C-7.75965994,20.5467385 -5.31789807,19.5467251 -2.75847078,18.8263886 C-0.274831466,18.1270942 2.17142457,17.8063545 4.42014159,19.3021866 C6.79898514,20.8846388 8.93064958,22.4391029 11.6520711,23.4297188 C14.2627727,24.380089 17.0281145,24.911659 19.8095945,24.8902082 C25.2213869,24.8485325 30.5561657,23.1674068 35.8122966,22.0413448 C40.0985049,21.1232528 44.6845966,20.2082253 49.0543555,21.0907703 C50.877761,21.4591102 53.541167,22.2194881 54.1997665,24.1087882 C43.1153157,26.111675 38.7619094,39.778865 41.8867844,49.8118899 C43.5733222,55.2270798 53.7113324,61.5573796 57.6531242,58.7105325 C60.1503627,56.9069729 58.6342822,54.5392259 57.6531242,52.9761815 C55.7741544,49.982883 55.1312845,46.1378878 58.6081344,44.0538966 C61.6071728,42.2565284 64.760455,46.524801 64.8201049,46.5201023 C65.6443757,46.4553415 72.7667918,42.4394138 77.6740069,36.5791567 C82.5149928,36.8652624 83.2494405,33.6828387 82.0935078,31.0802141 C80.9375752,28.4775896 73.7226158,25.2021634 69.8329155,24.5657912 Z" id="hair" fill="#191847"></path>
                    </g>
                    <g id="Bottom/Standing/Sprint" transform="translate(0.000000, 172.929577)">
                        <path d="M184.442746,-8.70034961 C167.47561,5.13922648 174.10973,126.700027 172.978076,128.228756 C172.475119,128.908192 145.563421,134.657552 92.2429832,145.476837 L94.558469,154.887869 C156.943441,151.876588 189.95077,148.055677 193.580455,143.425135 C198.777125,136.795525 205.159041,99.6863027 212.726204,32.0974673 L184.442746,-8.70034961 Z" id="Leg" fill="#B28B67" transform="translate(152.484594, 73.093760) rotate(-55.000000) translate(-152.484594, -73.093760) "></path>
                        <path d="M101.252821,135.585021 L105.329291,150.742659 C151.843328,156.154109 182.492666,149.580708 193.269535,139.320136 C200.454115,132.479754 206.852743,95.4714353 212.465421,28.2951791 L182.209558,-14.9146717 C141.816915,15.5657585 166.060833,115.567268 165.030718,117.85318 C164.000603,120.139092 139.476841,121.913061 101.252821,135.585021 Z" id="Pant" fill="#2F3676" transform="translate(156.859121, 68.884680) rotate(-55.000000) translate(-156.859121, -68.884680) "></path>
                        <g id="Accessories/Shoe/Flat-Sneaker" transform="translate(198.811684, 166.177248) rotate(20.000000) translate(-198.811684, -166.177248) translate(171.666684, 148.430769)" fill="#E4E4E4">
                            <path d="M2.29764903,22.770003 C1.35921634,25.3048609 0.89,27.2109034 0.89,28.4881305 C0.89,30.0882295 1.15736864,32.4231719 1.69210593,35.4929577 C3.55393124,35.4929577 20.2864689,35.4929577 51.8897188,35.4929577 C53.1941768,31.193436 52.441168,28.8722626 49.6306923,28.5294374 C46.8202167,28.1866123 44.4855068,27.8770687 42.6265628,27.6008065 L19.3969699,17.2760763 C18.8922895,17.0517637 18.301324,17.2790468 18.0770114,17.7837272 C18.0734693,17.7916966 18.0700316,17.7997119 18.0666992,17.8077711 L16.6102597,21.3301097 L16.6102597,21.3301097 C14.0084943,22.5403815 11.8942898,23.1455174 10.2676462,23.1455174 C8.98429044,23.1455174 7.22611831,22.6437268 4.99312983,21.6401456 L4.9931365,21.6401308 C3.98563438,21.187325 2.80182089,21.6369952 2.34901508,22.6444973 C2.33047927,22.6857398 2.3133474,22.7275991 2.29764903,22.770003 Z" id="shoe"></path>
                        </g>
                        <polygon id="Leg" fill="#997659" points="115.7 0 69.6460935 110.229511 24.3822715 203.419271 35.0614721 203.419271 151.899582 0"></polygon>
                        <g id="Accessories/Shoe/Flat-Sneaker" transform="translate(21.360000, 176.577465)" fill="#E4E4E4">
                            <path d="M2.29764903,22.770003 C1.35921634,25.3048609 0.89,27.2109034 0.89,28.4881305 C0.89,30.0882295 1.15736864,32.4231719 1.69210593,35.4929577 C3.55393124,35.4929577 20.2864689,35.4929577 51.8897188,35.4929577 C53.1941768,31.193436 52.441168,28.8722626 49.6306923,28.5294374 C46.8202167,28.1866123 44.4855068,27.8770687 42.6265628,27.6008065 L19.3969699,17.2760763 C18.8922895,17.0517637 18.301324,17.2790468 18.0770114,17.7837272 C18.0734693,17.7916966 18.0700316,17.7997119 18.0666992,17.8077711 L16.6102597,21.3301097 L16.6102597,21.3301097 C14.0084943,22.5403815 11.8942898,23.1455174 10.2676462,23.1455174 C8.98429044,23.1455174 7.22611831,22.6437268 4.99312983,21.6401456 L4.9931365,21.6401308 C3.98563438,21.187325 2.80182089,21.6369952 2.34901508,22.6444973 C2.33047927,22.6857398 2.3133474,22.7275991 2.29764903,22.770003 Z" id="shoe"></path>
                        </g>
                        <path d="M28.4698084,184.060169 L52.1991105,188.496789 C70.5465402,161.603762 147.331283,51.333322 155.75,2.52192633e-14 L102.923225,2.52192633e-14 C74.8088437,37.1087942 45.9586982,156.72228 28.4698084,184.060169 Z" id="Pant" fill="#5C63AB"></path>
                    </g>
                    <g id="Body/Jacket-2" transform="translate(133.500000, 162.725352) rotate(7.000000) translate(-133.500000, -162.725352) translate(19.580000, 79.760563)">
                        <path d="M45.8423718,72.7605634 L64.08,76.3682846 C45.7389533,110.446151 35.9029794,128.50744 34.5720784,130.552151 C31.577551,135.152752 34.3715057,143.58431 35.4035808,148.024426 C28.9289199,149.527057 31.4823273,139.811202 23.288769,141.839784 C15.810069,143.69138 9.46903322,148.443234 2.49545178,142.0346 C1.63809092,141.246696 1.01046223,138.783932 3.93363971,137.520791 C11.2163408,134.373849 21.9759184,128.481262 23.7205848,126.193522 C26.0997491,123.07378 33.4736781,105.262794 45.8423718,72.7605634 Z M226.227469,45.4799381 L225.86952,46.0034543 C223.131194,50.0270836 220.579853,54.2374402 221.677898,55.6399108 C222.823683,57.1033584 226.142775,55.4881108 227.454047,57.8679636 C228.328228,59.4545322 222.733435,61.3523996 210.669667,63.5615658 L186.517247,82.0235925 L176.22,68.8715003 L208.468765,54.7515909 C214.117996,49.1391322 219.573135,44.8734041 224.834179,41.9544065 C226.407332,41.4550731 229.09499,41.3042186 226.227469,45.4799381 Z" id="Skin" fill="#B28B67"></path>
                        <path d="M109.731196,8.77619066 L117.283149,6.7944027 C135.394782,21.4832649 145.60373,59.6866218 157.181545,63.8487703 C168.1279,67.7839133 182.631875,61.7802605 199.805717,53.8846448 L206.293197,65.5038866 C191.704871,84.2880529 158.672017,101.969486 144.02868,94.8064638 C120.617029,83.3542808 111.29628,35.9500133 109.731196,8.77619066 Z" id="Coat-Back" fill="#DB2721" transform="translate(158.012196, 51.614727) rotate(5.000000) translate(-158.012196, -51.614727) "></path>
                        <path d="M80.1,101.15493 C110.957863,101.15493 133.65626,101.15493 148.195191,101.15493 C151.306794,101.15493 150.720472,96.6753963 150.270671,94.4149993 C145.079423,68.3272856 124.814761,40.2059926 124.814761,3.07078885 L105.172902,0 C88.9265616,26.0504173 83.3082954,58.1237556 80.1,101.15493 Z" id="Shirt" fill="#DDE3E9"></path>
                        <path d="M111.682894,0 C129.316041,59.9271508 134.177188,99.8567283 126.266334,119.788732 L126.266334,119.788732 L64.97,119.788732 C65.9398539,105.202912 69.0497668,89.7778014 73.3093109,74.7381576 C59.427463,99.7052296 47.758619,117.679516 38.3033262,128.661972 L24.03,125.874728 C33.2242275,69.025526 59.8494834,27.0672835 103.905768,-8.52651283e-14 Z" id="Coat-Front" fill="#FF4133"></path>
                    </g>
                </g>
            </g>
            <g transform="translate(227.861501, 168.793699) rotate(-14.000000) translate(-227.861501, -168.793699) translate(177.361501, 134.793699)">
                <path d="M50.8280383,54.6067275 C50.8260383,54.6117275 50.8240383,54.6167275 50.8210383,54.6227275 C50.8240383,54.6177275 50.8280383,54.5977275 50.8280383,54.6067275" id="Fill-35" fill="#C5CFD6"></path>
                <path d="M50.8233815,54.6143262 C50.8233815,54.6153262 50.8223815,54.6173262 50.8223815,54.6193262 C50.8223815,54.6143262 50.8313815,54.5993262 50.8233815,54.6143262" id="Fill-37" fill="#C5CFD6"></path>
                <path d="M50.8581098,54.5297294 C50.8511098,54.5497294 50.8421098,54.5687294 50.8341098,54.5887294 C50.8381098,54.5787294 50.8421098,54.5707294 50.8461098,54.5607294 C50.7421098,54.8207294 50.8081098,54.6517294 50.8581098,54.5297294" id="Fill-39" fill="#C5CFD6"></path>
                <path d="M50.8357258,54.5899536 C50.8317258,54.5989536 50.8277258,54.6089536 50.8237258,54.6179536 C50.7947258,54.6739536 50.8357258,54.5899536 50.8357258,54.5899536" id="Fill-41" fill="#C5CFD6"></path>
                <polygon id="Fill-43" fill="#C5CFD6" points="50.8245383 54.6140786 50.8245383 54.6140786 50.8245383 54.6130786"></polygon>
                <path d="M50.8240383,54.6145786 C50.8240383,54.6135786 50.8240383,54.6135786 50.8250383,54.6125786 C50.8240383,54.6135786 50.8240383,54.6135786 50.8240383,54.6145786" id="Fill-45" fill="#C5CFD6"></path>
                <path d="M50.8192941,54.621754 C50.8132941,54.633754 50.8472941,54.575754 50.8192941,54.621754" id="Fill-47" fill="#C5CFD6"></path>
                <path d="M50.8235383,54.6145786 L50.8255383,54.6125786 C50.8245383,54.6135786 50.8245383,54.6145786 50.8235383,54.6145786" id="Fill-49" fill="#C5CFD6"></path>
                <rect id="Photo-Background" fill="#2B44FF" x="0.574535623" y="0.818446954" width="100" height="66" rx="4"></rect>
                <g id="icons8-night_landscape" transform="translate(9.057629, 20.092572)" fill="#000000" fill-opacity="0.2">
                    <polygon id="Mountains" points="29.3115079 0 0.47121868 47 58.1517972 47"></polygon>
                    <polygon id="Mountains" points="59.0474583 12.5892857 33.5509707 47 84.543946 47"></polygon>
                </g>
            </g>
        </g>
        <g id="Content" transform="translate(690.000000, 361.000000)" fill="#191847" font-family="PingFangSC-Semibold, PingFang SC" font-size="60" font-weight="500" line-spacing="61">
            <text id="Title">
                <tspan x="0" y="64">我想和他们</tspan>
                <tspan x="0" y="125">无话不谈</tspan>
            </text>
        </g>
        <g id="Corner-Plants" transform="translate(935.000000, -52.000000)">
            <path d="M190.716721,208.509825 C196.732884,203.629717 203.575049,199.731348 210.203409,195.767033 C220.849848,189.399597 231.320791,185.132113 243.762039,185.475982 C263.995419,186.03457 282.238166,192.867025 298.855611,203.725859 C307.517545,209.385906 315.872319,216.025501 322.435261,224.066306 C325.355801,227.645545 328.032972,231.41639 330.622971,235.241171 C332.223721,237.603675 333.743345,240.01779 335.240967,242.447172 C336.142111,243.909943 338.071444,245.985264 338.149189,247.775917 C338.242593,249.92745 335.904828,251.57084 333.973036,250.525994 C332.327503,249.636721 331.316737,246.893715 330.321113,245.34757 C328.030726,241.788833 325.562113,238.361762 323.010213,234.989346 C319.025239,229.724921 314.71619,224.976299 309.711786,220.691073 C299.569479,212.006954 287.63067,204.935594 275.284552,199.808971 C273.771119,211.822758 266.891392,220.726241 256.513245,226.751522 C241.738986,235.329139 226.924012,239.696171 209.90779,238.442301 C198.856593,237.628349 189.880757,232.670711 181.912725,225.332208 C180.405905,223.944575 178.498943,221.795618 179.106196,219.49771 C179.690365,217.285629 182.560269,215.535778 184.182391,214.074147 C186.310916,212.157219 188.492472,210.31406 190.716721,208.509825 Z" id="Fill-16" fill="#DDE3E9" transform="translate(258.571167, 218.152724) rotate(-30.000000) translate(-258.571167, -218.152724) "></path>
            <path d="M210.239311,238.454697 C207.933396,219.994942 205.491281,201.641045 201.007892,183.542046 C198.365243,172.876538 194.975618,162.436202 191.896814,151.892357 C192.172456,153.215071 192.416247,154.546332 192.627678,155.881131 C191.556052,152.736551 189.314835,149.729827 188.026974,146.596466 C186.590493,143.101929 185.436099,139.471837 184.339724,135.863241 C182.199203,128.820392 180.179903,121.765408 177.770183,114.803481 C175.084861,107.047022 171.991624,99.419718 169.109531,91.7315885 C166.663467,85.2066725 164.373316,78.3558875 161.186886,72.1298028 C159.450371,68.7362609 157.893843,65.0909944 156.189231,61.6317769 C155.618634,60.4741965 150.725374,47.5411267 150.762353,47.5410936 C151.573328,47.5403663 154.609702,53.2885155 155.112785,54.1329555 C156.583061,56.59916 157.831884,59.1657874 159.094057,61.7374142 C159.642759,58.6820844 160.509835,55.6906127 161.873912,52.8811036 C162.294816,52.0137857 165.249652,45.6178256 166.210085,45.6169643 C166.689788,45.6165341 162.246057,57.6935424 161.684767,58.753918 C161.228944,59.6152538 160.375387,60.7074623 160.077703,61.6237796 C159.596671,63.1035222 159.844045,62.7334726 160.238832,64.0676055 C160.962352,66.5129315 162.566229,68.9068547 163.574884,71.2547074 C164.128446,72.5080173 165.491746,76.8525218 166.820222,78.7976869 C170.239419,85.4780802 172.66605,93.6251445 175.267124,100.829944 C175.831157,97.2885122 176.803901,93.8734979 178.149959,90.5403328 C178.469102,89.7487755 181.009802,82.4045635 181.739628,82.403909 C182.560875,82.4031725 179.405537,94.1648221 178.977309,95.1809797 C178.182101,97.0684159 176.932926,98.8956235 176.271224,100.816515 C175.545154,102.924884 176.815638,104.820991 177.624162,106.976092 C180.598487,114.904677 183.205003,122.912769 185.585951,131.028805 C199.461176,124.952288 202.235243,107.102352 203.15203,93.9400709 C203.812311,84.4537468 202.350037,74.795437 200.052238,65.5959016 C196.985777,53.3181642 191.818823,41.4667605 186.335608,30.0571285 C179.946556,16.7625882 171.154632,4.89138372 160.550435,-5.5119135 C155.004336,-10.95313 148.68667,-15.6675293 142.269612,-20.0846743 C139.134996,-22.2426998 135.914279,-24.0333259 132.253902,-25.2322341 C130.603677,-25.7719656 128.909661,-26.1623236 127.197074,-26.4609596 C125.895815,-26.687803 123.241584,-27.8901192 122.162234,-27.5819636 C113.348721,-25.1406129 106.721695,-21.0871101 101.579959,-13.5581572 C96.7123337,-6.43134978 93.6872823,2.08642238 92.0023595,10.4411304 C90.1265524,19.7446329 89.6676997,29.1235364 91.2622364,38.4835602 C92.4787023,45.6249563 94.5817684,52.6252433 96.6879778,59.5568738 C104.178769,84.2108542 117.32373,110.637744 140.940787,124.144343 C148.585389,128.51679 157.069821,131.06891 165.780804,132.418136 C167.833378,132.736011 169.883911,133.038353 171.961319,133.153251 C173.361836,133.231172 177.967097,132.298464 178.979889,132.900405 C180.368435,133.725509 181.162359,138.412791 181.766367,140.112054 C186.355592,153.027356 190.458307,166.089421 194.179825,179.26859 C198.138896,193.290433 201.281221,207.449313 203.89645,221.766519 C205.008572,227.856155 206.091942,233.935793 207.01349,240.058674 C207.228436,241.48317 207.000994,245.964404 208.392748,247.221472 C209.272857,248.016464 210.518118,247.689117 211.042865,246.714466 C211.955514,245.019856 210.47541,240.344716 210.239311,238.454697" id="Leaf" fill="#C1DEE2" transform="translate(150.814803, 110.017783) rotate(-67.000000) translate(-150.814803, -110.017783) "></path>
            <path d="M220.394433,147.476088 C219.922124,146.931322 209.707061,142.352383 210.29945,141.401994 C210.553826,140.993889 214.458471,142.853685 214.982679,143.131145 C217.056072,144.22956 218.822069,145.769267 220.394433,147.476088 Z M238.907439,136.075002 C238.894574,136.147024 240.248581,138.450214 240.617133,139.158384 C241.401733,140.663839 242.126107,142.198898 242.807554,143.73655 C241.798647,141.020448 240.762086,138.501368 238.907439,136.075002 Z M144.226035,154.822575 C142.922063,155.243592 141.354279,153.584258 143.045667,153.175544 C144.414236,152.84748 144.347119,152.770135 144.961631,151.665001 C145.460629,150.767593 145.768047,149.673068 146.205926,148.731335 C147.13473,146.733855 148.188296,144.828929 149.481541,143.043954 C152.253167,139.217458 155.630143,135.920201 159.417671,133.141635 C166.027613,128.293037 173.43898,123.861475 181.300802,121.635079 C193.801209,118.095011 208.028379,117.875945 220.548345,120.330756 C228.302281,121.850701 235.388555,124.493115 240.537314,130.752038 C243.110756,133.879751 245.130705,137.544197 246.013748,141.579177 C246.244222,142.633953 246.201123,143.806731 246.489584,144.839306 C246.933017,146.426947 246.737381,146.004334 248.589641,146.313237 C250.612194,146.650318 252.632943,146.99463 254.653253,147.344705 C259.9429,148.262 265.263515,149.235854 270.417703,150.724617 C272.114136,151.214134 273.773257,151.812658 275.393909,152.508315 C276.619719,153.033737 281.500732,154.68395 282.093722,156.280276 C283.081113,158.936524 279.77312,157.732427 278.745223,157.154013 C277.844837,156.647117 276.920437,156.174412 275.98255,155.739243 C273.621033,154.643585 271.1606,153.796242 268.644675,153.121764 C265.925849,152.392642 263.151302,151.848319 260.387538,151.303319 C257.810035,150.795571 255.223027,150.333427 252.63262,149.891914 C251.193631,149.646347 249.753371,149.407879 248.31311,149.169411 C247.82109,149.087866 246.953343,148.660869 247.019005,149.302122 C243.99102,148.717018 240.716444,148.801447 237.632097,148.639952 C233.854277,148.442576 230.062507,148.280588 226.272069,148.399057 C223.538306,148.484584 220.802149,148.664295 218.08226,149.032562 C216.492942,149.247889 214.928998,149.562719 213.369646,149.961247 C212.513135,150.180427 209.135519,150.644824 208.668898,151.39344 C208.869414,151.071745 212.597081,151.383554 213.071524,151.365371 C214.969322,151.294049 216.852248,151.10565 218.743016,150.89383 C222.251778,150.500902 225.762045,150.295643 229.281552,150.32563 C229.268187,150.944783 226.864003,152.048231 226.277102,152.458598 C224.961207,153.379369 223.700883,154.383722 222.525103,155.485163 C220.453692,157.425061 217.973567,159.828421 216.540805,162.127049 C216.963075,161.449587 219.04603,160.568061 219.785273,160.050608 C220.969512,159.221083 222.129538,158.336444 223.227309,157.390511 C224.240673,156.517116 225.186297,155.573881 226.11609,154.61051 C227.045976,153.646269 228.307907,151.641947 229.529772,150.999957 C229.603515,150.961151 230.136121,151.383044 230.438662,151.239526 C230.74354,151.09515 231.123597,150.372664 231.20102,150.34313 C232.33838,149.903208 234.498437,150.450445 235.694127,150.505979 C238.794948,150.648995 241.892766,150.83658 244.991484,151.007542 C245.951467,151.060342 246.767158,150.841603 247.129788,151.55137 C247.516074,152.308471 246.808166,154.298477 246.606789,155.123138 C245.859681,158.185712 244.532658,160.931924 242.443832,163.3045 C238.532022,167.748906 233.708387,170.711718 228.259097,172.693627 C207.387043,180.284806 185.181894,183.324975 164.316138,175.42844 C155.677786,172.158872 142.668338,166.31694 144.226035,154.822575 Z" id="Leave-the-Leaf!" fill="#89C5CC" transform="translate(212.291430, 149.382142) rotate(-30.000000) translate(-212.291430, -149.382142) "></path>
        </g>
        <g id="Corner-Plants" transform="translate(43.500000, 833.500000) scale(-1, 1) translate(-43.500000, -833.500000) translate(-19.000000, 735.000000)" fill="#89C5CC">
            <path d="M25.396962,26 C22.5654715,26 19.7426136,26.0568738 16.9146777,26.2040472 C14.7590684,26.3167971 11.4649725,25.8697889 9.64095635,27.2138067 C7.74584828,28.6097093 7.87635277,31.4673685 8.17239993,33.4853907 C9.73743827,44.157211 13.5571068,53.6202136 21.5478411,61.1809371 C33.8513174,72.8231043 47.9559588,78.7384787 64.6463157,81.3726338 C76.3703927,83.2230279 87.1936331,80.6537289 95.824195,72.3137345 C102.13005,84.0212567 106.91403,96.9770092 109.314399,110.052995 C110.498588,116.505178 110.860141,122.879534 110.651943,129.449456 C110.517884,133.657619 110.285819,137.855803 109.834893,142.04401 C109.639391,143.863972 108.711641,146.618859 109.424084,148.338543 C110.259922,150.358062 113.078717,150.553628 114.344154,148.83145 C115.39733,147.39813 115.203859,144.583376 115.420181,142.887139 C115.778688,140.069392 116.110789,137.249648 116.348439,134.418929 C116.734366,129.837096 117.01975,125.242291 117,120.642997 C116.950689,110.309426 114.653912,99.9354448 111.512156,90.1262105 C105.485082,71.3074673 95.7058777,54.5825782 80.4967721,41.4601954 C71.1451349,33.3910999 60.4422429,30.1233507 48.2992313,28.3692429 C40.739111,27.2771661 33.0555954,26 25.396962,26" id="Fill-16"></path>
            <path d="M121.225393,1.3341544 C120.69196,0.946240028 119.426405,0.808691352 118.837645,0.692486436 C116.390395,0.210049702 113.869376,0 111.374455,0 C103.681258,0.0115188546 95.8631417,0.766681412 88.297649,2.07373262 C83.4943162,2.90342894 77.6874473,5.69573482 72.9091681,4.17931149 C64.5847599,1.53708951 56.1716202,1.66684602 48.2738193,5.43893212 C41.0531616,8.88815149 35.5716416,15.4389919 32.3727834,22.517328 C31.8901535,23.5858712 29.9321447,27.5185437 29.3778337,30.1695742 C29.1408684,30.7116379 28.9132981,31.2574284 28.7079977,31.8113498 C28.1255014,33.3840122 27.6032034,34.9844554 27.1177898,36.5879477 C26.9104016,37.2719644 26.3887995,38.7822895 27.0081802,39.0743264 C26.0185628,40.9007424 25.1413387,42.7830588 24.4106086,44.7263573 C22.2855757,50.3780494 19.9622018,56.5775648 19.2154652,62.5677079 C18.9388317,64.785765 18.9283927,67.0166962 19.1851921,69.2391575 C19.3122,70.3375142 19.259657,72.5464239 20.0043058,73.3815409 C21.5847707,75.1537506 22.3962291,72.6727926 22.2180702,71.4910936 C20.8575202,62.4847044 23.4846691,54.0271548 26.5982754,45.5611355 C28.611611,40.0866304 31.9197307,35.0783002 35.6255764,30.5425818 C38.6247017,26.8711163 41.8420021,23.9798838 45.9532291,21.5456788 C50.9806525,18.5690712 56.3556946,16.162647 61.6813255,13.7487694 C65.1839587,12.1605226 68.6907674,10.6149633 72.2911792,9.24659115 C73.0918507,8.94201908 74.3514902,8.16144728 75.2391534,8.15839818 C77.1164339,8.15162238 79.7766396,9.53693404 81.5898943,10.0522334 C87.5540441,11.7478765 93.5943986,13.9188419 99.7582814,14.7847887 C103.711879,15.3407428 107.415985,14.714998 111.11348,13.3977831 C111.491372,13.2636223 112.124671,12.9177179 112.900637,12.4237623 C115.645747,11.3677543 118.242622,10.0386818 120.50371,8.12147008 C121.806498,7.01667641 122.988541,5.58901602 124.066542,4.2823036 C124.389107,3.89167891 124.531773,3.44379874 124.536645,3.0182787 C124.780917,2.89055493 124.94307,2.7414874 124.979606,2.56734942 C125.248585,1.28130318 122.795767,1.25758789 121.225393,1.3341544" id="Twisted-Leaf"></path>
            <path d="M69.3647363,100 C38.9133796,100 18.4043563,124.840973 8.70737724,150.658994 C5.05199764,160.390757 4.19525247,171.077018 2.78646019,181.295589 C2.33415061,184.574807 2.50170962,189.571828 1.1866706,192.493171 C0.709426633,193.55258 -0.384693808,193.933497 0.138429411,195.376765 C0.455095992,196.250864 1.07646065,196.786206 2.00950502,196.959751 C3.92496383,197.316646 6.6333358,195.205181 8.27551384,194.371772 C21.896665,187.457421 30.8461114,176.766258 38.1468969,163.685663 C42.6724862,155.578067 47.264401,147.161619 49.9528255,138.260814 C51.5950035,132.823557 52.5509875,127.097059 53.1125097,121.456353 C53.3334282,119.235073 53.5473652,116.960848 53.5343993,114.725842 C53.5214334,112.508484 52.5021161,111.33632 51.7695441,109.406243 C61.9303026,105.513244 73.3991184,104.452364 83.6915303,108.486552 C93.2109766,112.217772 101.118665,119.428228 105.546511,128.486891 C106.696983,130.841515 107.584149,133.325564 108.230448,135.859126 C108.653335,137.51859 108.673781,139.671726 109.457718,141.171862 C111.358714,144.808955 115.358188,142.377363 114.974199,138.991762 C113.903517,129.547281 108.565566,120.065541 101.743022,113.49926 C93.1381682,105.218119 81.4743655,100 69.3647363,100" id="Fill-18"></path>
        </g>
        <g id="Corner-Plants" transform="translate(1128.500000, 854.000000) scale(-1, 1) translate(-1128.500000, -854.000000) translate(1003.000000, 720.000000)">
            <path d="M144.888685,0.687038818 C141.322692,-0.088908244 137.385287,-0.0295209116 133.752892,0.0344893868 C114.27237,0.298354061 95.1428285,9.48489872 82.6928652,24.163527 C72.0941244,36.6597597 69.1797443,52.1961259 67.0859001,67.9014083 C66.8783034,69.4607703 66.7892813,71.0101751 66.6721661,72.5727376 C66.6469918,72.9080804 66.6094128,73.2071508 66.5692798,73.4887961 C65.7458252,74.2220696 65.313849,75.0769627 65.8012816,76.016136 C63.9872733,79.9701944 62.4527362,84.0245356 61.1360114,88.2061861 C57.2606301,100.514655 53.3184823,113.057118 55.7468891,126 C56.3142228,118.877432 57.50763,111.594127 58.9349028,104.588555 C59.0169929,104.186357 59.1056502,103.78736 59.1979559,103.389785 C59.2074419,103.347822 59.2161981,103.30586 59.2256841,103.264253 C59.7309941,101.118841 60.3877147,99.0377955 61.18636,96.9894659 C61.1947514,96.9670623 61.202778,96.9450143 61.2115342,96.9229663 C61.3169744,96.6534119 61.4289817,96.3852798 61.5395297,96.1171478 C61.7682874,95.5620363 62.0032474,95.0079916 62.2524364,94.4567918 C62.3367155,94.2690282 62.4177111,94.0794866 62.495423,93.8885226 C63.6581833,91.0500215 64.1492644,87.8516402 65.1908963,84.9146344 C65.4400853,84.2467936 65.7005844,83.5814421 65.9734883,82.9196467 C65.9895415,82.8808849 66.0059595,82.8421231 66.0223775,82.8033613 C66.7600937,81.0224526 67.5751569,79.2632362 68.4369203,77.5225117 C68.905381,77.1718775 69.1556645,76.3020487 69.5595477,75.5115215 C69.6430971,75.3557631 70.2961693,74.3170182 70.4906316,73.7185219 C70.9981306,72.7405868 71.5038055,71.7622961 72.014953,70.786139 C71.9996296,70.7918289 71.9843061,70.7975187 71.9689826,70.8032085 C72.480495,69.8658132 72.9934667,68.9323297 73.5024252,68.0027579 C73.6144326,67.7986362 73.7275344,67.5941588 73.8402715,67.3893259 C74.0230587,67.063229 74.205846,66.7374877 74.3882683,66.4124576 C76.0946474,63.3709016 77.9039126,60.3901554 79.7828633,57.4463929 C80.453448,56.3959127 82.0554814,54.8895371 82.3626807,53.7099695 C82.3739909,53.6658735 82.3765448,53.6253337 82.3834769,53.5830157 C86.4606173,47.8793425 91.1543454,42.6184072 96.7831707,38.4499144 C96.1027352,39.1824767 94.6564904,41.6685655 94.2741331,42.1607336 C93.1040759,43.6678205 91.8336864,45.0707129 90.5585539,46.4906747 C88.2749904,49.0343728 86.0454239,51.658795 84.0643168,54.4339971 C80.4414081,59.5093025 77.3157829,64.8506063 74.3612698,70.2993052 C74.3331768,70.3313103 74.3025298,70.3615374 74.2758961,70.3942538 C72.7909779,72.2174804 71.8562456,74.9731238 70.7872504,77.0587927 C75.0176256,75.1071898 79.6953005,73.8358742 84.0369534,72.1029731 C88.3665664,70.3754063 92.5783346,68.4515412 96.6445297,66.1923333 C102.048975,63.1898947 107.65518,59.7998382 112.761548,55.9634876 C118.613293,52.3479726 123.530671,47.3715275 127.87123,42.149354 C133.006785,35.9705821 137.713282,29.7377571 140.624014,22.2353945 C142.053841,18.548757 143.178657,14.7045829 143.845593,10.8156017 C143.874781,10.6459744 143.911995,10.4621226 143.952493,10.2711586 C144.634753,8.92800912 145.244773,7.55463261 145.75665,6.14960656 C146.569525,3.92133695 148.489338,1.47009813 144.888685,0.687038818" id="Fill-10" fill="#69A1AC"></path>
            <path d="M246.868866,90.0960171 C247.655916,92.6912022 246.999334,94.975003 243.894024,94.3312656 C242.963107,94.1383525 242.001428,93.8294853 241.081855,93.569223 C235.970874,92.1229576 230.906362,90.534112 225.769322,89.1800999 C215.886453,86.5755338 205.857471,85.3145403 195.732142,84.1460761 C187.760119,83.2263444 179.729043,82.6719883 171.733191,83.0252567 C161.879858,83.4607267 152.266038,85.376488 142.725624,87.5812404 C132.909114,89.8507643 122.828662,92.6594018 113.366366,96.3296036 C102.604255,100.503737 92.6841042,105.659998 82.8417802,111.622252 C58.5204755,126.355853 36.8996378,144.757381 17.9886352,165.887484 C15.266666,168.92949 12.5559901,171.982087 9.84951587,175.038085 C7.81048632,177.340944 5.88853109,179.743386 3.86352859,182.054691 C2.18678051,183.968733 0.223981395,182.877826 1.5151045,180.635742 C2.99728521,178.060997 5.54040404,175.748054 7.4734544,173.515883 C9.19862901,171.524297 10.9256043,169.534168 12.6516792,167.543311 C14.6759448,165.209614 16.7114559,162.888408 18.7886348,160.602858 C28.4545438,149.968556 38.8247414,139.892073 49.7566652,130.543819 C58.0601423,123.443334 67.0253908,117.22663 76.2253148,111.312687 C86.7981245,104.517046 98.0220114,97.4079025 110.123919,93.3850816 C110.242849,93.2076566 110.395493,93.0260313 110.566291,92.8440804 C108.214489,90.72104 115.430117,83.5728605 116.731785,82.1787128 C120.037449,78.6383831 123.673338,75.3429988 127.399498,72.2446614 C130.456983,69.7022995 133.725867,67.4840661 137.305034,65.7126048 C142.608298,63.0883948 148.361604,61.5258538 154.213954,60.5137801 C164.352769,58.7608172 174.997521,57.8110607 185.340033,58.6704263 C204.215093,60.2385678 222.801257,66.0804189 237.785283,78.2058842 C241.621624,81.3103511 245.423419,85.3294357 246.868866,90.0960171 Z" id="Fill-1" fill="#C1DEE2"></path>
            <path d="M96.9657311,110 C104.809555,110 111.789333,111.020165 119.016554,114.140272 C125.255098,116.833109 130.940449,120.397977 136.460352,124.279103 C144.224731,129.737594 150.340465,136.090605 154.621332,144.508218 C157.178847,149.536941 159.054893,156.652755 157.337371,162.137661 C155.314099,168.597757 149.758847,173.985572 142.442342,172.847256 C137.918041,172.144063 133.770552,169.14639 130.331864,166.325051 C126.218266,162.949725 122.925347,158.891194 120.206393,154.383619 C115.77101,147.03079 113.164662,138.718476 109.396901,131.035111 C107.609046,127.388501 105.88132,123.715834 103.739975,120.250199 C102.679871,118.53398 101.551256,116.83418 99.9430605,115.558795 C99.0826597,114.876662 95.4548366,113.695869 96.842192,112.163836 C76.5012378,112.431192 58.4812887,128.067779 54.5765048,147.422722 C54.2128114,149.226751 53.9285621,151.045415 53.6282782,152.86051 C53.4387787,154.006679 53.5153073,158.233334 52.4916454,158.96544 C50.2340498,160.580642 51.1830052,155.673996 51.2799415,154.967591 C51.5302996,153.141787 51.7974211,151.317412 52.0776617,149.496249 C53.6024042,139.590507 58.0082687,130.381891 65.3557491,123.317477 C73.7578675,115.239324 85.0943134,110 96.9657311,110 Z" id="Fill-20" fill="#89C5CC"></path>
        </g>
        <g id="Corner-Plants" transform="translate(54.000000, 56.000000) scale(1, -1) translate(-54.000000, -56.000000) translate(-58.000000, -128.000000)">
            <path d="M165.452652,0.828808733 C161.150204,-0.10725439 156.39964,-0.0356125283 152.017077,0.0416062444 C128.513403,0.359919185 105.433195,11.4421 90.4120439,29.1496516 C77.6244327,44.224472 74.1081697,62.9667551 71.5819012,81.91281 C71.3314312,83.7939451 71.2240241,85.6630684 71.0827221,87.5480644 C71.0523488,87.952605 71.0070089,88.3133882 70.9585876,88.6531508 C69.9650717,89.5377348 69.443883,90.5690344 70.031981,91.7020054 C67.8433407,96.4719806 65.9918882,101.362932 64.4032311,106.407463 C59.7274994,121.255775 54.9712123,136.386364 57.901138,152 C58.5856383,143.407696 60.0255101,134.621486 61.7475458,126.170321 C61.8465892,125.685129 61.9535562,125.203799 62.0649251,124.724185 C62.0763701,124.673563 62.0869347,124.622942 62.0983797,124.57275 C62.7080473,121.984634 63.5003949,119.474166 64.4639778,117.003165 C64.4741022,116.976139 64.4837865,116.949541 64.4943511,116.922944 C64.6215669,116.597767 64.7567062,116.274306 64.8900847,115.950845 C65.1660859,115.281187 65.4495703,114.612815 65.7502222,113.947876 C65.8519068,113.721367 65.9496297,113.492714 66.0433908,113.262345 C67.4462864,109.838121 68.0387864,105.979756 69.2955379,102.436702 C69.5961898,101.631053 69.9104877,100.828406 70.2397522,100.03005 C70.2591207,99.9832898 70.2789294,99.9365295 70.2987381,99.8897692 C71.1888087,97.7413714 72.1722002,95.6191421 73.2119364,93.5192205 C73.7771444,93.0962332 74.0791169,92.0469159 74.5664108,91.0932641 C74.667215,90.905365 75.4551608,89.652276 75.6897837,88.9302804 C76.3020924,87.7505492 76.9122001,86.5703889 77.5289107,85.3928027 C77.5104226,85.3996666 77.4919345,85.4065304 77.4734464,85.4133943 C78.0905972,84.2825683 78.7095088,83.1564612 79.3235782,82.035073 C79.4587175,81.7888309 79.5951774,81.5421599 79.7311971,81.2950598 C79.9517339,80.901673 80.1722707,80.5087153 80.3923672,80.1166155 C82.4511506,76.4474368 84.6340685,72.851616 86.9010633,69.3004104 C87.7101383,68.0331646 89.6430265,66.2159495 90.0136691,64.7929791 C90.0273151,64.7397839 90.0303965,64.6908787 90.0387601,64.6398285 C94.9579187,57.7592069 100.621004,51.4126817 107.412304,46.3840237 C106.591343,47.2677496 104.846418,50.266841 104.385095,50.8605675 C102.973396,52.6786406 101.440643,54.3710187 99.9021683,56.0839885 C97.1469993,59.1525767 94.4569789,62.3185464 92.06673,65.6664092 C87.6956119,71.7889999 83.9244771,78.2324775 80.3597929,84.805511 C80.3258981,84.8441204 80.2889218,84.8805848 80.2567877,84.9200522 C78.4652016,87.1195002 77.3374267,90.4437684 76.0476608,92.9598134 C81.1517004,90.6054988 86.7954169,89.0718482 92.0337155,86.9813644 C97.2574878,84.8973155 102.339078,82.5764624 107.24503,79.8510687 C113.765612,76.2290793 120.52962,72.1394873 126.690563,67.5115089 C133.750821,63.1499352 139.683745,57.1466046 144.920723,50.8468397 C151.116882,43.3930832 156.795373,35.8741197 160.307234,26.8236506 C162.032351,22.3762783 163.389467,17.738862 164.19414,13.0473925 C164.229355,12.8427628 164.274255,12.6209733 164.323117,12.390604 C165.146278,10.7702967 165.882281,9.11352505 166.499872,7.41857299 C167.480622,4.73050172 169.796918,1.77345172 165.452652,0.828808733" id="Fill-10" fill="#69A1AC"></path>
            <path d="M191.458696,80.2501154 C186.482788,76.882493 179.865789,76 173.91119,76 C150.653641,76 128.792625,84.612243 109.907279,97.4446709 C99.5590489,104.476045 90.3017729,113.43022 82.1289301,122.753083 C77.4115531,128.134658 73.2051825,133.956572 70.227184,140.431513 C68.2176289,144.801804 66.8383306,149.355304 65.9034263,154.052108 C64.7640263,159.776069 63.8589346,165.616123 63.4494773,171.435316 C63.288303,173.726805 61.9541894,185.886252 65.7715988,186.092137 C65.7497052,186.391895 65.7445811,186.677594 65.7678722,186.933816 C57.4790397,199.869186 52.3577952,215.028929 47.6087424,229.401865 C43.4769033,241.90914 39.7950481,254.522079 37.4049166,267.461077 C34.2582906,284.496004 32.1914394,301.787153 31.2085555,319.066965 C30.9975382,322.7806 30.8526676,326.49605 30.7278274,330.214674 C30.6220859,333.386389 30.5149469,336.558103 30.4106028,339.729817 C30.2941474,343.284278 29.6671513,347.376579 30.2335905,350.910179 C30.7264299,353.987567 33.3951228,353.521832 33.5129757,350.459409 C33.6555172,346.761192 33.6322261,343.055719 33.7943321,339.354781 C34.0100076,334.443022 34.2322046,329.531264 34.4730344,324.620866 C36.1495269,290.509745 42.4390524,256.900184 54.0463991,224.678759 C58.7437458,211.639539 64.1263163,199.295974 71.0442353,187.234027 C77.1264701,176.628692 84.4426668,166.361661 91.9209694,156.799355 C99.1896522,147.506876 106.746679,138.429352 115.652725,130.556299 C122.87995,124.167521 130.829664,118.601829 139.001575,113.422964 C149.381016,106.845534 159.740426,100.427733 170.9835,95.378567 C176.8277,92.754216 182.7823,90.4046804 188.67215,87.8864462 C189.731894,87.433409 190.868034,86.9939764 191.887252,86.4692876 C195.287285,84.7192668 194.167915,82.0835785 191.458696,80.2501154" id="Fill-1" fill="#C1DEE2" transform="translate(112.000000, 214.500000) rotate(13.000000) translate(-112.000000, -214.500000) "></path>
            <path d="M107.416629,184 C116.873201,184 125.288074,185.230676 134.001266,188.994614 C141.522501,192.243116 148.376803,196.543591 155.031639,201.225584 C164.392433,207.810431 171.765607,215.47438 176.926653,225.628962 C180.010012,231.695358 182.271787,240.279515 180.20113,246.896227 C177.761858,254.689358 171.064404,261.188944 162.243572,259.815738 C156.78904,258.967441 151.788796,255.351201 147.643088,251.947681 C142.683704,247.875858 138.713736,242.979853 135.435744,237.542144 C130.088414,228.672064 126.946182,218.644511 122.403741,209.375689 C120.248289,204.976605 118.16533,200.546086 115.583709,196.36532 C114.305639,194.29496 112.944972,192.244408 111.00612,190.705848 C109.968814,189.882957 105.595083,188.458508 107.267689,186.610342 C82.744483,186.932866 61.0194976,205.79605 56.3118609,229.144871 C55.8733895,231.32116 55.5306964,233.515104 55.1686719,235.704742 C54.9402098,237.087423 55.0324733,242.186244 53.7983388,243.069419 C51.0765647,245.017917 52.2206325,239.098789 52.3374996,238.246617 C52.6393331,236.044061 52.9613768,233.843227 53.299237,231.646269 C55.137478,219.696485 60.4492211,208.587678 69.3073985,200.065528 C79.4370552,190.320454 93.1043591,184 107.416629,184 Z" id="Fill-20" fill="#89C5CC"></path>
        </g>
    </g>
</svg>