<?xml version="1.0" encoding="UTF-8"?>
<svg width="1200px" height="888px" viewBox="0 0 1200 888" version="1.1" xmlns="http://www.w3.org/2000/svg" xmlns:xlink="http://www.w3.org/1999/xlink">
    <!-- Generator: Sketch 63.1 (92452) - https://sketch.com -->
    <title>Web—Features</title>
    <desc>Created with Sketch.</desc>
    <defs>
        <path d="M106.813187,197.628458 C143.435964,197.628458 174.304753,173.014343 183.75138,139.440523 C185.688914,132.554424 215.736264,109.849866 215.736264,102.345013 C215.736264,58.249551 150.947414,0.02676864 106.813187,0.02676864 C62.6789593,0.02676864 -29.2747253,178.65984 9.61031158,197.628458 C32.8352828,208.957897 48.070791,172.088116 51.1682908,175.091187 C65.5563842,189.040654 85.1810092,197.628458 106.813187,197.628458 Z" id="path-1"></path>
        <path d="M40.6820139,9.52632054 C41.0240631,8.54160571 43.355296,5.49073553 39.2034287,2.58416456 C38.4573268,2.06184582 37.2247639,2.5824515 36.1568208,2.25278052 C35.3532893,2.00473264 35.0823953,0.8846997 34.1613047,0.689303279 C33.2057547,0.486596779 32.1647375,1.40532651 31.0847534,1.3245896 C30.4230038,1.27511886 29.40196,0.244753966 28.7130456,0.189254438 C27.4832166,0.0901783759 26.3659876,1.24999653 25.1648929,1.3245896 C24.4685832,1.36783338 23.660717,0.248471576 22.9696436,0.189254438 C21.2876729,0.0451286653 19.7558125,0.828562448 18.2736386,1.06615137 C16.9076022,1.28512372 16.2724047,4.08205809 15.2661769,4.743083 C12.1085967,6.8174036 9.63464804,7.39739754 7.07238119,9.52632054 C4.02649654,12.0571514 3.4435353,13.9400444 2.18170188,15.6264948 C0.91986847,17.3129452 0.140436917,23.2547665 0.876299215,27.0627563 C1.3103683,29.3090062 2.44155031,35.4435661 4.96854456,37.8186649 C8.42732209,41.0695383 15.4639601,42.0327319 16.0886188,41.5989933 C18.9815902,39.590227 25.4665535,28.4797318 30.0659341,24.5530647 C33.4480846,21.6655933 38.5630652,15.6264948 40.6820139,9.52632054 Z" id="path-3"></path>
        <path d="M108.813187,203.628458 C132.804493,203.628458 154.326497,193.065405 168.974399,176.34023 C176.686549,167.534391 196.741787,187.920093 200,176.34023 C200.713711,173.803664 210.318765,142.025674 200,113 C182.306074,63.2287198 139.690114,0.02676864 108.813187,0.02676864 C48.6789593,0.02676864 -27.2747253,184.65984 11.6103116,203.628458 C34.8352828,214.957897 50.070791,178.088116 53.1682908,181.091187 C67.5563842,195.040654 87.1810092,203.628458 108.813187,203.628458 Z" id="path-5"></path>
        <path d="M108.813187,203.628458 C132.804493,203.628458 154.326497,193.065405 168.974399,176.34023 C176.686549,167.534391 196.741787,187.920093 200,176.34023 C200.713711,173.803664 210.318765,142.025674 200,113 C195.825783,101.258336 220.310057,56.175129 213.843131,43.944664 C192.897656,4.33188801 132.405863,0.02676864 108.813187,0.02676864 C48.6789593,0.02676864 -27.2747253,184.65984 11.6103116,203.628458 C34.8352828,214.957897 50.070791,178.088116 53.1682908,181.091187 C67.5563842,195.040654 87.1810092,203.628458 108.813187,203.628458 Z" id="path-7"></path>
    </defs>
    <g id="Web—Features" stroke="none" stroke-width="1" fill="none" fill-rule="evenodd">
        <rect fill="#FFFFFF" x="0" y="0" width="1200" height="888"></rect>
        <g id="Rectangle-2" opacity="0.31761" transform="translate(0.000000, 392.000000)" fill="#C1DEE2">
            <polygon id="Rectangle" points="0 131.116522 1203 0 1203 496 0 496"></polygon>
        </g>
        <g id="Column" transform="translate(130.000000, 360.000000)">
            <text id="Text" font-family="PingFangSC-Regular, PingFang SC" font-size="16" font-weight="normal" line-spacing="24" fill="#191847">
                <tspan x="38" y="278">他喜欢玩游戏，至今没有女朋友</tspan>
                <tspan x="78" y="302">喜欢樱木，染红头发</tspan>
            </text>
            <g id="Human" transform="translate(42.000000, 0.000000)">
                <ellipse id="Background" fill="#AADDC7" cx="106.813187" cy="117.786561" rx="79.9120879" ry="79.8418972"></ellipse>
                <mask id="mask-2" fill="white">
                    <use xlink:href="#path-1"></use>
                </mask>
                <g id="Mask"></g>
                <g id="A-Human/Standing" mask="url(#mask-2)">
                    <g transform="translate(-12.659341, -12.648221)">
                        <g id="Head/Front/Turban2" transform="translate(64.879121, 0.000000)" stroke-width="1">
                            <g id="Head" transform="translate(42.725275, 24.505929)" fill="#B28B67">
                                <path d="M30.179347,7.22050033 C34.7642522,15.7589365 34.2194463,37.417388 28.2938648,38.9434447 C25.9308473,39.5520093 20.8970263,38.0613553 15.7736674,34.9761129 L18.989011,57.7075099 L0,57.7075099 L6.53698954,27.2646946 C2.89127758,22.9890439 0.423806279,17.7492057 0.836130726,11.8778292 C2.02417336,-5.03954196 25.5944418,-1.31793586 30.179347,7.22050033 Z"></path>
                            </g>
                            <g id="Turban" transform="translate(31.648352, 17.391304)">
                                <mask id="mask-4" fill="white">
                                    <use xlink:href="#path-3"></use>
                                </mask>
                                <use id="Path" fill="#DB2721" xlink:href="#path-3"></use>
                                <path d="M26.9960499,-0.995483158 C24.4155019,9.88181967 22.4149659,17.4986255 20.9944419,21.8549342 C19.5541152,26.2719719 18.3807836,30.0141051 17.371476,33.0766233 C19.4489709,28.4798307 22.1201969,22.5814173 24.5363401,16.5310037 C26.2689629,12.1922357 28.1121609,6.6362489 30.0659341,-0.136956765 L32.4173848,-0.136956765 C28.712986,10.4111121 25.9265362,17.7771914 24.0580354,21.9612811 C21.0530959,28.6901712 18.8937892,33.8006487 17.1734616,37.231111 C20.0561253,33.0096858 24.4884743,26.1243692 29.2135198,16.865898 C31.0053036,13.3549945 33.114695,7.97929692 35.541694,0.738805235 L37.7302285,1.67423058 C34.0558273,10.8384955 31.2169244,17.2292287 29.2135198,20.8464303 C22.6833131,32.6368958 16.4478132,39.7508017 14.2682831,41.769799 C13.8918962,42.1184632 13.7655794,42.2001732 13.8549752,42.022868 C13.8255895,42.0174698 13.8030971,41.9989788 13.7886464,41.966949 C13.6362514,42.1993921 13.4835201,42.4027106 13.3306931,42.5773479 C11.1327994,45.0889089 16.7567788,31.0882114 20.9020088,16.4044519 C22.1712167,11.9085029 23.4230482,6.19045488 24.6575032,-0.749691989 L26.9960499,-0.995483158 Z" id="Shade" fill-opacity="0.2" fill="#000000" mask="url(#mask-4)"></path>
                            </g>
                        </g>
                        <g id="Bottom/Standing/Sprint" transform="translate(0.000000, 147.826087)">
                            <path d="M164.098439,-7.66891733 C148.980729,4.65821828 154.778503,112.79559 153.76966,114.156592 C153.321285,114.761482 129.357423,119.900243 81.8780745,129.572876 L83.931095,137.943081 C139.473384,135.208547 168.862297,131.779943 172.097833,127.657269 C176.730196,121.754782 182.444929,88.7358718 189.242034,28.6005393 L164.098439,-7.66891733 Z" id="Leg" fill="#B28B67" transform="translate(135.560054, 65.137082) rotate(-55.000000) translate(-135.560054, -65.137082) "></path>
                            <path d="M89.8863942,120.767392 L93.5020452,134.248341 C134.907372,139.021014 162.199485,133.145835 171.802981,124.008183 C178.205312,117.916415 183.934834,84.9872568 188.991547,25.2207072 L162.094126,-13.1927915 C126.106501,13.9593202 147.601012,102.901347 146.681891,104.935866 C145.76277,106.970385 123.928366,108.570417 89.8863942,120.767392 Z" id="Pant" fill="#2F3676" transform="translate(139.438971, 61.377331) rotate(-55.000000) translate(-139.438971, -61.377331) "></path>
                            <g id="Accessories/Shoe/Flat-Sneaker" transform="translate(176.743317, 148.046736) rotate(20.000000) translate(-176.743317, -148.046736) translate(152.611449, 132.236459)" fill="#E4E4E4">
                                <path d="M2.11825265,20.0824631 C1.23355674,22.4423746 0.791208791,24.2082126 0.791208791,25.3799769 C0.791208791,26.8054996 1.02889915,28.8856918 1.50427987,31.6205534 C3.15944005,31.6205534 18.0346433,31.6205534 46.1298895,31.6205534 C47.2895509,27.7901243 46.6201271,25.7221989 44.1216181,25.4167772 C41.623109,25.1113555 39.5475552,24.8355841 37.8949564,24.5894631 L17.1537788,15.3510644 C16.7542128,15.1730923 16.2860256,15.3527297 16.1080536,15.7522957 C16.1050773,15.7589777 16.1021938,15.7657006 16.0994038,15.7724625 L14.7664983,19.002921 L14.7664983,19.002921 C12.4535324,20.0811479 10.5740075,20.6202614 9.12792354,20.6202614 C7.95316471,20.6202614 6.33087,20.1462914 4.26103939,19.1983513 L4.26105073,19.1983265 C3.46566334,18.8340554 2.52557433,19.1835442 2.16130318,19.9789316 C2.1457357,20.0129232 2.13137653,20.0474553 2.11825265,20.0824631 Z" id="shoe"></path>
                            </g>
                            <polygon id="Leg" fill="#997659" points="102.857143 0 61.9152825 98.2030902 21.6758062 181.225525 31.1696011 181.225525 135.038522 0"></polygon>
                            <g id="Accessories/Shoe/Flat-Sneaker" transform="translate(18.989011, 157.312253)" fill="#E4E4E4">
                                <path d="M2.11825265,20.0824631 C1.23355674,22.4423746 0.791208791,24.2082126 0.791208791,25.3799769 C0.791208791,26.8054996 1.02889915,28.8856918 1.50427987,31.6205534 C3.15944005,31.6205534 18.0346433,31.6205534 46.1298895,31.6205534 C47.2895509,27.7901243 46.6201271,25.7221989 44.1216181,25.4167772 C41.623109,25.1113555 39.5475552,24.8355841 37.8949564,24.5894631 L17.1537788,15.3510644 C16.7542128,15.1730923 16.2860256,15.3527297 16.1080536,15.7522957 C16.1050773,15.7589777 16.1021938,15.7657006 16.0994038,15.7724625 L14.7664983,19.002921 L14.7664983,19.002921 C12.4535324,20.0811479 10.5740075,20.6202614 9.12792354,20.6202614 C7.95316471,20.6202614 6.33087,20.1462914 4.26103939,19.1983513 L4.26105073,19.1983265 C3.46566334,18.8340554 2.52557433,19.1835442 2.16130318,19.9789316 C2.1457357,20.0129232 2.13137653,20.0474553 2.11825265,20.0824631 Z" id="shoe"></path>
                            </g>
                            <path d="M25.309621,163.978568 L46.4049383,167.931138 C62.7157784,143.972233 130.97731,45.7326791 138.461538,2.24677545e-14 L91.4986073,2.24677545e-14 C66.5049604,33.0600964 40.8572203,139.623337 25.309621,163.978568 Z" id="Pant" fill="#5C63AB"></path>
                        </g>
                        <g id="Body/Jacket-2" transform="translate(17.406593, 64.822134)">
                            <path d="M40.7538062,64.8221344 L56.967033,68.0362408 C40.6618674,98.3960939 31.9176999,114.486834 30.7345307,116.30846 C28.0724,120.40712 30.5562218,127.918765 31.4737353,131.87445 C25.7177705,133.213138 27.9877462,124.557316 20.703684,126.364573 C14.0551299,128.014153 8.41795768,132.247564 2.21845324,126.538134 C1.4562606,125.836193 0.898299549,123.642125 3.49700036,122.516798 C9.97131177,119.713197 19.5365616,114.463512 21.0875676,112.425373 C23.2026415,109.646005 29.7580544,93.7782592 40.7538062,64.8221344 Z M201.115913,40.5179197 C198.566691,44.2380538 196.052748,48.2656238 197.07135,49.5694042 C198.089952,50.8731846 201.04062,49.4341661 202.206339,51.5543688 C202.983484,52.9678372 198.009721,54.6586407 187.285048,56.6267793 L165.813579,73.074535 L156.659341,61.3573815 L185.328449,48.7780031 C190.350608,43.777883 195.200218,39.9775606 199.87728,37.3770357 C201.275811,36.9321813 203.665135,36.7977855 201.115913,40.5179197 Z" id="Skin" fill="#915B3C"></path>
                            <path d="M97.5434734,7.81114635 L104.256931,6.04685131 C120.36083,19.1358806 129.443013,53.1722507 139.736528,56.8821423 C149.468629,60.3896946 162.361863,55.0435376 177.628332,48.0123047 L183.397701,58.3647485 C170.431584,75.0968227 141.067859,90.8434518 128.048561,84.4596306 C107.23341,74.2532276 98.9393316,32.0200771 97.5434734,7.81114635 Z" id="Coat-Back" fill="#1F28CF" transform="translate(140.470587, 45.979344) rotate(5.000000) translate(-140.470587, -45.979344) "></path>
                            <path d="M71.2087912,90.1185771 C98.6413893,90.1185771 118.820233,90.1185771 131.745324,90.1185771 C134.511534,90.1185771 133.990295,86.1277764 133.590422,84.1139965 C128.97541,60.8725425 110.960153,35.8193798 110.960153,2.73575518 L93.4985671,0 C79.0555925,23.2082267 74.0609615,51.7822529 71.2087912,90.1185771 Z" id="Shirt" fill="#DDE3E9"></path>
                            <path d="M99.2859413,-7.80130415e-14 C114.961785,53.3888915 119.283338,88.962014 112.250599,106.719368 L112.250599,106.719368 L57.7582418,106.719368 C58.6203884,93.7256974 61.3848142,79.9843966 65.1711902,66.5863994 C52.8304354,88.8278138 42.4571455,104.840509 34.051605,114.624506 L21.3626374,112.14136 C29.5362931,61.4946025 53.2061094,24.1141493 92.3720862,-1.56172742e-13 Z" id="Coat-Front" fill="#2B44FF"></path>
                        </g>
                    </g>
                </g>
            </g>
            <text id="Title" font-family="PingFangSC-Semibold, PingFang SC" font-size="24" font-weight="500" line-spacing="30" fill="#191847">
                <tspan x="28.272" y="249">这是我大学上铺的同学</tspan>
            </text>
        </g>
        <g id="Column" transform="translate(450.000000, 354.000000)">
            <text id="Text" font-family="PingFangSC-Regular, PingFang SC" font-size="16" font-weight="normal" line-spacing="24" fill="#191847">
                <tspan x="22" y="284">以前总是无话不谈，我觉得她应该喜</tspan>
                <tspan x="22" y="308">欢我，只是她不好意思说，现在她在</tspan>
                <tspan x="78" y="332">另外一个城市里打拼</tspan>
            </text>
            <g id="Human" transform="translate(40.000000, 0.000000)">
                <ellipse id="Background" fill="#DDAAC4" cx="108.813187" cy="123.786561" rx="79.9120879" ry="79.8418972"></ellipse>
                <mask id="mask-6" fill="white">
                    <use xlink:href="#path-5"></use>
                </mask>
                <g id="Mask"></g>
                <g id="A-Human/Standing" mask="url(#mask-6)">
                    <g transform="translate(-10.659341, -6.648221)">
                        <g id="Head/Front/Afro" transform="translate(64.879121, 0.000000)">
                            <path d="M48.2637363,61.4283469 C57.3064124,61.4283469 60.5951188,50.611924 65.7325335,44.6761646 C69.4082483,40.4292506 75.6815574,41.6956081 77.5384615,35.7500207 C82.2078138,20.7993073 69.7103277,10.2766798 53.4065934,10.2766798 C37.1028591,10.2766798 26.1098901,19.5053379 23.7362637,33.3784792 C21.3626374,47.2516206 31.960002,61.4283469 48.2637363,61.4283469 Z" id="Hair-Back" fill="#191847"></path>
                            <g id="Head" stroke-width="1" transform="translate(42.725275, 24.505929)" fill="#B28B67">
                                <path d="M30.179347,7.22050033 C34.7642522,15.7589365 34.2194463,37.417388 28.2938648,38.9434447 C25.9308473,39.5520093 20.8970263,38.0613553 15.7736674,34.9761129 L18.989011,57.7075099 L0,57.7075099 L6.53698954,27.2646946 C2.89127758,22.9890439 0.423806279,17.7492057 0.836130726,11.8778292 C2.02417336,-5.03954196 25.5944418,-1.31793586 30.179347,7.22050033 Z"></path>
                            </g>
                            <path d="M74.0438193,31.7743295 C70.4121891,32.455472 63.0979993,35.9196652 57.266577,40.8888324 C56.5775429,40.5233345 55.7870208,40.3162055 54.9468146,40.3162055 C52.2565389,40.3162055 50.0756396,42.4397561 50.0756396,45.0592885 C50.0756396,46.1285225 50.4389966,47.1151215 51.0520371,47.9084012 C49.8977658,49.8089152 49.1100053,51.8060293 48.8517933,53.8591088 C44.8512805,53.8591088 30.2507448,38.7351779 44.7957021,24.5059289 C59.3406593,10.2766798 80.3599231,30.5896915 74.0438193,31.7743295 Z" id="Hair" fill="#191847"></path>
                        </g>
                        <g id="Bottom/Standing/Shorts" transform="translate(0.000000, 147.826087)">
                            <polygon id="Leg" fill="#997659" points="101.274725 7.86371407e-14 131.048575 97.252309 145.47177 179.959133 156.780551 179.959133 141.540111 7.86371407e-14"></polygon>
                            <path d="M90.6232568,0 C92.6455688,53.3967448 90.2655808,80.9397527 89.8129632,85.7910791 C89.3603456,90.6424055 83.1625289,122.098666 68.4899504,181.587723 L80.5403016,177.452727 C103.728944,122.892457 111.630806,94.5365219 114.290368,87.3721068 C116.94993,80.2076916 124.013594,51.083656 135.48136,0 L90.6232568,0 Z" id="Leg" fill="#B28B67"></path>
                            <g id="Accessories/Shoe/Flat-Sneaker" transform="translate(66.461538, 157.312253)" fill="#E4E4E4">
                                <path d="M2.11825265,20.0824631 C1.23355674,22.4423746 0.791208791,24.2082126 0.791208791,25.3799769 C0.791208791,26.8054996 1.02889915,28.8856918 1.50427987,31.6205534 C3.15944005,31.6205534 18.0346433,31.6205534 46.1298895,31.6205534 C47.2895509,27.7901243 46.6201271,25.7221989 44.1216181,25.4167772 C41.623109,25.1113555 39.5475552,24.8355841 37.8949564,24.5894631 L17.1537788,15.3510644 C16.7542128,15.1730923 16.2860256,15.3527297 16.1080536,15.7522957 C16.1050773,15.7589777 16.1021938,15.7657006 16.0994038,15.7724625 L14.7664983,19.002921 L14.7664983,19.002921 C12.4535324,20.0811479 10.5740075,20.6202614 9.12792354,20.6202614 C7.95316471,20.6202614 6.33087,20.1462914 4.26103939,19.1983513 L4.26105073,19.1983265 C3.46566334,18.8340554 2.52557433,19.1835442 2.16130318,19.9789316 C2.1457357,20.0129232 2.13137653,20.0474553 2.11825265,20.0824631 Z" id="shoe"></path>
                            </g>
                            <g id="Accessories/Shoe/Flat-Sneaker" transform="translate(140.835165, 157.312253)" fill="#E4E4E4">
                                <path d="M2.11825265,20.0824631 C1.23355674,22.4423746 0.791208791,24.2082126 0.791208791,25.3799769 C0.791208791,26.8054996 1.02889915,28.8856918 1.50427987,31.6205534 C3.15944005,31.6205534 18.0346433,31.6205534 46.1298895,31.6205534 C47.2895509,27.7901243 46.6201271,25.7221989 44.1216181,25.4167772 C41.623109,25.1113555 39.5475552,24.8355841 37.8949564,24.5894631 L17.1537788,15.3510644 C16.7542128,15.1730923 16.2860256,15.3527297 16.1080536,15.7522957 C16.1050773,15.7589777 16.1021938,15.7657006 16.0994038,15.7724625 L14.7664983,19.002921 L14.7664983,19.002921 C12.4535324,20.0811479 10.5740075,20.6202614 9.12792354,20.6202614 C7.95316471,20.6202614 6.33087,20.1462914 4.26103939,19.1983513 L4.26105073,19.1983265 C3.46566334,18.8340554 2.52557433,19.1835442 2.16130318,19.9789316 C2.1457357,20.0129232 2.13137653,20.0474553 2.11825265,20.0824631 Z" id="shoe"></path>
                            </g>
                            <polygon id="Bottom" fill="#69A1AC" points="97.3186813 0 109.978022 49.5490278 148.644647 49.5490278 142.879296 0"></polygon>
                            <path d="M90.1978022,-2.80846931e-15 C86.0324354,12.47474 85.2412266,28.9910826 87.8241758,49.5490278 L127.28201,49.5490278 L138.132043,-2.80846931e-15 L90.1978022,-2.80846931e-15 Z" id="Bottom" fill="#89C5CC"></path>
                        </g>
                        <g id="Body/Jacket-2" transform="translate(17.406593, 64.822134)">
                            <path d="M40.7538062,64.8221344 L56.967033,68.0362408 C40.6618674,98.3960939 31.9176999,114.486834 30.7345307,116.30846 C28.0724,120.40712 30.5562218,127.918765 31.4737353,131.87445 C25.7177705,133.213138 27.9877462,124.557316 20.703684,126.364573 C14.0551299,128.014153 8.41795768,132.247564 2.21845324,126.538134 C1.4562606,125.836193 0.898299549,123.642125 3.49700036,122.516798 C9.97131177,119.713197 19.5365616,114.463512 21.0875676,112.425373 C23.2026415,109.646005 29.7580544,93.7782592 40.7538062,64.8221344 Z M201.115913,40.5179197 C198.566691,44.2380538 196.052748,48.2656238 197.07135,49.5694042 C198.089952,50.8731846 201.04062,49.4341661 202.206339,51.5543688 C202.983484,52.9678372 198.009721,54.6586407 187.285048,56.6267793 L165.813579,73.074535 L156.659341,61.3573815 L185.328449,48.7780031 C190.350608,43.777883 195.200218,39.9775606 199.87728,37.3770357 C201.275811,36.9321813 203.665135,36.7977855 201.115913,40.5179197 Z" id="Skin" fill="#B28B67"></path>
                            <path d="M97.5434734,7.81114635 L104.256931,6.04685131 C120.36083,19.1358806 129.443013,53.1722507 139.736528,56.8821423 C149.468629,60.3896946 162.361863,55.0435376 177.628332,48.0123047 L183.397701,58.3647485 C170.431584,75.0968227 141.067859,90.8434518 128.048561,84.4596306 C107.23341,74.2532276 98.9393316,32.0200771 97.5434734,7.81114635 Z" id="Coat-Back" fill="#DB2721" transform="translate(140.470587, 45.979344) rotate(5.000000) translate(-140.470587, -45.979344) "></path>
                            <path d="M71.2087912,90.1185771 C98.6413893,90.1185771 118.820233,90.1185771 131.745324,90.1185771 C134.511534,90.1185771 133.990295,86.1277764 133.590422,84.1139965 C128.97541,60.8725425 110.960153,35.8193798 110.960153,2.73575518 L93.4985671,0 C79.0555925,23.2082267 74.0609615,51.7822529 71.2087912,90.1185771 Z" id="Shirt" fill="#DDE3E9"></path>
                            <path d="M99.2859413,-7.80130415e-14 C114.961785,53.3888915 119.283338,88.962014 112.250599,106.719368 L112.250599,106.719368 L57.7582418,106.719368 C58.6203884,93.7256974 61.3848142,79.9843966 65.1711902,66.5863994 C52.8304354,88.8278138 42.4571455,104.840509 34.051605,114.624506 L21.3626374,112.14136 C29.5362931,61.4946025 53.2061094,24.1141493 92.3720862,-1.56172742e-13 Z" id="Coat-Front" fill="#FF4133"></path>
                        </g>
                    </g>
                </g>
            </g>
            <text id="Title" font-family="PingFangSC-Semibold, PingFang SC" font-size="24" font-weight="500" line-spacing="30" fill="#191847">
                <tspan x="52.272" y="255">这是我高中的同桌</tspan>
            </text>
        </g>
        <g id="Column" transform="translate(770.000000, 354.000000)">
            <text id="Text" font-family="PingFangSC-Regular, PingFang SC" font-size="16" font-weight="normal" line-spacing="24" fill="#191847">
                <tspan x="17.36" y="284">嗯，前女友，现在已经怀孕</tspan>
                <tspan x="209.36" y="284" font-family="AvenirNext-Regular, Avenir Next">7</tspan>
                <tspan x="218.64" y="284">个月了，</tspan>
                <tspan x="38" y="308">她的孩子，将来会喊我叔叔吧…</tspan>
            </text>
            <g id="Human" transform="translate(40.000000, 0.000000)">
                <ellipse id="Background" fill="#D9D0AA" cx="108.813187" cy="123.786561" rx="79.9120879" ry="79.8418972"></ellipse>
                <mask id="mask-8" fill="white">
                    <use xlink:href="#path-7"></use>
                </mask>
                <g id="Mask"></g>
                <g id="A-Human/Standing" mask="url(#mask-8)">
                    <g transform="translate(-10.659341, -6.648221)">
                        <g id="Head/Front/Pony" transform="translate(64.879121, 0.000000)">
                            <g id="Head" stroke-width="1" transform="translate(42.725275, 24.505929)" fill="#57331F">
                                <path d="M30.179347,7.22050033 C34.7642522,15.7589365 34.2194463,37.417388 28.2938648,38.9434447 C25.9308473,39.5520093 20.8970263,38.0613553 15.7736674,34.9761129 L18.989011,57.7075099 L0,57.7075099 L6.53698954,27.2646946 C2.89127758,22.9890439 0.423806279,17.7492057 0.836130726,11.8778292 C2.02417336,-5.03954196 25.5944418,-1.31793586 30.179347,7.22050033 Z"></path>
                            </g>
                            <path d="M67.2527473,15.8102767 C71.6224727,15.8102767 75.1648352,19.3495277 75.1648352,23.715415 C75.1648352,27.9373979 71.8521446,31.38634 67.6820464,31.609115 C65.2964833,32.3445084 62.2306188,32.8846693 58.8305419,33.1123928 C59.1612937,34.3523072 59.3406593,35.7610584 59.3406593,37.3530136 C59.3406593,38.7588628 59.1853318,40.2498549 58.8993243,41.7637468 C58.1625834,40.8877782 57.1765885,40.3162055 56.1758242,40.3162055 C53.3768708,40.3162055 51.4285714,42.6167187 51.4285714,45.0592885 C51.4285714,48.1593381 53.2198333,50.4019846 55.8347096,50.5812954 C53.4800169,55.0970707 50.2232411,58.4980237 46.9695863,58.4980237 C40.7896795,58.4980237 36.3956044,50.2429087 36.3956044,41.367248 C36.3956044,41.0555191 36.4017842,40.7458632 36.4139774,40.4385192 C29.8770003,44.9198057 24.8387953,53.7549407 16.1887217,53.7549407 C4.42066483,53.7549407 -0.252921165,30.0395257 16.1887217,30.0395257 C27.3708068,30.0395257 32.8709442,31.6685156 37.6111446,34.0773683 C38.5452179,31.4441016 39.9706238,29.2302458 41.7136186,27.6841493 C42.1355335,27.2094831 42.7842998,26.7551829 43.6219522,26.3343453 C44.1207225,26.0623201 44.6359234,25.8409088 45.1651874,25.6733146 C48.0233316,24.6221942 52.169343,23.8799158 56.8013562,23.7183044 C57.6653699,23.6881589 58.5139271,23.6793462 59.3417192,23.6904751 C59.3541921,19.3360227 62.8913667,15.8102767 67.2527473,15.8102767 Z" id="hair" fill="#FF9B21"></path>
                        </g>
                        <g id="Bottom/Standing/Skinny-Jeans-Walk" transform="translate(0.000000, 147.826087)">
                            <polygon id="Leg" fill="#1F28CF" points="101.274725 0 139.317341 100.574632 165.982414 174.703557 181.186813 174.703557 144.533028 7.75839647e-14"></polygon>
                            <path d="M91.8724969,0 C91.4589721,34.5092402 91.7579336,80.9703308 90.7944296,83.1214612 C90.1520936,84.5555482 70.172998,100.895102 30.8571429,132.140124 L38.6940503,145.454545 C85.3710177,115.380076 109.902699,98.3393986 112.289093,94.3325119 C115.868685,88.3221818 133.852273,33.0143375 143.208791,0 L91.8724969,0 Z" id="Leg" fill="#2B44FF"></path>
                            <g id="Accessories/Shoe/Flat-Pointy" transform="translate(44.703297, 149.407115) rotate(50.000000) translate(-44.703297, -149.407115) translate(20.571429, 133.596838)" fill="#191847">
                                <path d="M0,31.6205534 L0.791208791,15.0197628 L17.4065934,15.0197628 C25.2851367,20.5533597 35.5708509,25.0329381 48.2637363,28.458498 L48.2637363,31.6205534 L18.1978022,31.6205534 L7.91208791,30.0395257 L7.91208791,31.6205534 L0,31.6205534 Z" id="Shoe"></path>
                            </g>
                            <g id="Accessories/Shoe/Flat-Pointy" transform="translate(164.571429, 157.312253)" fill="#191847">
                                <path d="M0,31.6205534 L0.791208791,15.0197628 L17.4065934,15.0197628 C25.2851367,20.5533597 35.5708509,25.0329381 48.2637363,28.458498 L48.2637363,31.6205534 L18.1978022,31.6205534 L7.91208791,30.0395257 L7.91208791,31.6205534 L0,31.6205534 Z" id="Shoe"></path>
                            </g>
                        </g>
                        <g id="Body/Pregnant" transform="translate(17.406593, 64.822134)">
                            <path d="M89.4944248,-1.34869793e-13 L111.640731,3.42132983 C111.640731,15.8646388 121.550024,27.5070684 127.818736,37.5241405 C137.56351,53.0957783 154.903372,70.3555012 143.785756,93.489077 C133.768215,114.333614 107.674698,117.718638 65.5052067,103.64415 C65.5052067,92.4169655 74.7412365,81.1301538 75.0355666,67.478694 C75.3157561,54.4830977 77.7478339,15.1086881 87.8979607,1.80783498 C88.0822525,1.20827031 88.2699976,0.605000959 88.4604896,7.23875416e-15 L88.4604896,7.23875416e-15 L89.1622067,0.33 L89.4944248,-1.34869793e-13 Z" id="Shirt" fill="#FF4133"></path>
                            <path d="M115.408094,87.5788312 C116.889133,79.9422364 117.849918,74.8439539 118.290449,72.2839837 C130.088934,85.6048301 136.905006,92.3425119 138.738663,92.497029 C142.187211,92.7876284 144.735408,89.7322137 145.460975,90.5911832 C146.660212,94.1485006 143.273058,103.053048 136.798584,104.347826 C133.706892,104.966109 128.922678,98.59612 126.9515,96.3390895 C126.176202,95.4513607 122.3284,92.5312746 115.408094,87.5788312 L115.408094,87.5788312 Z M135.788226,46.8634945 C138.846686,46.8634945 140.489547,48.1268087 142.297937,50.6756056 C144.106326,53.2244024 145.817558,65.2450887 142.914145,65.2450887 C140.010732,65.2450887 127.846221,60.5982775 127.846221,57.4743164 C127.846221,54.3503552 136.146576,53.0273866 136.146576,50.6756056 C136.146576,48.3238246 132.729765,46.8634945 135.788226,46.8634945 Z" id="Skin" fill="#57331F"></path>
                            <path d="M109.233048,99.1992748 L109.150093,99.4982081 C108.995235,100.051968 108.83784,100.614489 108.677907,101.185771 C74.0250706,76.9878019 74.0095154,47.6633494 84.3161142,14.7942515 C76.5473854,47.1531772 79.7111967,74.4443092 109.233048,99.1992748 Z" id="Shade" fill-opacity="0.2" fill="#000000"></path>
                        </g>
                    </g>
                </g>
            </g>
            <text id="Title" font-family="PingFangSC-Semibold, PingFang SC" font-size="24" font-weight="500" line-spacing="30" fill="#191847">
                <tspan x="76.272" y="255">这是我女朋友</tspan>
            </text>
        </g>
        <text id="Title" font-family="PingFangSC-Semibold, PingFang SC" font-size="60" font-weight="500" line-spacing="61" fill="#191847">
            <tspan x="374.68" y="131.88">我的几个好基友</tspan>
        </text>
    </g>
</svg>