<?xml version="1.0" encoding="UTF-8"?>
<svg width="1200px" height="888px" viewBox="0 0 1200 888" version="1.1" xmlns="http://www.w3.org/2000/svg" xmlns:xlink="http://www.w3.org/1999/xlink">
    <!-- Generator: Sketch 63.1 (92452) - https://sketch.com -->
    <title>Web—Hero</title>
    <desc>Created with Sketch.</desc>
    <defs>
        <rect id="path-1" x="0.32627893" y="1.30749262" width="298" height="536" rx="36.4499981"></rect>
        <filter x="-24.2%" y="-7.5%" width="141.6%" height="123.1%" filterUnits="objectBoundingBox" id="filter-2">
            <feOffset dx="-10" dy="22" in="SourceAlpha" result="shadowOffsetOuter1"></feOffset>
            <feGaussianBlur stdDeviation="17" in="shadowOffsetOuter1" result="shadowBlurOuter1"></feGaussianBlur>
            <feColorMatrix values="0 0 0 0 0   0 0 0 0 0   0 0 0 0 0  0 0 0 0.1 0" type="matrix" in="shadowBlurOuter1"></feColorMatrix>
        </filter>
        <rect id="path-3" x="0" y="0" width="378" height="524"></rect>
    </defs>
    <g id="Web—Hero" stroke="none" stroke-width="1" fill="none" fill-rule="evenodd">
        <rect fill="#FFFFFF" x="0" y="0" width="1200" height="888"></rect>
        <g id="Background" opacity="0.2" transform="translate(655.000000, 40.000000)">
            <circle id="Oval" fill="#FF4133" cx="230" cy="293" r="230"></circle>
            <circle id="Oval" fill="#2B44FF" cx="370" cy="768" r="41"></circle>
            <polygon id="Polygon" fill="#2B44FF" points="192 0 241 49 192 98 143 49"></polygon>
            <polygon id="Polygon" fill="#FF9B21" points="56 690 80 714 56 738 32 714"></polygon>
            <polygon id="Polygon" fill="#2026A2" points="403 63 415 75 403 87 391 75"></polygon>
        </g>
        <g id="Group" transform="translate(730.500000, 346.000000) rotate(-2.000000) translate(-730.500000, -346.000000) translate(530.000000, 77.000000)">
            <g id="base">
                <use fill="black" fill-opacity="1" filter="url(#filter-2)" xlink:href="#path-1"></use>
                <use fill="#F2F2F2" fill-rule="evenodd" xlink:href="#path-1"></use>
            </g>
            <path d="M76.2814688,17.0165477 C76.2814688,24.6215083 82.4465075,30.786547 90.0514681,30.786547 L90.0514681,30.786547 L208.490136,30.786547 C216.095097,30.786547 222.260136,24.6215083 222.260136,17.0165477 L222.260136,17.0165477 L222.260136,12.290652 L260.061484,12.290652 C273.482003,12.290652 284.361483,23.1701321 284.361483,36.5906508 L284.361483,499.990653 C284.361483,513.411172 273.482003,524.290652 260.061484,524.290652 L37.6614817,524.290652 C24.240963,524.290652 13.361483,513.411172 13.361483,499.990653 L13.361483,36.5906508 C13.361483,23.1701321 24.240963,12.290652 37.6614817,12.290652 L76.2814688,12.290652 Z" id="Screen" fill="#1F28CF"></path>
            <g id="Illustration" transform="translate(22.602606, 0.476744)">
                <mask id="mask-4" fill="white">
                    <use xlink:href="#path-3"></use>
                </mask>
                <g id="Mask"></g>
                <g id="Group-2" mask="url(#mask-4)">
                    <g transform="translate(93.985883, 295.815682) rotate(14.000000) translate(-93.985883, -295.815682) translate(-210.514117, -93.184318)">
                        <g id="Head/Front/Short-Beard" transform="translate(392.113316, 142.697599) rotate(32.000000) translate(-392.113316, -142.697599) translate(258.613316, 58.197599)">
                            <g id="Head" stroke-width="1" transform="translate(106.014706, 50.375000)" fill="#B28B67">
                                <path d="M74.884354,14.842641 C86.260931,32.3944639 84.9090979,76.9161182 70.2058858,80.0531186 C64.3422879,81.3041451 51.8511068,78.2396478 39.1379741,71.8970712 L47.1176471,118.625 L0,118.625 L16.220176,56.0458617 C7.17410106,47.2567502 1.05160019,36.4856533 2.0747006,24.4163626 C5.02260418,-10.3594084 63.5077771,-2.70918189 74.884354,14.842641 Z"></path>
                            </g>
                            <path d="M155.35485,48.1334283 C168.575085,49.072016 180.380122,52.408709 183.725764,54.3902887 C183.725764,64.7500282 181.300598,67.8237325 160.586376,67.5527969 C155.496422,69.7777798 151.583553,73.6092399 147.507962,78.6324063 C149.311317,99.4262035 154.082403,109.825127 161.821223,109.825127 C173.429453,109.825127 183.278212,103.725447 188.371624,103.725447 C192.084549,103.725447 191.255567,107.571328 188.794446,110.422776 C186.763943,112.775312 176.875558,115.042876 176.875558,118.690097 C176.875558,122.337318 184.688202,119.515664 184.688202,121.678759 C184.688202,125.256783 186.061262,131.984108 178.558653,131.984108 C170.965762,131.984108 149.1956,129.693823 145.464784,120.366142 C143.057117,114.346561 141.500354,101.873112 140.794496,82.9457954 C140.333547,82.8982915 139.864913,82.875 139.389706,82.875 C132.884116,82.875 127.610294,87.2402237 127.610294,92.625 C127.610294,95.3586047 128.969426,97.8294575 131.158871,99.5998477 C128.433275,102.784201 125.378664,106.110685 121.878405,109.543184 C108.728693,103.013095 98.9708584,83.8970784 111.826837,65.5334523 C115.38027,56.5373974 123.424744,51.7322663 132.925463,49.5010898 C140.621534,46.836433 148.610785,46.5359906 155.35485,48.1334283 Z" id="Hair" fill="#191847"></path>
                        </g>
                        <g id="Bottom/Standing/Skinny-Jeans" transform="translate(0.647573, 352.503330)">
                            <polygon id="Leg" fill="#191847" points="128 9.9475983e-14 164.254962 127.226909 190.706957 221 210 221 181.890974 9.9475983e-14"></polygon>
                            <path d="M118.304342,0 C117.465768,65.5742244 114.606247,101.340188 113.725779,107.297892 C112.845311,113.255595 99.5321718,151.156298 73.7863613,221 L93.7726468,221 C126.549033,153.996902 144.845651,116.096199 148.662499,107.297892 C152.479348,98.4995844 164.258515,62.7336205 182,0 L118.304342,0 Z" id="Leg" fill="#2F3676"></path>
                            <g id="Accessories/Shoe/Flat-Pointy" transform="translate(72.000000, 199.000000)" fill="#191847">
                                <path d="M0,40 L1,19 L22,19 C31.9576033,26 44.9576033,31.6666667 61,36 L61,40 L23,40 L10,38 L10,40 L0,40 Z" id="Shoe"></path>
                            </g>
                            <g id="Accessories/Shoe/Flat-Pointy" transform="translate(188.000000, 199.000000)" fill="#191847">
                                <path d="M0,40 L1,19 L22,19 C31.9576033,26 44.9576033,31.6666667 61,36 L61,40 L23,40 L10,38 L10,40 L0,40 Z" id="Shoe"></path>
                            </g>
                        </g>
                        <g id="Body/Pointing-Up" transform="translate(315.235838, 362.995360) rotate(21.000000) translate(-315.235838, -362.995360) translate(117.735838, 221.995360)">
                            <path d="M290.242999,104.307012 L339.461034,139.6303 C352.809979,143.150743 363.962591,147.530769 372.91887,152.770377 C375.034498,154.654507 377.591434,158.470182 368.817411,157.810738 C360.043387,157.151294 350.784086,156.84332 349.573441,159.768221 C348.362797,162.693123 353.67236,166.190984 351.22512,170.137441 C349.593627,172.768413 341.885796,166.171349 328.101628,150.346249 L279.362862,130.593275 L290.242999,104.307012 Z M386.418474,-25.6016546 C380.599274,-19.1499814 374.775229,-12.108006 376.436709,-9.40279158 C378.098188,-6.6975772 384.151817,-8.73687521 385.903852,-4.45165206 C387.071876,-1.59483663 377.042441,0.451274389 355.815547,1.68668101 L310.342814,27.8419361 L295.410999,3.53001068 L353.895342,-13.6288876 C364.805644,-21.929709 375.096562,-27.9988799 384.768096,-31.8364004 C387.580917,-32.35385 392.237673,-32.0533278 386.418474,-25.6016546 Z" id="Skin" fill="#B28B67"></path>
                            <path d="M196.377004,23.8956501 C234.908003,64.1384677 282.035613,90.2740074 346.383047,113.328211 L331.900978,141.4808 C265.405015,135.708356 229.864469,130.998506 202.214793,90.6315717 C195.275285,80.5002898 182.964272,45.574857 175.572921,27.4436876 L196.377004,23.8956501 Z" id="Coat-Back" fill="#2026A2" transform="translate(260.977984, 82.688225) rotate(15.000000) translate(-260.977984, -82.688225) "></path>
                            <path d="M138.867188,171.914439 L257.675781,171.914439 C230.763646,91.6958153 217.015905,36.6387393 216.432559,6.74321036 C216.40282,5.21910741 213.522772,2.53342274 212.248575,2.88513705 C202.930515,5.45718592 192.959454,4.49547357 182.335395,0 C154.169557,44.2731055 144.429322,98.7822624 138.867188,171.914439 Z" id="Shirt" fill="#F2F2F2"></path>
                            <path d="M345.505691,-13.5721925 L351.796875,17.1514516 C303.635145,47.4251135 254.867348,70.8763896 212.13482,67.5452462 C230.693047,145.337417 229.837928,209.020762 188.870905,209.020762 L188.870905,209.020762 L125.522246,209.020762 C115.461017,142.93622 141.903896,51.3083395 166.418368,5.09197641 C167.354502,3.32711271 169.347625,-5.59552404e-13 174.042247,-5.59552404e-13 L174.042247,-5.59552404e-13 L192.449498,-5.59552404e-13 C192.457654,0.0240011865 192.465809,0.0480023526 192.473963,0.0720034969 C226.527884,0.343816579 281.782031,6.42248805 345.505691,-13.5721925 Z" id="Coat-Front" fill="#1F28CF"></path>
                        </g>
                    </g>
                </g>
            </g>
        </g>
        <g id="Group" transform="translate(982.000000, 584.000000) scale(-1, 1) translate(-982.000000, -584.000000) translate(797.000000, 319.000000)">
            <g id="Head/Front/Airy" transform="translate(119.500000, 91.000000) rotate(-27.000000) translate(-119.500000, -91.000000) translate(48.000000, 26.000000)">
                <g id="Head" stroke-width="1" transform="translate(56.779412, 38.750000)" fill="#B28B67">
                    <path d="M40.1066016,11.4174161 C46.1996746,24.9188184 45.4756592,59.1662448 37.6009051,61.579322 C34.4605394,62.5416307 27.7707116,60.1844392 20.9619469,55.3057333 L25.2352941,91.25 L0,91.25 L8.68668468,43.1114677 C3.84207162,36.350747 0.563236401,28.0655513 1.11116923,18.7818174 C2.69000898,-7.96877572 34.0135285,-2.08398607 40.1066016,11.4174161 Z"></path>
                </g>
                <path d="M82.5025357,34.6065709 C79.176597,33.9581723 70.2213603,33.5123802 68.5698547,33.512668 C67.5144647,33.512668 66.3707434,33.7993103 65.7456667,32.647273 C65.2337797,31.7038861 65.4213027,30.1083591 65.268533,29.0135928 C65.0911463,27.7418335 64.8391849,26.4864784 64.5843274,25.234289 C63.8590937,21.6711181 62.7624341,18.2811989 61.2279796,15.098491 C58.3487655,9.12735223 54.1308255,4.45013286 48.8058483,1.72847008 C42.9255423,-1.27666927 36.2714928,-1.96478344 29.9463929,-1.35523689 C23.1777058,-0.703096898 17.0505066,1.95323677 10.6597615,4.4530108 C4.56972906,6.83507729 -1.80894884,7.7727084 -8.17845574,6.60944722 C-14.5959898,5.43755223 -19.44504,1.30253575 -24.8581072,-2.62210371 C-30.3995685,-6.63998826 -36.7323914,-9.26783038 -43.2833877,-8.66375189 C-49.3985198,-8.09967671 -55.0345873,-5.09799088 -60.0911919,-1.08816455 C-64.8222257,2.66351104 -68.725938,7.17726372 -70.9298762,13.5300166 C-73.3008233,20.3636724 -73.2986512,27.8647213 -69.3997658,33.9040671 C-63.7484937,42.6581687 -53.257101,44.9219521 -44.5287142,44.6968976 C-39.4800739,44.5671027 -34.5216956,43.471473 -29.7551845,41.4785033 C-23.3984687,38.8204428 -17.9052759,34.315324 -11.9583594,30.6600592 C-9.16747663,28.9448101 -6.2827117,27.5360611 -3.25893359,26.5213014 C-0.324693486,25.5361844 2.56538097,25.0843486 5.22207739,27.1915724 C8.03250888,29.4208205 10.5509161,31.610641 13.7660787,33.0061515 C16.8504338,34.3449667 20.1174849,35.0938053 23.4036022,35.063587 C29.7972433,35.0048771 36.0998984,32.6366247 42.3096367,31.0503071 C47.3734815,29.7569633 52.7916169,28.4679364 57.9541708,29.7112041 C60.1083925,30.2300957 63.2550139,31.301263 64.0331015,33.962777 C50.9376251,36.7843041 45.7943907,56.0376868 49.4862044,70.1715116 C51.4787267,77.8000529 63.456052,86.7177371 68.1129937,82.7072977 C71.0633003,80.166569 69.2721609,76.8310523 68.1129937,74.6291445 C65.8931269,70.4123947 65.1336226,64.9958339 69.2412691,62.0600528 C72.7844159,59.5280459 76.5097907,65.5408903 76.5802627,65.5342711 C77.554079,65.4430406 85.9686982,59.7856821 91.7662177,51.5301613 C97.4854922,51.933207 98.3531889,47.4500307 96.9875382,43.783635 C95.6218874,40.1172393 87.0979351,35.5030476 82.5025357,34.6065709 Z" id="hair" fill="#DB2721"></path>
            </g>
            <g id="Bottom/Standing/Baggy-Pants" transform="translate(0.000000, 233.000000)">
                <polygon id="Leg" fill="#997659" points="165.266667 0 225.800689 154.374025 266.401108 284.884251 282.433333 284.884251 220.364215 6.3257011e-13"></polygon>
                <path d="M153.077175,0 C152.432574,54.2480924 143.031927,127.284344 141.530021,130.665894 C140.52875,132.92026 105.963261,161.588461 37.833554,216.670495 L48.8758546,228.576589 C129.262597,181.350655 171.31592,154.5883 175.035823,148.289525 C180.615677,138.841361 198.78176,51.8981242 213.366667,0 L153.077175,0 Z" id="Leg" fill="#B28B67"></path>
                <g id="Accessories/Shoe/Flat-Sneaker" transform="translate(63.516667, 234.866109) rotate(50.000000) translate(-63.516667, -234.866109) translate(25.900000, 210.012552)" fill="#E4E4E4">
                    <path d="M3.48708827,31.0765784 C1.98458498,35.0341901 1.23333333,37.9743323 1.23333333,39.8970052 C1.23333333,42.1379089 1.60384419,45.4079449 2.34486589,49.707113 C4.92492344,49.707113 28.1123351,49.707113 71.9071009,49.707113 C73.7147768,43.6857266 72.6712815,40.4349738 68.7766148,39.9548547 C64.8819482,39.4747356 61.6465825,39.0412265 59.0705177,38.6543273 L26.523379,24.0347165 C26.0195847,23.8084208 25.4277298,24.0333779 25.2014342,24.5371722 C25.1968162,24.547453 25.1923723,24.5578112 25.1881045,24.5682423 L23.0179628,29.8723533 L23.0179628,29.8723533 C19.4125202,31.5673125 16.4827237,32.4147921 14.2285734,32.4147921 C12.3168168,32.4147921 9.64472306,31.6027305 6.21229206,29.9786073 L6.21229457,29.978602 C5.21385183,29.5061689 4.02147136,29.932584 3.54903825,30.9310267 C3.5264769,30.978708 3.50581074,31.0272632 3.48708827,31.0765784 Z" id="shoe"></path>
                </g>
                <g id="Accessories/Shoe/Flat-Sneaker" transform="translate(256.533333, 247.292887)" fill="#E4E4E4">
                    <path d="M3.48708827,31.0765784 C1.98458498,35.0341901 1.23333333,37.9743323 1.23333333,39.8970052 C1.23333333,42.1379089 1.60384419,45.4079449 2.34486589,49.707113 C4.92492344,49.707113 28.1123351,49.707113 71.9071009,49.707113 C73.7147768,43.6857266 72.6712815,40.4349738 68.7766148,39.9548547 C64.8819482,39.4747356 61.6465825,39.0412265 59.0705177,38.6543273 L26.523379,24.0347165 C26.0195847,23.8084208 25.4277298,24.0333779 25.2014342,24.5371722 C25.1968162,24.547453 25.1923723,24.5578112 25.1881045,24.5682423 L23.0179628,29.8723533 L23.0179628,29.8723533 C19.4125202,31.5673125 16.4827237,32.4147921 14.2285734,32.4147921 C12.3168168,32.4147921 9.64472306,31.6027305 6.21229206,29.9786073 L6.21229457,29.978602 C5.21385183,29.5061689 4.02147136,29.932584 3.54903825,30.9310267 C3.5264769,30.978708 3.50581074,31.0272632 3.48708827,31.0765784 Z" id="shoe"></path>
                </g>
                <polygon id="Pant" fill="#69A1AC" points="205.966667 271.441707 282.192173 263.106369 225.7 3.5319028e-14 157.42769 3.5319028e-14"></polygon>
                <path d="M53.600615,197.462102 L103.6,257.092595 C156.263275,199.139073 186.966102,161.324389 195.708481,143.648544 C204.450859,125.972699 212.309813,78.0898509 219.285341,0 L142.423047,0 C138.612659,68.7000445 136.044193,104.648541 134.717647,107.845491 C133.391102,111.04244 106.352091,140.914644 53.600615,197.462102 Z" id="Pant" fill="#89C5CC"></path>
            </g>
            <g id="Body/Hoodie" transform="translate(173.000000, 212.500000) rotate(-14.000000) translate(-173.000000, -212.500000) translate(45.000000, 119.000000)">
                <path d="M68.3079281,93.0198914 L89.2053198,93.1020711 C76.3021447,134.755739 69.3363474,156.856914 68.3079281,159.405597 C65.9939846,165.140133 70.8906002,173.873732 72.9845874,178.567103 C66.1645409,181.61887 66.8912241,170.316929 58.2879189,174.319492 C50.4352209,177.972846 44.4616931,184.59248 35.3890352,178.994371 C34.2736052,178.306117 33.0512757,175.714714 36.0045784,173.68967 C43.3623323,168.644547 53.9653015,159.814672 55.3979297,156.908251 C57.3515741,152.944826 61.6549068,131.648706 68.3079281,93.0198914 L68.3079281,93.0198914 Z M190.781205,92.2114854 L222.679476,115.635084 C231.330944,117.969562 238.558965,120.874047 244.363541,124.34854 C245.734683,125.597945 247.391836,128.128197 241.70538,127.690906 C236.018925,127.253615 230.01796,127.049392 229.233339,128.988954 C228.448719,130.928516 231.889854,133.24802 230.303794,135.864997 C229.246421,137.609648 224.250967,133.234999 215.31743,122.74105 L183.729774,109.642447 L190.781205,92.2114854 Z" id="Skin" fill="#B28B67"></path>
                <path d="M122.731734,9.58031077 L131.216685,7.34914009 C165.5935,32.1628362 183.361709,84.0563407 224.996623,108.72736 L216.58973,121.240539 C147.889238,118.771641 125.383314,55.5469019 122.731734,9.58031077 Z" id="Coat-Back" fill="#E87613" transform="translate(173.864178, 64.294840) rotate(5.000000) translate(-173.864178, -64.294840) "></path>
                <path d="M90,114 C124.671756,114 150.175573,114 166.511451,114 C170.007634,114 169.348845,108.951637 168.84345,106.404206 C163.010588,77.0037663 140.241304,45.3115155 140.241304,3.4607303 L118.1718,0 C99.917485,29.3584068 93.6048263,65.5045499 90,114 Z" id="Shirt" fill="#DDE3E9"></path>
                <path d="M116.510031,-7.10542736e-15 C117.255457,-6.66133815e-15 117.93832,0.0466286213 118.558619,0.139885864 L125.471587,0.534739944 C145.293986,67.7151944 150.760885,112.536948 141.872285,135 L141.872285,135 L81.6511486,135.001552 C78.0833907,143.320741 74.6693386,150.320224 71.4089926,156 L71.4089926,156 L55,156 C53.4556773,106.066899 65.3273884,63.686084 90.6151334,28.8575562 C87.4099906,27.9369844 84.8714148,25.7879767 83,22.4111902 C74.933557,7.85607578 77.8467271,-0.157592785 86.4671964,-2.7917309 C95.0876658,-5.42586901 102.775319,-2.04281037e-14 116.510031,-7.10542736e-15 Z" id="Coat-Front" fill="#FF9B21"></path>
                <path d="M104,135 L81.6515228,135.000679 C85.8135041,125.295819 90.1846546,113.79505 94.7649742,100.498371 C96.6589721,116.343356 99.7372842,127.844605 104,135 Z" id="Shade" fill-opacity="0.1" fill="#000000"></path>
            </g>
        </g>
        <text id="但是无处不在-的云计算-让我有些顾虑" font-family="PingFangSC-Semibold, PingFang SC" font-size="60" font-weight="500" fill="#191847">
            <tspan x="106" y="319">但是无处不在</tspan>
            <tspan x="106" y="403">的云计算</tspan>
            <tspan x="106" y="487">让我有些顾虑</tspan>
        </text>
    </g>
</svg>