<?xml version="1.0" encoding="UTF-8"?>
<svg width="1200px" height="888px" viewBox="0 0 1200 888" version="1.1" xmlns="http://www.w3.org/2000/svg" xmlns:xlink="http://www.w3.org/1999/xlink">
    <!-- Generator: Sketch 63.1 (92452) - https://sketch.com -->
    <title>Web—Section Left 2</title>
    <desc>Created with Sketch.</desc>
    <g id="Web—Section-Left-2" stroke="none" stroke-width="1" fill="none" fill-rule="evenodd">
        <rect fill="#FFFFFF" x="0" y="0" width="1200" height="888"></rect>
        <g id="Plant" transform="translate(1129.000000, 413.000000)">
            <path d="M9.93785602,35.7363701 C28.6043474,67.0518486 50.3448762,97.3738414 63.400835,131.612719 C62.8747124,127.576998 62.316848,123.545457 61.6924335,119.519653 C58.3796628,98.1788894 54.2624276,76.9938487 49.9359142,55.8347788 C47.7325965,45.061608 45.4023236,34.3274793 43.0122847,23.5942683 C41.7268475,17.8294571 40.457171,12.0611334 39.145247,6.30181171 C38.8274703,4.90590411 38.5544351,2.4694293 38.1565942,0 C50.8449133,41.636678 63.0807311,83.3047517 72.0307975,125.94239 C73.204927,131.538126 74.2047864,137.123918 75.0238081,142.699993 C75.3039851,141.427955 75.5795646,140.155702 75.8811982,138.88715 C79.5025613,123.679846 84.9347228,108.59358 91.4026624,94.3744557 C94.494721,87.5745292 98.0463864,80.9235176 102.228151,74.7261293 C104.835821,70.8630236 110.985519,66.2708832 113.364361,62.3144999 C100.354578,86.1759773 95.6569872,116.031633 88.1451337,141.973334 C86.3116359,148.30385 84.4667482,154.62409 82.659084,160.955464 C93.9872772,138.237255 111.563216,119.571486 136,111.482566 C106.420215,131.026943 88.6779699,165.254031 76.7221336,200.259757 C76.682738,200.674905 76.6358989,201.090058 76.5954089,201.505863 C80.1135643,194.828835 84.5452103,188.789483 90.5514934,184.559607 C103.406592,175.504479 117.667098,178.142392 130.137007,185.909854 C120.350227,179.688703 102.662664,185.353659 94.4280037,191.676694 C88.5328799,196.203004 83.4948291,202.275393 79.119821,208.199601 C78.071517,209.619676 76.6413193,211.276578 75.1303997,213.044484 C73.0120284,226.795282 69.5599117,240.451838 64.6724606,254 C65.4790179,250.11126 64.8958605,243.891877 65.11953,240.993318 C65.1438759,240.679499 65.1636243,240.365464 65.1877517,240.052521 C64.4448288,243.018848 63.7270637,245.951459 63.0359813,248.836783 C64.4097546,243.330925 65.1563919,237.583268 65.7392402,231.776207 C65.8893549,229.280566 66.0357479,226.784927 66.1904602,224.289502 C66.141426,219.553405 65.9463583,214.798592 65.6164284,210.036217 C64.4465561,205.407706 63.1367171,201.041891 62.0564998,197.41118 C58.158506,184.310429 52.4441742,171.759576 45.4108456,160.050843 C38.9937018,149.366014 31.3123836,139.687606 22.4447835,130.934599 C17.6643455,126.217405 12.6613846,121.724669 7.7288832,117.169517 C5.94526254,115.52278 2.75721952,111.473853 0,109.363232 C20.0804874,120.433766 40.7488532,132.410494 55.3976085,150.247606 C53.6802099,143.652644 51.8148695,137.151008 49.841671,130.779652 C39.8311473,98.4544622 27.1913357,64.9525261 9.93785602,35.7363701 Z" id="Fill-19" fill="#15F268"></path>
            <path d="M30,213 C30,248.898509 32.8428117,278 71,278 C109.157188,278 112,248.898509 112,213" id="Base" fill="#C5CFD6"></path>
        </g>
        <g id="Content" transform="translate(668.000000, 240.000000)" fill="#191847" font-family="PingFangSC-Semibold, PingFang SC" font-size="60" font-weight="500" line-spacing="61">
            <text id="Title">
                <tspan x="0" y="64">我想设计一个只</tspan>
                <tspan x="0" y="125">有我们几个人用</tspan>
                <tspan x="0" y="186">的</tspan>
            </text>
        </g>
        <g id="Corner-Plants" transform="translate(935.000000, -52.000000)">
            <path d="M190.716721,208.509825 C196.732884,203.629717 203.575049,199.731348 210.203409,195.767033 C220.849848,189.399597 231.320791,185.132113 243.762039,185.475982 C263.995419,186.03457 282.238166,192.867025 298.855611,203.725859 C307.517545,209.385906 315.872319,216.025501 322.435261,224.066306 C325.355801,227.645545 328.032972,231.41639 330.622971,235.241171 C332.223721,237.603675 333.743345,240.01779 335.240967,242.447172 C336.142111,243.909943 338.071444,245.985264 338.149189,247.775917 C338.242593,249.92745 335.904828,251.57084 333.973036,250.525994 C332.327503,249.636721 331.316737,246.893715 330.321113,245.34757 C328.030726,241.788833 325.562113,238.361762 323.010213,234.989346 C319.025239,229.724921 314.71619,224.976299 309.711786,220.691073 C299.569479,212.006954 287.63067,204.935594 275.284552,199.808971 C273.771119,211.822758 266.891392,220.726241 256.513245,226.751522 C241.738986,235.329139 226.924012,239.696171 209.90779,238.442301 C198.856593,237.628349 189.880757,232.670711 181.912725,225.332208 C180.405905,223.944575 178.498943,221.795618 179.106196,219.49771 C179.690365,217.285629 182.560269,215.535778 184.182391,214.074147 C186.310916,212.157219 188.492472,210.31406 190.716721,208.509825 Z" id="Fill-16" fill="#CCA537" transform="translate(258.571167, 218.152724) rotate(-30.000000) translate(-258.571167, -218.152724) "></path>
            <path d="M210.239311,238.454697 C207.933396,219.994942 205.491281,201.641045 201.007892,183.542046 C198.365243,172.876538 194.975618,162.436202 191.896814,151.892357 C192.172456,153.215071 192.416247,154.546332 192.627678,155.881131 C191.556052,152.736551 189.314835,149.729827 188.026974,146.596466 C186.590493,143.101929 185.436099,139.471837 184.339724,135.863241 C182.199203,128.820392 180.179903,121.765408 177.770183,114.803481 C175.084861,107.047022 171.991624,99.419718 169.109531,91.7315885 C166.663467,85.2066725 164.373316,78.3558875 161.186886,72.1298028 C159.450371,68.7362609 157.893843,65.0909944 156.189231,61.6317769 C155.618634,60.4741965 150.725374,47.5411267 150.762353,47.5410936 C151.573328,47.5403663 154.609702,53.2885155 155.112785,54.1329555 C156.583061,56.59916 157.831884,59.1657874 159.094057,61.7374142 C159.642759,58.6820844 160.509835,55.6906127 161.873912,52.8811036 C162.294816,52.0137857 165.249652,45.6178256 166.210085,45.6169643 C166.689788,45.6165341 162.246057,57.6935424 161.684767,58.753918 C161.228944,59.6152538 160.375387,60.7074623 160.077703,61.6237796 C159.596671,63.1035222 159.844045,62.7334726 160.238832,64.0676055 C160.962352,66.5129315 162.566229,68.9068547 163.574884,71.2547074 C164.128446,72.5080173 165.491746,76.8525218 166.820222,78.7976869 C170.239419,85.4780802 172.66605,93.6251445 175.267124,100.829944 C175.831157,97.2885122 176.803901,93.8734979 178.149959,90.5403328 C178.469102,89.7487755 181.009802,82.4045635 181.739628,82.403909 C182.560875,82.4031725 179.405537,94.1648221 178.977309,95.1809797 C178.182101,97.0684159 176.932926,98.8956235 176.271224,100.816515 C175.545154,102.924884 176.815638,104.820991 177.624162,106.976092 C180.598487,114.904677 183.205003,122.912769 185.585951,131.028805 C199.461176,124.952288 202.235243,107.102352 203.15203,93.9400709 C203.812311,84.4537468 202.350037,74.795437 200.052238,65.5959016 C196.985777,53.3181642 191.818823,41.4667605 186.335608,30.0571285 C179.946556,16.7625882 171.154632,4.89138372 160.550435,-5.5119135 C155.004336,-10.95313 148.68667,-15.6675293 142.269612,-20.0846743 C139.134996,-22.2426998 135.914279,-24.0333259 132.253902,-25.2322341 C130.603677,-25.7719656 128.909661,-26.1623236 127.197074,-26.4609596 C125.895815,-26.687803 123.241584,-27.8901192 122.162234,-27.5819636 C113.348721,-25.1406129 106.721695,-21.0871101 101.579959,-13.5581572 C96.7123337,-6.43134978 93.6872823,2.08642238 92.0023595,10.4411304 C90.1265524,19.7446329 89.6676997,29.1235364 91.2622364,38.4835602 C92.4787023,45.6249563 94.5817684,52.6252433 96.6879778,59.5568738 C104.178769,84.2108542 117.32373,110.637744 140.940787,124.144343 C148.585389,128.51679 157.069821,131.06891 165.780804,132.418136 C167.833378,132.736011 169.883911,133.038353 171.961319,133.153251 C173.361836,133.231172 177.967097,132.298464 178.979889,132.900405 C180.368435,133.725509 181.162359,138.412791 181.766367,140.112054 C186.355592,153.027356 190.458307,166.089421 194.179825,179.26859 C198.138896,193.290433 201.281221,207.449313 203.89645,221.766519 C205.008572,227.856155 206.091942,233.935793 207.01349,240.058674 C207.228436,241.48317 207.000994,245.964404 208.392748,247.221472 C209.272857,248.016464 210.518118,247.689117 211.042865,246.714466 C211.955514,245.019856 210.47541,240.344716 210.239311,238.454697" id="Leaf" fill="#E7B152" transform="translate(150.814803, 110.017783) rotate(-67.000000) translate(-150.814803, -110.017783) "></path>
            <path d="M220.394433,147.476088 C219.922124,146.931322 209.707061,142.352383 210.29945,141.401994 C210.553826,140.993889 214.458471,142.853685 214.982679,143.131145 C217.056072,144.22956 218.822069,145.769267 220.394433,147.476088 Z M238.907439,136.075002 C238.894574,136.147024 240.248581,138.450214 240.617133,139.158384 C241.401733,140.663839 242.126107,142.198898 242.807554,143.73655 C241.798647,141.020448 240.762086,138.501368 238.907439,136.075002 Z M144.226035,154.822575 C142.922063,155.243592 141.354279,153.584258 143.045667,153.175544 C144.414236,152.84748 144.347119,152.770135 144.961631,151.665001 C145.460629,150.767593 145.768047,149.673068 146.205926,148.731335 C147.13473,146.733855 148.188296,144.828929 149.481541,143.043954 C152.253167,139.217458 155.630143,135.920201 159.417671,133.141635 C166.027613,128.293037 173.43898,123.861475 181.300802,121.635079 C193.801209,118.095011 208.028379,117.875945 220.548345,120.330756 C228.302281,121.850701 235.388555,124.493115 240.537314,130.752038 C243.110756,133.879751 245.130705,137.544197 246.013748,141.579177 C246.244222,142.633953 246.201123,143.806731 246.489584,144.839306 C246.933017,146.426947 246.737381,146.004334 248.589641,146.313237 C250.612194,146.650318 252.632943,146.99463 254.653253,147.344705 C259.9429,148.262 265.263515,149.235854 270.417703,150.724617 C272.114136,151.214134 273.773257,151.812658 275.393909,152.508315 C276.619719,153.033737 281.500732,154.68395 282.093722,156.280276 C283.081113,158.936524 279.77312,157.732427 278.745223,157.154013 C277.844837,156.647117 276.920437,156.174412 275.98255,155.739243 C273.621033,154.643585 271.1606,153.796242 268.644675,153.121764 C265.925849,152.392642 263.151302,151.848319 260.387538,151.303319 C257.810035,150.795571 255.223027,150.333427 252.63262,149.891914 C251.193631,149.646347 249.753371,149.407879 248.31311,149.169411 C247.82109,149.087866 246.953343,148.660869 247.019005,149.302122 C243.99102,148.717018 240.716444,148.801447 237.632097,148.639952 C233.854277,148.442576 230.062507,148.280588 226.272069,148.399057 C223.538306,148.484584 220.802149,148.664295 218.08226,149.032562 C216.492942,149.247889 214.928998,149.562719 213.369646,149.961247 C212.513135,150.180427 209.135519,150.644824 208.668898,151.39344 C208.869414,151.071745 212.597081,151.383554 213.071524,151.365371 C214.969322,151.294049 216.852248,151.10565 218.743016,150.89383 C222.251778,150.500902 225.762045,150.295643 229.281552,150.32563 C229.268187,150.944783 226.864003,152.048231 226.277102,152.458598 C224.961207,153.379369 223.700883,154.383722 222.525103,155.485163 C220.453692,157.425061 217.973567,159.828421 216.540805,162.127049 C216.963075,161.449587 219.04603,160.568061 219.785273,160.050608 C220.969512,159.221083 222.129538,158.336444 223.227309,157.390511 C224.240673,156.517116 225.186297,155.573881 226.11609,154.61051 C227.045976,153.646269 228.307907,151.641947 229.529772,150.999957 C229.603515,150.961151 230.136121,151.383044 230.438662,151.239526 C230.74354,151.09515 231.123597,150.372664 231.20102,150.34313 C232.33838,149.903208 234.498437,150.450445 235.694127,150.505979 C238.794948,150.648995 241.892766,150.83658 244.991484,151.007542 C245.951467,151.060342 246.767158,150.841603 247.129788,151.55137 C247.516074,152.308471 246.808166,154.298477 246.606789,155.123138 C245.859681,158.185712 244.532658,160.931924 242.443832,163.3045 C238.532022,167.748906 233.708387,170.711718 228.259097,172.693627 C207.387043,180.284806 185.181894,183.324975 164.316138,175.42844 C155.677786,172.158872 142.668338,166.31694 144.226035,154.822575 Z" id="Leave-the-Leaf!" fill="#E6AB31" transform="translate(212.291430, 149.382142) rotate(-30.000000) translate(-212.291430, -149.382142) "></path>
        </g>
        <g id="Corner-Plants" transform="translate(43.500000, 833.500000) scale(-1, 1) translate(-43.500000, -833.500000) translate(-19.000000, 735.000000)">
            <path d="M25.396962,26 C22.5654715,26 19.7426136,26.0568738 16.9146777,26.2040472 C14.7590684,26.3167971 11.4649725,25.8697889 9.64095635,27.2138067 C7.74584828,28.6097093 7.87635277,31.4673685 8.17239993,33.4853907 C9.73743827,44.157211 13.5571068,53.6202136 21.5478411,61.1809371 C33.8513174,72.8231043 47.9559588,78.7384787 64.6463157,81.3726338 C76.3703927,83.2230279 87.1936331,80.6537289 95.824195,72.3137345 C102.13005,84.0212567 106.91403,96.9770092 109.314399,110.052995 C110.498588,116.505178 110.860141,122.879534 110.651943,129.449456 C110.517884,133.657619 110.285819,137.855803 109.834893,142.04401 C109.639391,143.863972 108.711641,146.618859 109.424084,148.338543 C110.259922,150.358062 113.078717,150.553628 114.344154,148.83145 C115.39733,147.39813 115.203859,144.583376 115.420181,142.887139 C115.778688,140.069392 116.110789,137.249648 116.348439,134.418929 C116.734366,129.837096 117.01975,125.242291 117,120.642997 C116.950689,110.309426 114.653912,99.9354448 111.512156,90.1262105 C105.485082,71.3074673 95.7058777,54.5825782 80.4967721,41.4601954 C71.1451349,33.3910999 60.4422429,30.1233507 48.2992313,28.3692429 C40.739111,27.2771661 33.0555954,26 25.396962,26" id="Fill-16" fill="#D91483"></path>
            <path d="M121.225393,1.3341544 C120.69196,0.946240028 119.426405,0.808691352 118.837645,0.692486436 C116.390395,0.210049702 113.869376,0 111.374455,0 C103.681258,0.0115188546 95.8631417,0.766681412 88.297649,2.07373262 C83.4943162,2.90342894 77.6874473,5.69573482 72.9091681,4.17931149 C64.5847599,1.53708951 56.1716202,1.66684602 48.2738193,5.43893212 C41.0531616,8.88815149 35.5716416,15.4389919 32.3727834,22.517328 C31.8901535,23.5858712 29.9321447,27.5185437 29.3778337,30.1695742 C29.1408684,30.7116379 28.9132981,31.2574284 28.7079977,31.8113498 C28.1255014,33.3840122 27.6032034,34.9844554 27.1177898,36.5879477 C26.9104016,37.2719644 26.3887995,38.7822895 27.0081802,39.0743264 C26.0185628,40.9007424 25.1413387,42.7830588 24.4106086,44.7263573 C22.2855757,50.3780494 19.9622018,56.5775648 19.2154652,62.5677079 C18.9388317,64.785765 18.9283927,67.0166962 19.1851921,69.2391575 C19.3122,70.3375142 19.259657,72.5464239 20.0043058,73.3815409 C21.5847707,75.1537506 22.3962291,72.6727926 22.2180702,71.4910936 C20.8575202,62.4847044 23.4846691,54.0271548 26.5982754,45.5611355 C28.611611,40.0866304 31.9197307,35.0783002 35.6255764,30.5425818 C38.6247017,26.8711163 41.8420021,23.9798838 45.9532291,21.5456788 C50.9806525,18.5690712 56.3556946,16.162647 61.6813255,13.7487694 C65.1839587,12.1605226 68.6907674,10.6149633 72.2911792,9.24659115 C73.0918507,8.94201908 74.3514902,8.16144728 75.2391534,8.15839818 C77.1164339,8.15162238 79.7766396,9.53693404 81.5898943,10.0522334 C87.5540441,11.7478765 93.5943986,13.9188419 99.7582814,14.7847887 C103.711879,15.3407428 107.415985,14.714998 111.11348,13.3977831 C111.491372,13.2636223 112.124671,12.9177179 112.900637,12.4237623 C115.645747,11.3677543 118.242622,10.0386818 120.50371,8.12147008 C121.806498,7.01667641 122.988541,5.58901602 124.066542,4.2823036 C124.389107,3.89167891 124.531773,3.44379874 124.536645,3.0182787 C124.780917,2.89055493 124.94307,2.7414874 124.979606,2.56734942 C125.248585,1.28130318 122.795767,1.25758789 121.225393,1.3341544" id="Twisted-Leaf" fill="#89C5CC"></path>
            <path d="M69.3647363,100 C38.9133796,100 18.4043563,124.840973 8.70737724,150.658994 C5.05199764,160.390757 4.19525247,171.077018 2.78646019,181.295589 C2.33415061,184.574807 2.50170962,189.571828 1.1866706,192.493171 C0.709426633,193.55258 -0.384693808,193.933497 0.138429411,195.376765 C0.455095992,196.250864 1.07646065,196.786206 2.00950502,196.959751 C3.92496383,197.316646 6.6333358,195.205181 8.27551384,194.371772 C21.896665,187.457421 30.8461114,176.766258 38.1468969,163.685663 C42.6724862,155.578067 47.264401,147.161619 49.9528255,138.260814 C51.5950035,132.823557 52.5509875,127.097059 53.1125097,121.456353 C53.3334282,119.235073 53.5473652,116.960848 53.5343993,114.725842 C53.5214334,112.508484 52.5021161,111.33632 51.7695441,109.406243 C61.9303026,105.513244 73.3991184,104.452364 83.6915303,108.486552 C93.2109766,112.217772 101.118665,119.428228 105.546511,128.486891 C106.696983,130.841515 107.584149,133.325564 108.230448,135.859126 C108.653335,137.51859 108.673781,139.671726 109.457718,141.171862 C111.358714,144.808955 115.358188,142.377363 114.974199,138.991762 C113.903517,129.547281 108.565566,120.065541 101.743022,113.49926 C93.1381682,105.218119 81.4743655,100 69.3647363,100" id="Fill-18" fill="#89C5CC"></path>
        </g>
        <g id="Corner-Plants" transform="translate(1128.500000, 854.000000) scale(-1, 1) translate(-1128.500000, -854.000000) translate(1003.000000, 720.000000)">
            <path d="M144.888685,0.687038818 C141.322692,-0.088908244 137.385287,-0.0295209116 133.752892,0.0344893868 C114.27237,0.298354061 95.1428285,9.48489872 82.6928652,24.163527 C72.0941244,36.6597597 69.1797443,52.1961259 67.0859001,67.9014083 C66.8783034,69.4607703 66.7892813,71.0101751 66.6721661,72.5727376 C66.6469918,72.9080804 66.6094128,73.2071508 66.5692798,73.4887961 C65.7458252,74.2220696 65.313849,75.0769627 65.8012816,76.016136 C63.9872733,79.9701944 62.4527362,84.0245356 61.1360114,88.2061861 C57.2606301,100.514655 53.3184823,113.057118 55.7468891,126 C56.3142228,118.877432 57.50763,111.594127 58.9349028,104.588555 C59.0169929,104.186357 59.1056502,103.78736 59.1979559,103.389785 C59.2074419,103.347822 59.2161981,103.30586 59.2256841,103.264253 C59.7309941,101.118841 60.3877147,99.0377955 61.18636,96.9894659 C61.1947514,96.9670623 61.202778,96.9450143 61.2115342,96.9229663 C61.3169744,96.6534119 61.4289817,96.3852798 61.5395297,96.1171478 C61.7682874,95.5620363 62.0032474,95.0079916 62.2524364,94.4567918 C62.3367155,94.2690282 62.4177111,94.0794866 62.495423,93.8885226 C63.6581833,91.0500215 64.1492644,87.8516402 65.1908963,84.9146344 C65.4400853,84.2467936 65.7005844,83.5814421 65.9734883,82.9196467 C65.9895415,82.8808849 66.0059595,82.8421231 66.0223775,82.8033613 C66.7600937,81.0224526 67.5751569,79.2632362 68.4369203,77.5225117 C68.905381,77.1718775 69.1556645,76.3020487 69.5595477,75.5115215 C69.6430971,75.3557631 70.2961693,74.3170182 70.4906316,73.7185219 C70.9981306,72.7405868 71.5038055,71.7622961 72.014953,70.786139 C71.9996296,70.7918289 71.9843061,70.7975187 71.9689826,70.8032085 C72.480495,69.8658132 72.9934667,68.9323297 73.5024252,68.0027579 C73.6144326,67.7986362 73.7275344,67.5941588 73.8402715,67.3893259 C74.0230587,67.063229 74.205846,66.7374877 74.3882683,66.4124576 C76.0946474,63.3709016 77.9039126,60.3901554 79.7828633,57.4463929 C80.453448,56.3959127 82.0554814,54.8895371 82.3626807,53.7099695 C82.3739909,53.6658735 82.3765448,53.6253337 82.3834769,53.5830157 C86.4606173,47.8793425 91.1543454,42.6184072 96.7831707,38.4499144 C96.1027352,39.1824767 94.6564904,41.6685655 94.2741331,42.1607336 C93.1040759,43.6678205 91.8336864,45.0707129 90.5585539,46.4906747 C88.2749904,49.0343728 86.0454239,51.658795 84.0643168,54.4339971 C80.4414081,59.5093025 77.3157829,64.8506063 74.3612698,70.2993052 C74.3331768,70.3313103 74.3025298,70.3615374 74.2758961,70.3942538 C72.7909779,72.2174804 71.8562456,74.9731238 70.7872504,77.0587927 C75.0176256,75.1071898 79.6953005,73.8358742 84.0369534,72.1029731 C88.3665664,70.3754063 92.5783346,68.4515412 96.6445297,66.1923333 C102.048975,63.1898947 107.65518,59.7998382 112.761548,55.9634876 C118.613293,52.3479726 123.530671,47.3715275 127.87123,42.149354 C133.006785,35.9705821 137.713282,29.7377571 140.624014,22.2353945 C142.053841,18.548757 143.178657,14.7045829 143.845593,10.8156017 C143.874781,10.6459744 143.911995,10.4621226 143.952493,10.2711586 C144.634753,8.92800912 145.244773,7.55463261 145.75665,6.14960656 C146.569525,3.92133695 148.489338,1.47009813 144.888685,0.687038818" id="Fill-10" fill="#69A1AC"></path>
            <path d="M246.868866,90.0960171 C247.655916,92.6912022 246.999334,94.975003 243.894024,94.3312656 C242.963107,94.1383525 242.001428,93.8294853 241.081855,93.569223 C235.970874,92.1229576 230.906362,90.534112 225.769322,89.1800999 C215.886453,86.5755338 205.857471,85.3145403 195.732142,84.1460761 C187.760119,83.2263444 179.729043,82.6719883 171.733191,83.0252567 C161.879858,83.4607267 152.266038,85.376488 142.725624,87.5812404 C132.909114,89.8507643 122.828662,92.6594018 113.366366,96.3296036 C102.604255,100.503737 92.6841042,105.659998 82.8417802,111.622252 C58.5204755,126.355853 36.8996378,144.757381 17.9886352,165.887484 C15.266666,168.92949 12.5559901,171.982087 9.84951587,175.038085 C7.81048632,177.340944 5.88853109,179.743386 3.86352859,182.054691 C2.18678051,183.968733 0.223981395,182.877826 1.5151045,180.635742 C2.99728521,178.060997 5.54040404,175.748054 7.4734544,173.515883 C9.19862901,171.524297 10.9256043,169.534168 12.6516792,167.543311 C14.6759448,165.209614 16.7114559,162.888408 18.7886348,160.602858 C28.4545438,149.968556 38.8247414,139.892073 49.7566652,130.543819 C58.0601423,123.443334 67.0253908,117.22663 76.2253148,111.312687 C86.7981245,104.517046 98.0220114,97.4079025 110.123919,93.3850816 C110.242849,93.2076566 110.395493,93.0260313 110.566291,92.8440804 C108.214489,90.72104 115.430117,83.5728605 116.731785,82.1787128 C120.037449,78.6383831 123.673338,75.3429988 127.399498,72.2446614 C130.456983,69.7022995 133.725867,67.4840661 137.305034,65.7126048 C142.608298,63.0883948 148.361604,61.5258538 154.213954,60.5137801 C164.352769,58.7608172 174.997521,57.8110607 185.340033,58.6704263 C204.215093,60.2385678 222.801257,66.0804189 237.785283,78.2058842 C241.621624,81.3103511 245.423419,85.3294357 246.868866,90.0960171 Z" id="Fill-1" fill="#C1DEE2"></path>
            <path d="M96.9657311,110 C104.809555,110 111.789333,111.020165 119.016554,114.140272 C125.255098,116.833109 130.940449,120.397977 136.460352,124.279103 C144.224731,129.737594 150.340465,136.090605 154.621332,144.508218 C157.178847,149.536941 159.054893,156.652755 157.337371,162.137661 C155.314099,168.597757 149.758847,173.985572 142.442342,172.847256 C137.918041,172.144063 133.770552,169.14639 130.331864,166.325051 C126.218266,162.949725 122.925347,158.891194 120.206393,154.383619 C115.77101,147.03079 113.164662,138.718476 109.396901,131.035111 C107.609046,127.388501 105.88132,123.715834 103.739975,120.250199 C102.679871,118.53398 101.551256,116.83418 99.9430605,115.558795 C99.0826597,114.876662 95.4548366,113.695869 96.842192,112.163836 C76.5012378,112.431192 58.4812887,128.067779 54.5765048,147.422722 C54.2128114,149.226751 53.9285621,151.045415 53.6282782,152.86051 C53.4387787,154.006679 53.5153073,158.233334 52.4916454,158.96544 C50.2340498,160.580642 51.1830052,155.673996 51.2799415,154.967591 C51.5302996,153.141787 51.7974211,151.317412 52.0776617,149.496249 C53.6024042,139.590507 58.0082687,130.381891 65.3557491,123.317477 C73.7578675,115.239324 85.0943134,110 96.9657311,110 Z" id="Fill-20" fill="#89C5CC"></path>
        </g>
        <g id="Corner-Plants" transform="translate(54.000000, 56.000000) scale(1, -1) translate(-54.000000, -56.000000) translate(-58.000000, -128.000000)">
            <path d="M165.452652,0.828808733 C161.150204,-0.10725439 156.39964,-0.0356125283 152.017077,0.0416062444 C128.513403,0.359919185 105.433195,11.4421 90.4120439,29.1496516 C77.6244327,44.224472 74.1081697,62.9667551 71.5819012,81.91281 C71.3314312,83.7939451 71.2240241,85.6630684 71.0827221,87.5480644 C71.0523488,87.952605 71.0070089,88.3133882 70.9585876,88.6531508 C69.9650717,89.5377348 69.443883,90.5690344 70.031981,91.7020054 C67.8433407,96.4719806 65.9918882,101.362932 64.4032311,106.407463 C59.7274994,121.255775 54.9712123,136.386364 57.901138,152 C58.5856383,143.407696 60.0255101,134.621486 61.7475458,126.170321 C61.8465892,125.685129 61.9535562,125.203799 62.0649251,124.724185 C62.0763701,124.673563 62.0869347,124.622942 62.0983797,124.57275 C62.7080473,121.984634 63.5003949,119.474166 64.4639778,117.003165 C64.4741022,116.976139 64.4837865,116.949541 64.4943511,116.922944 C64.6215669,116.597767 64.7567062,116.274306 64.8900847,115.950845 C65.1660859,115.281187 65.4495703,114.612815 65.7502222,113.947876 C65.8519068,113.721367 65.9496297,113.492714 66.0433908,113.262345 C67.4462864,109.838121 68.0387864,105.979756 69.2955379,102.436702 C69.5961898,101.631053 69.9104877,100.828406 70.2397522,100.03005 C70.2591207,99.9832898 70.2789294,99.9365295 70.2987381,99.8897692 C71.1888087,97.7413714 72.1722002,95.6191421 73.2119364,93.5192205 C73.7771444,93.0962332 74.0791169,92.0469159 74.5664108,91.0932641 C74.667215,90.905365 75.4551608,89.652276 75.6897837,88.9302804 C76.3020924,87.7505492 76.9122001,86.5703889 77.5289107,85.3928027 C77.5104226,85.3996666 77.4919345,85.4065304 77.4734464,85.4133943 C78.0905972,84.2825683 78.7095088,83.1564612 79.3235782,82.035073 C79.4587175,81.7888309 79.5951774,81.5421599 79.7311971,81.2950598 C79.9517339,80.901673 80.1722707,80.5087153 80.3923672,80.1166155 C82.4511506,76.4474368 84.6340685,72.851616 86.9010633,69.3004104 C87.7101383,68.0331646 89.6430265,66.2159495 90.0136691,64.7929791 C90.0273151,64.7397839 90.0303965,64.6908787 90.0387601,64.6398285 C94.9579187,57.7592069 100.621004,51.4126817 107.412304,46.3840237 C106.591343,47.2677496 104.846418,50.266841 104.385095,50.8605675 C102.973396,52.6786406 101.440643,54.3710187 99.9021683,56.0839885 C97.1469993,59.1525767 94.4569789,62.3185464 92.06673,65.6664092 C87.6956119,71.7889999 83.9244771,78.2324775 80.3597929,84.805511 C80.3258981,84.8441204 80.2889218,84.8805848 80.2567877,84.9200522 C78.4652016,87.1195002 77.3374267,90.4437684 76.0476608,92.9598134 C81.1517004,90.6054988 86.7954169,89.0718482 92.0337155,86.9813644 C97.2574878,84.8973155 102.339078,82.5764624 107.24503,79.8510687 C113.765612,76.2290793 120.52962,72.1394873 126.690563,67.5115089 C133.750821,63.1499352 139.683745,57.1466046 144.920723,50.8468397 C151.116882,43.3930832 156.795373,35.8741197 160.307234,26.8236506 C162.032351,22.3762783 163.389467,17.738862 164.19414,13.0473925 C164.229355,12.8427628 164.274255,12.6209733 164.323117,12.390604 C165.146278,10.7702967 165.882281,9.11352505 166.499872,7.41857299 C167.480622,4.73050172 169.796918,1.77345172 165.452652,0.828808733" id="Fill-10" fill="#69A1AC"></path>
            <path d="M191.458696,80.2501154 C186.482788,76.882493 179.865789,76 173.91119,76 C150.653641,76 128.792625,84.612243 109.907279,97.4446709 C99.5590489,104.476045 90.3017729,113.43022 82.1289301,122.753083 C77.4115531,128.134658 73.2051825,133.956572 70.227184,140.431513 C68.2176289,144.801804 66.8383306,149.355304 65.9034263,154.052108 C64.7640263,159.776069 63.8589346,165.616123 63.4494773,171.435316 C63.288303,173.726805 61.9541894,185.886252 65.7715988,186.092137 C65.7497052,186.391895 65.7445811,186.677594 65.7678722,186.933816 C57.4790397,199.869186 52.3577952,215.028929 47.6087424,229.401865 C43.4769033,241.90914 39.7950481,254.522079 37.4049166,267.461077 C34.2582906,284.496004 32.1914394,301.787153 31.2085555,319.066965 C30.9975382,322.7806 30.8526676,326.49605 30.7278274,330.214674 C30.6220859,333.386389 30.5149469,336.558103 30.4106028,339.729817 C30.2941474,343.284278 29.6671513,347.376579 30.2335905,350.910179 C30.7264299,353.987567 33.3951228,353.521832 33.5129757,350.459409 C33.6555172,346.761192 33.6322261,343.055719 33.7943321,339.354781 C34.0100076,334.443022 34.2322046,329.531264 34.4730344,324.620866 C36.1495269,290.509745 42.4390524,256.900184 54.0463991,224.678759 C58.7437458,211.639539 64.1263163,199.295974 71.0442353,187.234027 C77.1264701,176.628692 84.4426668,166.361661 91.9209694,156.799355 C99.1896522,147.506876 106.746679,138.429352 115.652725,130.556299 C122.87995,124.167521 130.829664,118.601829 139.001575,113.422964 C149.381016,106.845534 159.740426,100.427733 170.9835,95.378567 C176.8277,92.754216 182.7823,90.4046804 188.67215,87.8864462 C189.731894,87.433409 190.868034,86.9939764 191.887252,86.4692876 C195.287285,84.7192668 194.167915,82.0835785 191.458696,80.2501154" id="Fill-1" fill="#AE8129" transform="translate(112.000000, 214.500000) rotate(13.000000) translate(-112.000000, -214.500000) "></path>
            <path d="M107.416629,184 C116.873201,184 125.288074,185.230676 134.001266,188.994614 C141.522501,192.243116 148.376803,196.543591 155.031639,201.225584 C164.392433,207.810431 171.765607,215.47438 176.926653,225.628962 C180.010012,231.695358 182.271787,240.279515 180.20113,246.896227 C177.761858,254.689358 171.064404,261.188944 162.243572,259.815738 C156.78904,258.967441 151.788796,255.351201 147.643088,251.947681 C142.683704,247.875858 138.713736,242.979853 135.435744,237.542144 C130.088414,228.672064 126.946182,218.644511 122.403741,209.375689 C120.248289,204.976605 118.16533,200.546086 115.583709,196.36532 C114.305639,194.29496 112.944972,192.244408 111.00612,190.705848 C109.968814,189.882957 105.595083,188.458508 107.267689,186.610342 C82.744483,186.932866 61.0194976,205.79605 56.3118609,229.144871 C55.8733895,231.32116 55.5306964,233.515104 55.1686719,235.704742 C54.9402098,237.087423 55.0324733,242.186244 53.7983388,243.069419 C51.0765647,245.017917 52.2206325,239.098789 52.3374996,238.246617 C52.6393331,236.044061 52.9613768,233.843227 53.299237,231.646269 C55.137478,219.696485 60.4492211,208.587678 69.3073985,200.065528 C79.4370552,190.320454 93.1043591,184 107.416629,184 Z" id="Fill-20" fill="#89C5CC"></path>
        </g>
        <g id="Background" transform="translate(166.000000, 216.000000)">
            <path d="M114.772015,46.529896 C147.071452,-26.265203 352.429396,-12.9419915 415.616455,81.5574066 C478.803515,176.056805 406.589732,386 341.857458,386 C277.125184,386 277.125184,244.253676 250.434098,202.625574 C223.743013,160.997471 82.4725779,119.324995 114.772015,46.529896 Z" id="Weird-Shape" fill-opacity="0.7" fill="#91FFBD"></path>
            <path d="M132.447742,279.010704 C170.253422,287.609853 171.86626,246.496978 171.950127,191.909406 C172.033995,137.321833 179.710832,74.6929753 141.905153,66.0938261 C104.099473,57.4946768 64.230227,110.013451 64.1461873,164.601023 C64.0624919,219.188596 94.6420626,270.411554 132.447742,279.010704 Z" id="Weird-Shape" fill-opacity="0.6" fill="#2B44FF" transform="translate(118.395292, 172.657835) rotate(49.000000) translate(-118.395292, -172.657835) "></path>
            <path d="M402.924435,358 C429.111079,358 458,333.156793 458,301.5 C458,269.843207 429.111079,245 402.924435,245 C376.737791,245 367,281.228371 367,307.192582 C367,333.156793 376.737791,358 402.924435,358 Z" id="Weird-Shape" fill-opacity="0.7" fill="#FF73C6"></path>
        </g>
        <g id="A-Human/Sitting" transform="translate(166.000000, 235.000000)">
            <g id="Head/Front/Short-2" transform="translate(94.026667, 0.000000)">
                <g id="Head" stroke-width="1" transform="translate(61.920000, 40.396601)" fill="#B28B67">
                    <path d="M43.7376981,11.9025755 C50.3824144,25.9776917 49.5928494,61.6803912 41.0051456,64.196007 C37.5803755,65.1992328 30.2845905,62.7417256 22.8591895,57.6554442 L27.52,95.1274788 L0,95.1274788 L9.47320738,44.943485 C4.18994674,37.8954659 0.614227237,29.2581775 1.2117702,19.5799116 C2.93355199,-8.30739225 37.0929818,-2.17254072 43.7376981,11.9025755 Z"></path>
                </g>
                <path d="M69.2794653,91.6188647 C65.8254344,74.1557253 55.9854642,62.2516883 57.4882637,54.4464119 C58.49013,49.2428942 61.1604041,46.0070092 65.499086,44.738757 C67.7430112,34.4224657 74.9801303,30.0345449 87.2104434,31.5749947 C105.555913,33.8856693 116.752967,42.5438215 111.917513,61.5955349 C107.472593,61.5955349 102.106626,59.7687078 94.6866077,62.8986511 C92.3322659,63.8917694 90.6483717,66.9715166 89.634925,72.1378926 L86.2818482,72.1378926 C83.0275459,66.0068168 79.8187831,63.7538137 76.6555596,65.3788834 C73.4923361,67.0039531 72.7732839,70.951254 74.4984032,77.220786 L72.8466738,91.6188647 L69.2794653,91.6188647 Z" id="Hair" fill="#191847"></path>
            </g>
            <g id="Bottom/Sitting/Skinny-Jeans-1" transform="translate(0.000000, 243.682720)">
                <g id="Objects/Seat/Cube" transform="translate(11.466667, 54.730878)" stroke-width="1">
                    <g id="Seat" transform="translate(63.066667, 0.000000)">
                        <polygon id="Seat-Stuff" fill="#C5CFD6" points="31.6739623 0 120.259181 0 131.866667 161.586402 0 161.586402"></polygon>
                        <polygon id="Seat-Stuff" fill-opacity="0.1" fill="#000000" points="31.6739623 0 58.9189453 0 75.2256604 161.586402 0 161.586402"></polygon>
                    </g>
                </g>
                <path d="M295.787065,27.0483963 L296.117367,26.8294696 C305.596471,20.7945196 321.077422,28.9900265 321.066672,38.1010512 C321.034114,65.6808466 298.886329,195.664324 297.729963,203.881266 C296.573598,212.098208 284.186026,214.268613 283.464657,203.908194 C282.316837,187.423019 280.184331,130.354776 282.31799,103.94 C283.198826,93.0352316 284.147446,82.6499563 285.081332,73.3850432 C273.461552,97.2349344 255.487182,131.385136 231.16012,175.834385 L217.95447,168.977905 C228.324457,130.150157 236.82769,102.7388 243.464169,86.7438343 C254.827433,59.3565697 265.482352,35.9030287 269.966663,27.6417091 C277.020712,14.6462334 289.29958,19.1811068 295.787065,27.0483963 Z" id="Skin" fill="#B28B67"></path>
                <path d="M241.81816,158.787777 L242.675818,28.623296 C246.090156,6.25699643 282.868059,18.2929883 283.326075,30.3778269 C284.365913,57.8141516 273.130904,151.951715 273.440706,160.125913 L241.81816,158.787777 Z" id="LegLower" fill="#1F28CF" transform="translate(262.606116, 88.109944) rotate(20.000000) translate(-262.606116, -88.109944) "></path>
                <g id="Accessories/Shoe/Flat-Sneaker" transform="translate(247.106667, 173.314448) rotate(30.000000) translate(-247.106667, -173.314448) translate(212.133333, 147.252125)" fill="#E4E4E4">
                    <path d="M3.67067149,31.3433822 C1.98800161,36.1266 1.14666667,39.624612 1.14666667,41.8374181 C1.14666667,44.1873094 1.49114162,47.6163854 2.18009153,52.1246459 C4.57884774,52.1246459 26.1368737,52.1246459 66.8541695,52.1246459 C68.5348195,45.8104061 67.5646509,42.4015511 63.9436635,41.8980812 C60.3226762,41.3946112 57.3146605,40.9400181 54.9196164,40.5343019 L24.1851181,24.9632846 C23.9880521,24.863445 23.7473626,24.9422627 23.647523,25.1393287 C23.6402326,25.1537188 23.6338193,25.1685367 23.6283183,25.1837013 L21.4004843,31.3252117 L21.4004843,31.3252117 C18.0483971,33.1026062 15.3244782,33.9913035 13.2287277,33.9913035 C11.2771112,33.9913035 8.47323231,32.9646499 4.81709105,30.9113429 L4.81710119,30.9113248 C4.43185769,30.6949702 3.94416602,30.8318816 3.72781136,31.2171251 C3.70514855,31.2574788 3.68603021,31.2997229 3.67067149,31.3433822 Z" id="shoe"></path>
                </g>
                <g id="Accessories/Shoe/Flat-Sneaker" transform="translate(277.493333, 164.192635)" fill="#E4E4E4">
                    <path d="M3.67067149,31.3433822 C1.98800161,36.1266 1.14666667,39.624612 1.14666667,41.8374181 C1.14666667,44.1873094 1.49114162,47.6163854 2.18009153,52.1246459 C4.57884774,52.1246459 26.1368737,52.1246459 66.8541695,52.1246459 C68.5348195,45.8104061 67.5646509,42.4015511 63.9436635,41.8980812 C60.3226762,41.3946112 57.3146605,40.9400181 54.9196164,40.5343019 L24.1851181,24.9632846 C23.9880521,24.863445 23.7473626,24.9422627 23.647523,25.1393287 C23.6402326,25.1537188 23.6338193,25.1685367 23.6283183,25.1837013 L21.4004843,31.3252117 L21.4004843,31.3252117 C18.0483971,33.1026062 15.3244782,33.9913035 13.2287277,33.9913035 C11.2771112,33.9913035 8.47323231,32.9646499 4.81709105,30.9113429 L4.81710119,30.9113248 C4.43185769,30.6949702 3.94416602,30.8318816 3.72781136,31.2171251 C3.70514855,31.2574788 3.68603021,31.2997229 3.67067149,31.3433822 Z" id="shoe"></path>
                </g>
                <path d="M324.243361,47.4764668 C324.243361,82.0963173 309.776128,162.850807 309.766973,170.4738 L278.64,170.500971 C283.196025,98.4445362 284.811557,62.0281889 283.486596,61.2519293 C281.499156,60.0875398 202.01496,70.2705781 178.176357,70.2705781 C143.800973,70.2705781 129.580565,45.635645 128.426667,-5.74070222e-13 L196.523024,-5.74070222e-13 C210.388053,1.6860589 282.70932,18.2635074 309.568004,23.9622377 C321.066667,26.4019617 324.243361,37.9395893 324.243361,47.4764668 Z" id="Leg-and-Butt" fill="#2B44FF"></path>
            </g>
            <g id="Body/Pointing-Up" transform="translate(25.226667, 106.855524)">
                <path d="M215.695861,90.1341008 L252.272545,120.65777 C262.192894,123.699867 270.481026,127.484748 277.13694,132.012415 C278.709182,133.640535 280.609385,136.937748 274.088915,136.367907 C267.568446,135.798066 260.68734,135.531939 259.787642,138.059414 C258.887944,140.586888 262.833778,143.609471 261.015097,147.019696 C259.802642,149.29318 254.074521,143.592504 243.830732,129.91767 L207.61022,112.848668 L215.695861,90.1341008 Z M287.169253,-22.1229816 C282.844679,-16.5479416 278.516505,-10.4628079 279.751243,-8.12516958 C280.985982,-5.7875313 285.484773,-7.54973585 286.786809,-3.84677546 C287.654833,-1.37813521 280.201397,0.389956633 264.426501,1.45750005 L230.633161,24.0588607 L219.536492,3.05036384 L262.999488,-11.7770369 C271.107546,-18.9499685 278.755305,-24.1944794 285.942765,-27.5105696 C288.03313,-27.9577098 291.493827,-27.6980216 287.169253,-22.1229816 Z" id="Skin" fill="#B28B67"></path>
                <path d="M143.625239,19.0719991 C173.789026,54.6858953 209.98447,78.483658 259.023282,100.164493 L248.994875,123.825705 C198.864591,116.873425 172.021989,111.766891 150.029144,76.3758188 C144.509386,67.4933773 134.204416,37.2242065 128.103276,21.4800378 L143.625239,19.0719991 Z" id="Coat-Back" fill="#2026A2" transform="translate(193.563279, 71.448852) rotate(15.000000) translate(-193.563279, -71.448852) "></path>
                <path d="M103.2,148.555241 L191.493333,148.555241 C171.493415,79.2364739 161.276697,31.6603816 160.843181,5.82696397 C160.821079,4.50995137 158.680754,2.18918916 157.733827,2.49311363 C150.809054,4.71568052 143.398999,3.88464264 135.503664,0 C114.572049,38.257414 107.333534,85.3600367 103.2,148.555241 Z" id="Shirt" fill="#F2F2F2"></path>
                <path d="M256.764668,-11.7280453 L261.44,14.8209659 C225.648394,40.9810798 189.406388,61.2458382 157.649497,58.3674277 C171.440946,125.589742 170.805374,180.619673 140.360568,180.619673 L140.360568,180.619673 L93.2826254,180.619673 C85.8055614,123.514492 105.456749,44.3367223 123.674829,4.40009453 C124.370522,2.87503501 125.851724,-4.67181849e-13 129.340561,-4.67181849e-13 L129.340561,-4.67181849e-13 L143.020022,-4.67181849e-13 C143.025965,0.0203359173 143.031907,0.0406718177 143.037849,0.0610077 C168.345951,0.29714695 209.408253,5.54974295 256.764668,-11.7280453 Z" id="Coat-Front" fill="#1F28CF"></path>
            </g>
        </g>
        <text id="社交网站" font-family="PingFangSC-Semibold, PingFang SC" font-size="60" font-weight="500" fill="#F32B0D">
            <tspan x="785" y="426">社交网站</tspan>
        </text>
    </g>
</svg>